<?xml version="1.0" encoding="UTF-8"?>
<svg xmlns="http://www.w3.org/2000/svg" xmlns:xlink="http://www.w3.org/1999/xlink" version="1.2" >
<font id="Volvo Broad Pro Digital">
<font-face  font-family="Volvo Broad Pro Digital" units-per-em="1000" ascent="835" descent="-165" font-style="normal" font-weight="500" font-stretch="normal" cap-height="667" x-height="667" underline-position="-44" underline-thickness="94" />
<missing-glyph  horiz-adv-x="454" d="M199 235 Q186 235 181.5 240.5 Q177 246 177 261 L177 305 Q177 319 178 326 Q179 333 183 340 L210 390 Q219 407 222 417 Q225 427 225 443 Q225 457 220 463 Q215 469 203 469 L166 469 Q143 469 143 497 L143 532 Q143 561 166 561 L247 561 Q286 561 303.5 535.5 Q321 510 321 455 Q321 436 320 424.5 Q319 413 317.5 404 Q316 395 312.5 386.5 Q309 378 303 367 L276 317 Q272 309 270.5 302 Q269 295 269 281 L269 255 Q269 243 264.5 239 Q260 235 248 235 L199 235 Z M198 106 Q185 106 181 112 Q177 118 177 137 L177 168 Q177 187 181 192.5 Q185 198 198 198 L248 198 Q261 198 265 192.5 Q269 187 269 168 L269 137 Q269 118 265 112 Q261 106 248 106 L198 106 Z M225 -14 Q154 -14 115.5 1 Q77 16 56 51 Q35 86 26.5 149.5 Q18 213 18 333 Q18 451 27 515 Q36 579 57.5 614.5 Q79 650 118.5 665 Q158 680 229 680 Q300 680 338.5 665 Q377 650 398 615 Q419 580 427.5 516.5 Q436 453 436 333 Q436 215 427 151 Q418 87 396.5 51.5 Q375 16 335.5 1 Q296 -14 225 -14 Z M227 61 Q279 61 300.5 70.5 Q322 80 334 105 Q346 130 351 180.5 Q356 231 356 333 Q356 434 351 484.5 Q346 535 334.5 560.5 Q323 586 301.5 596 Q280 606 227 606 Q174 606 152.5 596 Q131 586 119.5 560.5 Q108 535 103 484.5 Q98 434 98 333 Q98 231 103 180.5 Q108 130 120 105 Q132 80 153.5 70.5 Q175 61 227 61 Z " />
<glyph glyph-name=".null" d="" />
<glyph glyph-name="nonmarkingreturn" unicode="&#xd;" d="" />
<glyph glyph-name="space" unicode="&#x20;" horiz-adv-x="189" d="" />
<glyph glyph-name="nbspace" unicode="&#xa0;" horiz-adv-x="189" d="" />
<glyph glyph-name="A" unicode="A" horiz-adv-x="371" d="M258 0 Q250 0 246.5 3.5 Q243 7 241 18 L222 159 Q220 169 216.5 172 Q213 175 205 175 L163 175 Q155 175 151.5 172.5 Q148 170 146 159 L130 16 Q129 6 126 3 Q123 0 112 0 L20 0 Q1 0 3 15 L84 629 Q87 651 96 659 Q105 667 126 667 L242 667 Q260 667 269 658.5 Q278 650 281 628 L368 15 Q369 0 353 0 L258 0 Z M191 534 Q190 549 183 549 Q176 549 175 533 L158 304 Q157 293 171 293 L196 293 Q211 293 210 304 L191 534 Z " />
<glyph glyph-name="Agrave" unicode="&#xc0;" horiz-adv-x="371" d="M258 0 Q250 0 246.5 3.5 Q243 7 241 18 L222 159 Q220 169 216.5 172 Q213 175 205 175 L163 175 Q155 175 151.5 172.5 Q148 170 146 159 L130 16 Q129 6 126 3 Q123 0 112 0 L20 0 Q1 0 3 15 L84 629 Q87 651 96 659 Q105 667 126 667 L242 667 Q260 667 269 658.5 Q278 650 281 628 L368 15 Q369 0 353 0 L258 0 Z M191 534 Q190 549 183 549 Q176 549 175 533 L158 304 Q157 293 171 293 L196 293 Q211 293 210 304 L191 534 Z M169 692 Q161 692 157.5 693.5 Q154 695 147 701 L78 760 Q68 769 68 776 Q68 789 82 789 L170 789 Q177 789 180.5 786.5 Q184 784 192 773 L237 714 Q242 708 242 701 Q242 692 231 692 L169 692 Z " />
<glyph glyph-name="Aacute" unicode="&#xc1;" horiz-adv-x="371" d="M258 0 Q250 0 246.5 3.5 Q243 7 241 18 L222 159 Q220 169 216.5 172 Q213 175 205 175 L163 175 Q155 175 151.5 172.5 Q148 170 146 159 L130 16 Q129 6 126 3 Q123 0 112 0 L20 0 Q1 0 3 15 L84 629 Q87 651 96 659 Q105 667 126 667 L242 667 Q260 667 269 658.5 Q278 650 281 628 L368 15 Q369 0 353 0 L258 0 Z M191 534 Q190 549 183 549 Q176 549 175 533 L158 304 Q157 293 171 293 L196 293 Q211 293 210 304 L191 534 Z M221 701 Q214 695 210.5 693.5 Q207 692 199 692 L137 692 Q126 692 126 701 Q126 708 131 714 L176 773 Q184 784 187.5 786.5 Q191 789 198 789 L286 789 Q300 789 300 776 Q300 769 290 760 L221 701 Z " />
<glyph glyph-name="Acircumflex" unicode="&#xc2;" horiz-adv-x="371" d="M258 0 Q250 0 246.5 3.5 Q243 7 241 18 L222 159 Q220 169 216.5 172 Q213 175 205 175 L163 175 Q155 175 151.5 172.5 Q148 170 146 159 L130 16 Q129 6 126 3 Q123 0 112 0 L20 0 Q1 0 3 15 L84 629 Q87 651 96 659 Q105 667 126 667 L242 667 Q260 667 269 658.5 Q278 650 281 628 L368 15 Q369 0 353 0 L258 0 Z M191 534 Q190 549 183 549 Q176 549 175 533 L158 304 Q157 293 171 293 L196 293 Q211 293 210 304 L191 534 Z M238 692 Q223 692 215 702 L186 738 L158 702 Q150 692 135 692 L79 692 Q70 692 70 700 Q70 705 73 709 L114 773 Q120 782 126.5 785.5 Q133 789 144 789 L229 789 Q240 789 246.5 785.5 Q253 782 259 773 L300 709 Q303 705 303 700 Q303 692 294 692 L238 692 Z " />
<glyph glyph-name="Atilde" unicode="&#xc3;" horiz-adv-x="371" d="M258 0 Q250 0 246.5 3.5 Q243 7 241 18 L222 159 Q220 169 216.5 172 Q213 175 205 175 L163 175 Q155 175 151.5 172.5 Q148 170 146 159 L130 16 Q129 6 126 3 Q123 0 112 0 L20 0 Q1 0 3 15 L84 629 Q87 651 96 659 Q105 667 126 667 L242 667 Q260 667 269 658.5 Q278 650 281 628 L368 15 Q369 0 353 0 L258 0 Z M191 534 Q190 549 183 549 Q176 549 175 533 L158 304 Q157 293 171 293 L196 293 Q211 293 210 304 L191 534 Z M233 692 Q228 692 224 693 Q220 694 216 695 L145 716 Q137 719 133 719 Q129 719 129 713 L129 708 Q129 700 124 696 Q119 692 113 692 L88 692 Q73 692 68 698 Q63 704 63 718 L63 761 Q63 773 68 781 Q73 789 88 789 L128 789 Q133 789 137 788 Q141 787 145 786 L216 765 Q223 762 228 762 Q232 762 232 768 L232 773 Q232 781 237 785 Q242 789 248 789 L273 789 Q288 789 293 783 Q298 777 298 763 L298 720 Q298 708 293 700 Q288 692 273 692 L233 692 Z " />
<glyph glyph-name="Adieresis" unicode="&#xc4;" horiz-adv-x="371" d="M258 0 Q250 0 246.5 3.5 Q243 7 241 18 L222 159 Q220 169 216.5 172 Q213 175 205 175 L163 175 Q155 175 151.5 172.5 Q148 170 146 159 L130 16 Q129 6 126 3 Q123 0 112 0 L20 0 Q1 0 3 15 L84 629 Q87 651 96 659 Q105 667 126 667 L242 667 Q260 667 269 658.5 Q278 650 281 628 L368 15 Q369 0 353 0 L258 0 Z M191 534 Q190 549 183 549 Q176 549 175 533 L158 304 Q157 293 171 293 L196 293 Q211 293 210 304 L191 534 Z M231 692 Q213 692 206.5 698.5 Q200 705 200 723 L200 758 Q200 776 206.5 782.5 Q213 789 231 789 L260 789 Q278 789 284.5 782.5 Q291 776 291 758 L291 723 Q291 705 284.5 698.5 Q278 692 260 692 L231 692 Z M110 692 Q92 692 85.5 698.5 Q79 705 79 723 L79 758 Q79 776 85.5 782.5 Q92 789 110 789 L139 789 Q157 789 163.5 782.5 Q170 776 170 758 L170 723 Q170 705 163.5 698.5 Q157 692 139 692 L110 692 Z " />
<glyph glyph-name="Amacron" unicode="&#x100;" horiz-adv-x="371" d="M258 0 Q250 0 246.5 3.5 Q243 7 241 18 L222 159 Q220 169 216.5 172 Q213 175 205 175 L163 175 Q155 175 151.5 172.5 Q148 170 146 159 L130 16 Q129 6 126 3 Q123 0 112 0 L20 0 Q1 0 3 15 L84 629 Q87 651 96 659 Q105 667 126 667 L242 667 Q260 667 269 658.5 Q278 650 281 628 L368 15 Q369 0 353 0 L258 0 Z M191 534 Q190 549 183 549 Q176 549 175 533 L158 304 Q157 293 171 293 L196 293 Q211 293 210 304 L191 534 Z M118 692 Q90 692 81.5 698.5 Q73 705 73 723 L73 748 Q73 766 81.5 772.5 Q90 779 118 779 L253 779 Q281 779 289.5 772.5 Q298 766 298 748 L298 723 Q298 705 289.5 698.5 Q281 692 253 692 L118 692 Z " />
<glyph glyph-name="Abreve" unicode="&#x102;" horiz-adv-x="371" d="M258 0 Q250 0 246.5 3.5 Q243 7 241 18 L222 159 Q220 169 216.5 172 Q213 175 205 175 L163 175 Q155 175 151.5 172.5 Q148 170 146 159 L130 16 Q129 6 126 3 Q123 0 112 0 L20 0 Q1 0 3 15 L84 629 Q87 651 96 659 Q105 667 126 667 L242 667 Q260 667 269 658.5 Q278 650 281 628 L368 15 Q369 0 353 0 L258 0 Z M191 534 Q190 549 183 549 Q176 549 175 533 L158 304 Q157 293 171 293 L196 293 Q211 293 210 304 L191 534 Z M301 788 Q312 788 312 774 Q312 753 306.5 738.5 Q301 724 287.5 713.5 Q274 703 249 697 Q224 691 185 691 Q146 691 121 697 Q96 703 83 713.5 Q70 724 64.5 738.5 Q59 753 59 774 Q59 788 70 788 L133 788 Q146 788 146 776 Q146 756 186 756 Q225 756 225 776 Q225 788 238 788 L301 788 Z " />
<glyph glyph-name="Aring" unicode="&#xc5;" horiz-adv-x="371" d="M258 0 Q250 0 246.5 3.5 Q243 7 241 18 L222 159 Q220 169 216.5 172 Q213 175 205 175 L163 175 Q155 175 151.5 172.5 Q148 170 146 159 L130 16 Q129 6 126 3 Q123 0 112 0 L20 0 Q1 0 3 15 L84 629 Q86 649 94 657 Q102 665 118 667 Q106 675 102.5 688 Q99 701 99 725 Q99 741 100.5 754 Q102 767 110 776.5 Q118 786 135 791.5 Q152 797 183 797 Q214 797 231 791.5 Q248 786 256 776.5 Q264 767 265.5 754 Q267 741 267 725 Q267 699 263 687 Q259 675 248 667 Q263 665 270.5 656.5 Q278 648 281 628 L368 15 Q369 0 353 0 L258 0 Z M191 534 Q190 549 183 549 Q176 549 175 533 L158 304 Q157 293 171 293 L196 293 Q211 293 210 304 L191 534 Z M207 725 Q207 739 202 744 Q197 749 183 749 Q169 749 164 744 Q159 739 159 725 Q159 711 164 706 Q169 701 183 701 Q197 701 202 706 Q207 711 207 725 Z " />
<glyph glyph-name="Aogonek" unicode="&#x104;" horiz-adv-x="371" d="M258 0 Q250 0 246.5 3.5 Q243 7 241 18 L222 159 Q220 169 216.5 172 Q213 175 205 175 L163 175 Q155 175 151.5 172.5 Q148 170 146 159 L130 16 Q129 6 126 3 Q123 0 112 0 L20 0 Q1 0 3 15 L84 629 Q87 651 96 659 Q105 667 126 667 L242 667 Q260 667 269 658.5 Q278 650 281 628 L368 15 Q369 0 353 0 L258 0 Z M191 534 Q190 549 183 549 Q176 549 175 533 L158 304 Q157 293 171 293 L196 293 Q211 293 210 304 L191 534 Z M287 -137 Q265 -137 255 -126 Q245 -115 245 -92 L245 -75 Q245 -58 248 -41.5 Q251 -25 258 0 L326 0 Q320 -22 320 -29 Q320 -44 333 -44 L354 -44 Q377 -44 385 -50.5 Q393 -57 393 -75 L393 -97 Q393 -123 386.5 -130 Q380 -137 358 -137 L287 -137 Z " />
<glyph glyph-name="AE" unicode="&#xc6;" horiz-adv-x="511" d="M249 0 Q241 0 237.5 4 Q234 8 234 18 L234 159 Q234 169 230.5 172 Q227 175 219 175 L176 175 Q167 175 163.5 172 Q160 169 158 159 L130 16 Q128 6 124.5 3 Q121 0 110 0 L18 0 Q0 0 3 15 L135 629 Q139 650 149.5 658.5 Q160 667 181 667 L466 667 Q485 667 491.5 659.5 Q498 652 498 628 L498 591 Q498 566 491.5 557.5 Q485 549 466 549 L368 549 Q357 549 353.5 545 Q350 541 350 527 L350 434 Q350 420 352.5 416.5 Q355 413 368 413 L418 413 Q435 413 441 406 Q447 399 447 379 L447 328 Q447 309 440.5 302 Q434 295 418 295 L368 295 Q357 295 353.5 292 Q350 289 350 280 L350 140 Q350 127 354 122.5 Q358 118 371 118 L470 118 Q490 118 498 108.5 Q506 99 506 75 L506 43 Q506 20 498 10 Q490 0 472 0 L249 0 Z M234 534 Q234 549 228 549 Q221 549 218 533 L182 304 Q180 293 194 293 L219 293 Q234 293 234 304 L234 534 Z " />
<glyph glyph-name="B" unicode="B" horiz-adv-x="361" d="M58 0 Q39 0 32.5 9 Q26 18 26 44 L26 624 Q26 648 33 657.5 Q40 667 58 667 L239 667 Q273 667 295 650.5 Q317 634 327.5 599 Q338 564 338 499 Q338 436 325.5 400.5 Q313 365 284 348 Q315 336 331 293 Q347 250 347 180 Q347 117 335 77.5 Q323 38 299 19 Q275 0 239 0 L58 0 Z M179 404 Q204 404 212.5 418 Q221 432 221 476 Q221 515 212 532 Q203 549 179 549 L160 549 Q149 549 146 545 Q143 541 143 529 L143 424 Q143 412 146.5 408 Q150 404 160 404 L179 404 Z M179 118 Q209 118 218.5 135 Q228 152 228 201 Q228 248 218 267 Q208 286 179 286 L160 286 Q149 286 146 282 Q143 278 143 266 L143 138 Q143 127 146.5 122.5 Q150 118 160 118 L179 118 Z " />
<glyph glyph-name="C" unicode="C" horiz-adv-x="290" d="M137 0 Q96 0 73.5 14 Q51 28 39 61.5 Q27 95 22 155 Q17 215 17 327 Q17 455 21 512 Q25 569 36 602.5 Q47 636 69 651.5 Q91 667 132 667 L256 667 Q273 667 280 659.5 Q287 652 287 632 L287 587 Q287 564 280.5 556.5 Q274 549 254 549 L178 549 Q160 549 153.5 543 Q147 537 143.5 519 Q140 501 138.5 463.5 Q137 426 137 332 Q137 247 138.5 207.5 Q140 168 143.5 149.5 Q147 131 153 124.5 Q159 118 176 118 L254 118 Q272 118 279 110.5 Q286 103 286 84 L286 36 Q286 16 279.5 8 Q273 0 256 0 L137 0 Z " />
<glyph glyph-name="Cacute" unicode="&#x106;" horiz-adv-x="290" d="M137 0 Q96 0 73.5 14 Q51 28 39 61.5 Q27 95 22 155 Q17 215 17 327 Q17 455 21 512 Q25 569 36 602.5 Q47 636 69 651.5 Q91 667 132 667 L256 667 Q273 667 280 659.5 Q287 652 287 632 L287 587 Q287 564 280.5 556.5 Q274 549 254 549 L178 549 Q160 549 153.5 543 Q147 537 143.5 519 Q140 501 138.5 463.5 Q137 426 137 332 Q137 247 138.5 207.5 Q140 168 143.5 149.5 Q147 131 153 124.5 Q159 118 176 118 L254 118 Q272 118 279 110.5 Q286 103 286 84 L286 36 Q286 16 279.5 8 Q273 0 256 0 L137 0 Z M203 701 Q196 695 192.5 693.5 Q189 692 181 692 L119 692 Q108 692 108 701 Q108 708 113 714 L158 773 Q166 784 169.5 786.5 Q173 789 180 789 L268 789 Q282 789 282 776 Q282 769 272 760 L203 701 Z " />
<glyph glyph-name="Ccaron" unicode="&#x10c;" horiz-adv-x="290" d="M137 0 Q96 0 73.5 14 Q51 28 39 61.5 Q27 95 22 155 Q17 215 17 327 Q17 455 21 512 Q25 569 36 602.5 Q47 636 69 651.5 Q91 667 132 667 L256 667 Q273 667 280 659.5 Q287 652 287 632 L287 587 Q287 564 280.5 556.5 Q274 549 254 549 L178 549 Q160 549 153.5 543 Q147 537 143.5 519 Q140 501 138.5 463.5 Q137 426 137 332 Q137 247 138.5 207.5 Q140 168 143.5 149.5 Q147 131 153 124.5 Q159 118 176 118 L254 118 Q272 118 279 110.5 Q286 103 286 84 L286 36 Q286 16 279.5 8 Q273 0 256 0 L137 0 Z M113 789 Q128 789 136 779 L165 743 L193 779 Q197 785 202 787 Q207 789 216 789 L272 789 Q281 789 281 781 Q281 776 278 772 L237 708 Q231 699 224.5 695.5 Q218 692 207 692 L122 692 Q111 692 104.5 695.5 Q98 699 92 708 L51 772 Q48 776 48 781 Q48 789 57 789 L113 789 Z " />
<glyph glyph-name="Ccedilla" unicode="&#xc7;" horiz-adv-x="290" d="M137 0 Q96 0 73.5 14 Q51 28 39 61.5 Q27 95 22 155 Q17 215 17 327 Q17 455 21 512 Q25 569 36 602.5 Q47 636 69 651.5 Q91 667 132 667 L256 667 Q273 667 280 659.5 Q287 652 287 632 L287 587 Q287 564 280.5 556.5 Q274 549 254 549 L178 549 Q160 549 153.5 543 Q147 537 143.5 519 Q140 501 138.5 463.5 Q137 426 137 332 Q137 247 138.5 207.5 Q140 168 143.5 149.5 Q147 131 153 124.5 Q159 118 176 118 L254 118 Q272 118 279 110.5 Q286 103 286 84 L286 36 Q286 16 279.5 8 Q273 0 256 0 L137 0 Z M120 -137 Q98 -137 91.5 -130 Q85 -123 85 -97 L85 -75 Q85 -57 93 -50.5 Q101 -44 124 -44 L145 -44 Q158 -44 158 -29 Q158 -22 152 0 L220 0 Q227 -23 230 -39.5 Q233 -56 233 -75 L233 -92 Q233 -115 223 -126 Q213 -137 191 -137 L120 -137 Z " />
<glyph glyph-name="D" unicode="D" horiz-adv-x="366" d="M61 0 Q39 0 32.5 8 Q26 16 26 43 L26 622 Q26 647 33 657 Q40 667 58 667 L229 667 Q268 667 291 652 Q314 637 326.5 604.5 Q339 572 344 515 Q349 458 349 334 Q349 217 343.5 155 Q338 93 326 60 Q314 27 291 13.5 Q268 0 223 0 L61 0 Z M140 145 Q140 126 145.5 122 Q151 118 177 118 Q207 118 215.5 130 Q224 142 227 177 Q230 212 230 324 Q230 433 228.5 468 Q227 503 222.5 520 Q218 537 209.5 543 Q201 549 174 549 Q152 549 146 543.5 Q140 538 140 519 L140 145 Z " />
<glyph glyph-name="Dcaron" unicode="&#x10e;" horiz-adv-x="366" d="M61 0 Q39 0 32.5 8 Q26 16 26 43 L26 622 Q26 647 33 657 Q40 667 58 667 L229 667 Q268 667 291 652 Q314 637 326.5 604.5 Q339 572 344 515 Q349 458 349 334 Q349 217 343.5 155 Q338 93 326 60 Q314 27 291 13.5 Q268 0 223 0 L61 0 Z M140 145 Q140 126 145.5 122 Q151 118 177 118 Q207 118 215.5 130 Q224 142 227 177 Q230 212 230 324 Q230 433 228.5 468 Q227 503 222.5 520 Q218 537 209.5 543 Q201 549 174 549 Q152 549 146 543.5 Q140 538 140 519 L140 145 Z M132 789 Q147 789 155 779 L184 743 L212 779 Q216 785 221 787 Q226 789 235 789 L291 789 Q300 789 300 781 Q300 776 297 772 L256 708 Q250 699 243.5 695.5 Q237 692 226 692 L141 692 Q130 692 123.5 695.5 Q117 699 111 708 L70 772 Q67 776 67 781 Q67 789 76 789 L132 789 Z " />
<glyph glyph-name="Eth" unicode="&#xd0;" horiz-adv-x="376" d="M71 0 Q49 0 42.5 8 Q36 16 36 43 L36 298 L29 298 Q12 298 6 304.5 Q0 311 0 330 L0 379 Q0 397 6.5 403.5 Q13 410 29 410 L36 410 L36 622 Q36 647 43 657 Q50 667 68 667 L239 667 Q281 667 304.5 649.5 Q328 632 339.5 596 Q351 560 355 503 Q359 446 359 334 Q359 218 353.5 155.5 Q348 93 335.5 59.5 Q323 26 300 13 Q277 0 233 0 L71 0 Z M150 298 L150 145 Q150 126 155.5 122 Q161 118 187 118 Q210 118 218.5 123.5 Q227 129 232 146 Q237 163 238.5 199.5 Q240 236 240 324 Q240 429 238.5 465.5 Q237 502 232.5 519.5 Q228 537 219 543 Q210 549 184 549 Q162 549 156 543.5 Q150 538 150 519 L150 410 L170 410 Q187 410 193 403.5 Q199 397 199 378 L199 329 Q199 311 192.5 304.5 Q186 298 170 298 L150 298 Z " />
<glyph glyph-name="Dcroat" unicode="&#x110;" horiz-adv-x="376" d="M71 0 Q49 0 42.5 8 Q36 16 36 43 L36 298 L29 298 Q12 298 6 304.5 Q0 311 0 330 L0 379 Q0 397 6.5 403.5 Q13 410 29 410 L36 410 L36 622 Q36 647 43 657 Q50 667 68 667 L239 667 Q281 667 304.5 649.5 Q328 632 339.5 596 Q351 560 355 503 Q359 446 359 334 Q359 218 353.5 155.5 Q348 93 335.5 59.5 Q323 26 300 13 Q277 0 233 0 L71 0 Z M150 298 L150 145 Q150 126 155.5 122 Q161 118 187 118 Q210 118 218.5 123.5 Q227 129 232 146 Q237 163 238.5 199.5 Q240 236 240 324 Q240 429 238.5 465.5 Q237 502 232.5 519.5 Q228 537 219 543 Q210 549 184 549 Q162 549 156 543.5 Q150 538 150 519 L150 410 L170 410 Q187 410 193 403.5 Q199 397 199 378 L199 329 Q199 311 192.5 304.5 Q186 298 170 298 L150 298 Z " />
<glyph glyph-name="E" unicode="E" horiz-adv-x="301" d="M60 0 Q40 0 33 9 Q26 18 26 44 L26 623 Q26 648 33.5 657.5 Q41 667 60 667 L258 667 Q277 667 283.5 659.5 Q290 652 290 628 L290 591 Q290 566 283.5 557.5 Q277 549 258 549 L160 549 Q149 549 145.5 545 Q142 541 142 527 L142 434 Q142 420 144.5 416.5 Q147 413 160 413 L210 413 Q227 413 233 406 Q239 399 239 379 L239 328 Q239 309 232.5 302 Q226 295 210 295 L160 295 Q149 295 145.5 292 Q142 289 142 280 L142 140 Q142 127 146 122.5 Q150 118 163 118 L262 118 Q282 118 290 108.5 Q298 99 298 75 L298 43 Q298 20 290 10 Q282 0 264 0 L60 0 Z " />
<glyph glyph-name="Egrave" unicode="&#xc8;" horiz-adv-x="301" d="M60 0 Q40 0 33 9 Q26 18 26 44 L26 623 Q26 648 33.5 657.5 Q41 667 60 667 L258 667 Q277 667 283.5 659.5 Q290 652 290 628 L290 591 Q290 566 283.5 557.5 Q277 549 258 549 L160 549 Q149 549 145.5 545 Q142 541 142 527 L142 434 Q142 420 144.5 416.5 Q147 413 160 413 L210 413 Q227 413 233 406 Q239 399 239 379 L239 328 Q239 309 232.5 302 Q226 295 210 295 L160 295 Q149 295 145.5 292 Q142 289 142 280 L142 140 Q142 127 146 122.5 Q150 118 163 118 L262 118 Q282 118 290 108.5 Q298 99 298 75 L298 43 Q298 20 290 10 Q282 0 264 0 L60 0 Z M144 692 Q136 692 132.5 693.5 Q129 695 122 701 L53 760 Q43 769 43 776 Q43 789 57 789 L145 789 Q152 789 155.5 786.5 Q159 784 167 773 L212 714 Q217 708 217 701 Q217 692 206 692 L144 692 Z " />
<glyph glyph-name="Eacute" unicode="&#xc9;" horiz-adv-x="301" d="M60 0 Q40 0 33 9 Q26 18 26 44 L26 623 Q26 648 33.5 657.5 Q41 667 60 667 L258 667 Q277 667 283.5 659.5 Q290 652 290 628 L290 591 Q290 566 283.5 557.5 Q277 549 258 549 L160 549 Q149 549 145.5 545 Q142 541 142 527 L142 434 Q142 420 144.5 416.5 Q147 413 160 413 L210 413 Q227 413 233 406 Q239 399 239 379 L239 328 Q239 309 232.5 302 Q226 295 210 295 L160 295 Q149 295 145.5 292 Q142 289 142 280 L142 140 Q142 127 146 122.5 Q150 118 163 118 L262 118 Q282 118 290 108.5 Q298 99 298 75 L298 43 Q298 20 290 10 Q282 0 264 0 L60 0 Z M169 701 Q162 695 158.5 693.5 Q155 692 147 692 L85 692 Q74 692 74 701 Q74 708 79 714 L124 773 Q132 784 135.5 786.5 Q139 789 146 789 L234 789 Q248 789 248 776 Q248 769 238 760 L169 701 Z " />
<glyph glyph-name="Ecircumflex" unicode="&#xca;" horiz-adv-x="301" d="M60 0 Q40 0 33 9 Q26 18 26 44 L26 623 Q26 648 33.5 657.5 Q41 667 60 667 L258 667 Q277 667 283.5 659.5 Q290 652 290 628 L290 591 Q290 566 283.5 557.5 Q277 549 258 549 L160 549 Q149 549 145.5 545 Q142 541 142 527 L142 434 Q142 420 144.5 416.5 Q147 413 160 413 L210 413 Q227 413 233 406 Q239 399 239 379 L239 328 Q239 309 232.5 302 Q226 295 210 295 L160 295 Q149 295 145.5 292 Q142 289 142 280 L142 140 Q142 127 146 122.5 Q150 118 163 118 L262 118 Q282 118 290 108.5 Q298 99 298 75 L298 43 Q298 20 290 10 Q282 0 264 0 L60 0 Z M198 692 Q183 692 175 702 L146 738 L118 702 Q110 692 95 692 L39 692 Q30 692 30 700 Q30 705 33 709 L74 773 Q80 782 86.5 785.5 Q93 789 104 789 L189 789 Q200 789 206.5 785.5 Q213 782 219 773 L260 709 Q263 705 263 700 Q263 692 254 692 L198 692 Z " />
<glyph glyph-name="Ecaron" unicode="&#x11a;" horiz-adv-x="301" d="M60 0 Q40 0 33 9 Q26 18 26 44 L26 623 Q26 648 33.5 657.5 Q41 667 60 667 L258 667 Q277 667 283.5 659.5 Q290 652 290 628 L290 591 Q290 566 283.5 557.5 Q277 549 258 549 L160 549 Q149 549 145.5 545 Q142 541 142 527 L142 434 Q142 420 144.5 416.5 Q147 413 160 413 L210 413 Q227 413 233 406 Q239 399 239 379 L239 328 Q239 309 232.5 302 Q226 295 210 295 L160 295 Q149 295 145.5 292 Q142 289 142 280 L142 140 Q142 127 146 122.5 Q150 118 163 118 L262 118 Q282 118 290 108.5 Q298 99 298 75 L298 43 Q298 20 290 10 Q282 0 264 0 L60 0 Z M99 789 Q114 789 122 779 L151 743 L179 779 Q183 785 188 787 Q193 789 202 789 L258 789 Q267 789 267 781 Q267 776 264 772 L223 708 Q217 699 210.5 695.5 Q204 692 193 692 L108 692 Q97 692 90.5 695.5 Q84 699 78 708 L37 772 Q34 776 34 781 Q34 789 43 789 L99 789 Z " />
<glyph glyph-name="Edieresis" unicode="&#xcb;" horiz-adv-x="301" d="M60 0 Q40 0 33 9 Q26 18 26 44 L26 623 Q26 648 33.5 657.5 Q41 667 60 667 L258 667 Q277 667 283.5 659.5 Q290 652 290 628 L290 591 Q290 566 283.5 557.5 Q277 549 258 549 L160 549 Q149 549 145.5 545 Q142 541 142 527 L142 434 Q142 420 144.5 416.5 Q147 413 160 413 L210 413 Q227 413 233 406 Q239 399 239 379 L239 328 Q239 309 232.5 302 Q226 295 210 295 L160 295 Q149 295 145.5 292 Q142 289 142 280 L142 140 Q142 127 146 122.5 Q150 118 163 118 L262 118 Q282 118 290 108.5 Q298 99 298 75 L298 43 Q298 20 290 10 Q282 0 264 0 L60 0 Z M193 692 Q175 692 168.5 698.5 Q162 705 162 723 L162 758 Q162 776 168.5 782.5 Q175 789 193 789 L222 789 Q240 789 246.5 782.5 Q253 776 253 758 L253 723 Q253 705 246.5 698.5 Q240 692 222 692 L193 692 Z M72 692 Q54 692 47.5 698.5 Q41 705 41 723 L41 758 Q41 776 47.5 782.5 Q54 789 72 789 L101 789 Q119 789 125.5 782.5 Q132 776 132 758 L132 723 Q132 705 125.5 698.5 Q119 692 101 692 L72 692 Z " />
<glyph glyph-name="Emacron" unicode="&#x112;" horiz-adv-x="301" d="M60 0 Q40 0 33 9 Q26 18 26 44 L26 623 Q26 648 33.5 657.5 Q41 667 60 667 L258 667 Q277 667 283.5 659.5 Q290 652 290 628 L290 591 Q290 566 283.5 557.5 Q277 549 258 549 L160 549 Q149 549 145.5 545 Q142 541 142 527 L142 434 Q142 420 144.5 416.5 Q147 413 160 413 L210 413 Q227 413 233 406 Q239 399 239 379 L239 328 Q239 309 232.5 302 Q226 295 210 295 L160 295 Q149 295 145.5 292 Q142 289 142 280 L142 140 Q142 127 146 122.5 Q150 118 163 118 L262 118 Q282 118 290 108.5 Q298 99 298 75 L298 43 Q298 20 290 10 Q282 0 264 0 L60 0 Z M83 692 Q55 692 46.5 698.5 Q38 705 38 723 L38 748 Q38 766 46.5 772.5 Q55 779 83 779 L218 779 Q246 779 254.5 772.5 Q263 766 263 748 L263 723 Q263 705 254.5 698.5 Q246 692 218 692 L83 692 Z " />
<glyph glyph-name="Edotaccent" unicode="&#x116;" horiz-adv-x="301" d="M60 0 Q40 0 33 9 Q26 18 26 44 L26 623 Q26 648 33.5 657.5 Q41 667 60 667 L258 667 Q277 667 283.5 659.5 Q290 652 290 628 L290 591 Q290 566 283.5 557.5 Q277 549 258 549 L160 549 Q149 549 145.5 545 Q142 541 142 527 L142 434 Q142 420 144.5 416.5 Q147 413 160 413 L210 413 Q227 413 233 406 Q239 399 239 379 L239 328 Q239 309 232.5 302 Q226 295 210 295 L160 295 Q149 295 145.5 292 Q142 289 142 280 L142 140 Q142 127 146 122.5 Q150 118 163 118 L262 118 Q282 118 290 108.5 Q298 99 298 75 L298 43 Q298 20 290 10 Q282 0 264 0 L60 0 Z M133 692 Q115 692 108.5 698.5 Q102 705 102 723 L102 758 Q102 776 108.5 782.5 Q115 789 133 789 L168 789 Q186 789 192.5 782.5 Q199 776 199 758 L199 723 Q199 705 192.5 698.5 Q186 692 168 692 L133 692 Z " />
<glyph glyph-name="Eogonek" unicode="&#x118;" horiz-adv-x="301" d="M60 0 Q40 0 33 9 Q26 18 26 44 L26 623 Q26 648 33.5 657.5 Q41 667 60 667 L258 667 Q277 667 283.5 659.5 Q290 652 290 628 L290 591 Q290 566 283.5 557.5 Q277 549 258 549 L160 549 Q149 549 145.5 545 Q142 541 142 527 L142 434 Q142 420 144.5 416.5 Q147 413 160 413 L210 413 Q227 413 233 406 Q239 399 239 379 L239 328 Q239 309 232.5 302 Q226 295 210 295 L160 295 Q149 295 145.5 292 Q142 289 142 280 L142 140 Q142 127 146 122.5 Q150 118 163 118 L262 118 Q282 118 290 108.5 Q298 99 298 75 L298 43 Q298 20 290 10 Q282 0 264 0 L60 0 Z M192 -137 Q170 -137 160 -126 Q150 -115 150 -92 L150 -75 Q150 -58 153 -41.5 Q156 -25 163 0 L231 0 Q225 -22 225 -29 Q225 -44 238 -44 L259 -44 Q282 -44 290 -50.5 Q298 -57 298 -75 L298 -97 Q298 -123 291.5 -130 Q285 -137 263 -137 L192 -137 Z " />
<glyph glyph-name="F" unicode="F" horiz-adv-x="287" d="M58 0 Q39 0 32.5 8.5 Q26 17 26 42 L26 621 Q26 649 32.5 658 Q39 667 59 667 L249 667 Q269 667 276.5 657.5 Q284 648 284 624 L284 589 Q284 566 277 557.5 Q270 549 253 549 L161 549 Q149 549 146 544 Q143 539 143 522 L143 431 Q143 420 146 416.5 Q149 413 156 413 L212 413 Q230 413 236 405 Q242 397 242 373 L242 338 Q242 313 235.5 304 Q229 295 211 295 L161 295 Q149 295 146 290.5 Q143 286 143 269 L143 42 Q143 18 137 9 Q131 0 114 0 L58 0 Z " />
<glyph glyph-name="G" unicode="G" horiz-adv-x="356" d="M237 269 Q237 284 234.5 289.5 Q232 295 225 295 L196 295 Q185 295 181.5 301 Q178 307 178 326 L178 372 Q178 397 185.5 405 Q193 413 215 413 L310 413 Q328 413 334.5 403.5 Q341 394 341 369 L341 202 Q341 143 333 104.5 Q325 66 308 42 Q291 18 261.5 6.5 Q232 -5 187 -5 Q129 -5 95.5 11.5 Q62 28 45.5 61.5 Q29 95 23 149 Q17 203 17 328 Q17 457 21 509.5 Q25 562 36.5 596.5 Q48 631 72 649 Q96 667 136 667 L267 667 Q288 667 294.5 658.5 Q301 650 301 625 L301 593 Q301 568 294.5 558.5 Q288 549 270 549 L198 549 Q168 549 158.5 543 Q149 537 144.5 520 Q140 503 138 467.5 Q136 432 136 328 L136 216 Q136 158 148 137 Q160 116 189 116 Q213 116 225 136 Q237 156 237 199 L237 269 Z " />
<glyph glyph-name="Gbreve" unicode="&#x11e;" horiz-adv-x="356" d="M237 269 Q237 284 234.5 289.5 Q232 295 225 295 L196 295 Q185 295 181.5 301 Q178 307 178 326 L178 372 Q178 397 185.5 405 Q193 413 215 413 L310 413 Q328 413 334.5 403.5 Q341 394 341 369 L341 202 Q341 143 333 104.5 Q325 66 308 42 Q291 18 261.5 6.5 Q232 -5 187 -5 Q129 -5 95.5 11.5 Q62 28 45.5 61.5 Q29 95 23 149 Q17 203 17 328 Q17 457 21 509.5 Q25 562 36.5 596.5 Q48 631 72 649 Q96 667 136 667 L267 667 Q288 667 294.5 658.5 Q301 650 301 625 L301 593 Q301 568 294.5 558.5 Q288 549 270 549 L198 549 Q168 549 158.5 543 Q149 537 144.5 520 Q140 503 138 467.5 Q136 432 136 328 L136 216 Q136 158 148 137 Q160 116 189 116 Q213 116 225 136 Q237 156 237 199 L237 269 Z M293 788 Q304 788 304 774 Q304 753 298.5 738.5 Q293 724 279.5 713.5 Q266 703 241 697 Q216 691 177 691 Q138 691 113 697 Q88 703 75 713.5 Q62 724 56.5 738.5 Q51 753 51 774 Q51 788 62 788 L125 788 Q138 788 138 776 Q138 756 178 756 Q217 756 217 776 Q217 788 230 788 L293 788 Z " />
<glyph glyph-name="Gcommaaccent" unicode="&#x122;" horiz-adv-x="356" d="M237 269 Q237 284 234.5 289.5 Q232 295 225 295 L196 295 Q185 295 181.5 301 Q178 307 178 326 L178 372 Q178 397 185.5 405 Q193 413 215 413 L310 413 Q328 413 334.5 403.5 Q341 394 341 369 L341 202 Q341 143 333 104.5 Q325 66 308 42 Q291 18 261.5 6.5 Q232 -5 187 -5 Q129 -5 95.5 11.5 Q62 28 45.5 61.5 Q29 95 23 149 Q17 203 17 328 Q17 457 21 509.5 Q25 562 36.5 596.5 Q48 631 72 649 Q96 667 136 667 L267 667 Q288 667 294.5 658.5 Q301 650 301 625 L301 593 Q301 568 294.5 558.5 Q288 549 270 549 L198 549 Q168 549 158.5 543 Q149 537 144.5 520 Q140 503 138 467.5 Q136 432 136 328 L136 216 Q136 158 148 137 Q160 116 189 116 Q213 116 225 136 Q237 156 237 199 L237 269 Z M169 -127 Q163 -133 158.5 -135 Q154 -137 144 -137 L89 -137 Q75 -137 75 -126 Q75 -121 77 -117 Q79 -113 84 -105 L124 -43 Q131 -31 136.5 -27.5 Q142 -24 153 -24 L232 -24 Q247 -24 247 -38 Q247 -48 237 -58 L169 -127 Z " />
<glyph glyph-name="H" unicode="H" horiz-adv-x="378" d="M266 0 Q248 0 241.5 9.5 Q235 19 235 43 L235 274 Q235 286 232 290.5 Q229 295 219 295 L159 295 Q149 295 146 290.5 Q143 286 143 274 L143 43 Q143 19 136.5 9.5 Q130 0 112 0 L59 0 Q40 0 33 9.5 Q26 19 26 44 L26 624 Q26 648 33.5 657.5 Q41 667 59 667 L113 667 Q129 667 136 657 Q143 647 143 625 L143 432 Q143 421 146.5 417 Q150 413 158 413 L220 413 Q228 413 231.5 417 Q235 421 235 432 L235 625 Q235 647 242 657 Q249 667 265 667 L319 667 Q337 667 344.5 657.5 Q352 648 352 624 L352 44 Q352 19 345 9.5 Q338 0 319 0 L266 0 Z " />
<glyph glyph-name="I" unicode="I" horiz-adv-x="170" d="M61 0 Q40 0 33 8.5 Q26 17 26 44 L26 622 Q26 648 33 657.5 Q40 667 59 667 L113 667 Q130 667 137 657.5 Q144 648 144 622 L144 42 Q144 17 137.5 8.5 Q131 0 111 0 L61 0 Z " />
<glyph glyph-name="Igrave" unicode="&#xcc;" horiz-adv-x="170" d="M61 0 Q40 0 33 8.5 Q26 17 26 44 L26 622 Q26 648 33 657.5 Q40 667 59 667 L113 667 Q130 667 137 657.5 Q144 648 144 622 L144 42 Q144 17 137.5 8.5 Q131 0 111 0 L61 0 Z M83 692 Q75 692 71.5 693.5 Q68 695 61 701 L-8 760 Q-18 769 -18 776 Q-18 789 -4 789 L84 789 Q91 789 94.5 786.5 Q98 784 106 773 L151 714 Q156 708 156 701 Q156 692 145 692 L83 692 Z " />
<glyph glyph-name="Iacute" unicode="&#xcd;" horiz-adv-x="170" d="M61 0 Q40 0 33 8.5 Q26 17 26 44 L26 622 Q26 648 33 657.5 Q40 667 59 667 L113 667 Q130 667 137 657.5 Q144 648 144 622 L144 42 Q144 17 137.5 8.5 Q131 0 111 0 L61 0 Z M101 701 Q94 695 90.5 693.5 Q87 692 79 692 L17 692 Q6 692 6 701 Q6 708 11 714 L56 773 Q64 784 67.5 786.5 Q71 789 78 789 L166 789 Q180 789 180 776 Q180 769 170 760 L101 701 Z " />
<glyph glyph-name="Icircumflex" unicode="&#xce;" horiz-adv-x="170" d="M61 0 Q40 0 33 8.5 Q26 17 26 44 L26 622 Q26 648 33 657.5 Q40 667 59 667 L113 667 Q130 667 137 657.5 Q144 648 144 622 L144 42 Q144 17 137.5 8.5 Q131 0 111 0 L61 0 Z M137 692 Q122 692 114 702 L85 738 L57 702 Q49 692 34 692 L-22 692 Q-31 692 -31 700 Q-31 705 -28 709 L13 773 Q19 782 25.5 785.5 Q32 789 43 789 L128 789 Q139 789 145.5 785.5 Q152 782 158 773 L199 709 Q202 705 202 700 Q202 692 193 692 L137 692 Z " />
<glyph glyph-name="Idieresis" unicode="&#xcf;" horiz-adv-x="170" d="M61 0 Q40 0 33 8.5 Q26 17 26 44 L26 622 Q26 648 33 657.5 Q40 667 59 667 L113 667 Q130 667 137 657.5 Q144 648 144 622 L144 42 Q144 17 137.5 8.5 Q131 0 111 0 L61 0 Z M133 692 Q115 692 108.5 698.5 Q102 705 102 723 L102 758 Q102 776 108.5 782.5 Q115 789 133 789 L162 789 Q180 789 186.5 782.5 Q193 776 193 758 L193 723 Q193 705 186.5 698.5 Q180 692 162 692 L133 692 Z M12 692 Q-6 692 -12.5 698.5 Q-19 705 -19 723 L-19 758 Q-19 776 -12.5 782.5 Q-6 789 12 789 L41 789 Q59 789 65.5 782.5 Q72 776 72 758 L72 723 Q72 705 65.5 698.5 Q59 692 41 692 L12 692 Z " />
<glyph glyph-name="Imacron" unicode="&#x12a;" horiz-adv-x="170" d="M61 0 Q40 0 33 8.5 Q26 17 26 44 L26 622 Q26 648 33 657.5 Q40 667 59 667 L113 667 Q130 667 137 657.5 Q144 648 144 622 L144 42 Q144 17 137.5 8.5 Q131 0 111 0 L61 0 Z M18 692 Q-10 692 -18.5 698.5 Q-27 705 -27 723 L-27 748 Q-27 766 -18.5 772.5 Q-10 779 18 779 L153 779 Q181 779 189.5 772.5 Q198 766 198 748 L198 723 Q198 705 189.5 698.5 Q181 692 153 692 L18 692 Z " />
<glyph glyph-name="Idotaccent" unicode="&#x130;" horiz-adv-x="170" d="M61 0 Q40 0 33 8.5 Q26 17 26 44 L26 622 Q26 648 33 657.5 Q40 667 59 667 L113 667 Q130 667 137 657.5 Q144 648 144 622 L144 42 Q144 17 137.5 8.5 Q131 0 111 0 L61 0 Z M68 692 Q50 692 43.5 698.5 Q37 705 37 723 L37 758 Q37 776 43.5 782.5 Q50 789 68 789 L103 789 Q121 789 127.5 782.5 Q134 776 134 758 L134 723 Q134 705 127.5 698.5 Q121 692 103 692 L68 692 Z " />
<glyph glyph-name="Iogonek" unicode="&#x12e;" horiz-adv-x="170" d="M68 -137 Q46 -137 36 -126 Q26 -115 26 -92 L26 -75 Q26 -64 27 -58 Q28 -52 30 -45 Q32 -38 37.5 -27.5 Q43 -17 53 0 Q37 2 31.5 11 Q26 20 26 44 L26 622 Q26 648 33 657.5 Q40 667 59 667 L113 667 Q130 667 137 657.5 Q144 648 144 622 L144 42 Q144 19 139 10.5 Q134 2 117 0 Q108 -18 105.5 -24.5 Q103 -31 103 -36 Q103 -44 114 -44 L131 -44 Q154 -44 162 -50.5 Q170 -57 170 -75 L170 -97 Q170 -123 163.5 -130 Q157 -137 135 -137 L68 -137 Z " />
<glyph glyph-name="J" unicode="J" horiz-adv-x="230" d="M38 0 Q16 0 9.5 7.5 Q3 15 3 41 L3 78 Q3 102 9 110 Q15 118 35 118 L61 118 Q80 118 86.5 127.5 Q93 137 93 162 L93 625 Q93 651 99.5 659 Q106 667 127 667 L177 667 Q198 667 204.5 659 Q211 651 211 626 L211 171 Q211 84 180 42 Q149 0 87 0 L38 0 Z " />
<glyph glyph-name="K" unicode="K" horiz-adv-x="375" d="M270 0 Q257 0 251.5 6 Q246 12 242 29 L192 266 Q190 276 188 279 Q186 282 182 282 Q180 282 178 281 Q176 280 173 276 Q170 272 165.5 264 Q161 256 153 241 Q148 231 146 219 Q144 207 144 185 L144 42 Q144 17 137.5 8.5 Q131 0 111 0 L61 0 Q40 0 33 8.5 Q26 17 26 44 L26 622 Q26 648 33 657.5 Q40 667 59 667 L113 667 Q130 667 137 657.5 Q144 648 144 622 L144 473 Q144 462 149 462 Q154 462 159 473 L233 629 Q245 654 251 660.5 Q257 667 271 667 L360 667 Q372 667 372 655 Q372 649 369 643 L270 451 Q264 439 264 429 Q264 422 267 411 L368 30 Q373 12 369.5 6 Q366 0 352 0 L270 0 Z " />
<glyph glyph-name="Kcommaaccent" unicode="&#x136;" horiz-adv-x="375" d="M270 0 Q257 0 251.5 6 Q246 12 242 29 L192 266 Q190 276 188 279 Q186 282 182 282 Q180 282 178 281 Q176 280 173 276 Q170 272 165.5 264 Q161 256 153 241 Q148 231 146 219 Q144 207 144 185 L144 42 Q144 17 137.5 8.5 Q131 0 111 0 L61 0 Q40 0 33 8.5 Q26 17 26 44 L26 622 Q26 648 33 657.5 Q40 667 59 667 L113 667 Q130 667 137 657.5 Q144 648 144 622 L144 473 Q144 462 149 462 Q154 462 159 473 L233 629 Q245 654 251 660.5 Q257 667 271 667 L360 667 Q372 667 372 655 Q372 649 369 643 L270 451 Q264 439 264 429 Q264 422 267 411 L368 30 Q373 12 369.5 6 Q366 0 352 0 L270 0 Z M169 -127 Q163 -133 158.5 -135 Q154 -137 144 -137 L89 -137 Q75 -137 75 -126 Q75 -121 77 -117 Q79 -113 84 -105 L124 -43 Q131 -31 136.5 -27.5 Q142 -24 153 -24 L232 -24 Q247 -24 247 -38 Q247 -48 237 -58 L169 -127 Z " />
<glyph glyph-name="L" unicode="L" horiz-adv-x="278" d="M59 0 Q39 0 32.5 8.5 Q26 17 26 44 L26 624 Q26 647 33.5 657 Q41 667 59 667 L112 667 Q131 667 137.5 658 Q144 649 144 624 L144 139 Q144 127 148 122.5 Q152 118 160 118 L241 118 Q261 118 268 109 Q275 100 275 76 L275 43 Q275 20 266.5 10 Q258 0 238 0 L59 0 Z " />
<glyph glyph-name="Lacute" unicode="&#x139;" horiz-adv-x="278" d="M59 0 Q39 0 32.5 8.5 Q26 17 26 44 L26 624 Q26 647 33.5 657 Q41 667 59 667 L112 667 Q131 667 137.5 658 Q144 649 144 624 L144 139 Q144 127 148 122.5 Q152 118 160 118 L241 118 Q261 118 268 109 Q275 100 275 76 L275 43 Q275 20 266.5 10 Q258 0 238 0 L59 0 Z M139 701 Q132 695 128.5 693.5 Q125 692 117 692 L55 692 Q44 692 44 701 Q44 708 49 714 L94 773 Q102 784 105.5 786.5 Q109 789 116 789 L204 789 Q218 789 218 776 Q218 769 208 760 L139 701 Z " />
<glyph glyph-name="Lcaron" unicode="&#x13d;" horiz-adv-x="278" d="M59 0 Q39 0 32.5 8.5 Q26 17 26 44 L26 624 Q26 647 33.5 657 Q41 667 59 667 L112 667 Q131 667 137.5 658 Q144 649 144 624 L144 139 Q144 127 148 122.5 Q152 118 160 118 L241 118 Q261 118 268 109 Q275 100 275 76 L275 43 Q275 20 266.5 10 Q258 0 238 0 L59 0 Z M188 455 Q178 455 176 458.5 Q174 462 178 474 L198 531 Q201 539 200 544 Q199 549 193 549 L186 549 Q176 549 173 556 Q170 563 170 586 L170 623 Q170 648 177 657.5 Q184 667 203 667 L244 667 Q261 667 268 658 Q275 649 275 626 L275 585 Q275 572 274 565 Q273 558 271 550 L246 474 Q240 455 224 455 L188 455 Z " />
<glyph glyph-name="Lcommaaccent" unicode="&#x13b;" horiz-adv-x="278" d="M59 0 Q39 0 32.5 8.5 Q26 17 26 44 L26 624 Q26 647 33.5 657 Q41 667 59 667 L112 667 Q131 667 137.5 658 Q144 649 144 624 L144 139 Q144 127 148 122.5 Q152 118 160 118 L241 118 Q261 118 268 109 Q275 100 275 76 L275 43 Q275 20 266.5 10 Q258 0 238 0 L59 0 Z M139 -127 Q133 -133 128.5 -135 Q124 -137 114 -137 L59 -137 Q45 -137 45 -126 Q45 -121 47 -117 Q49 -113 54 -105 L94 -43 Q101 -31 106.5 -27.5 Q112 -24 123 -24 L202 -24 Q217 -24 217 -38 Q217 -48 207 -58 L139 -127 Z " />
<glyph glyph-name="Lslash" unicode="&#x141;" horiz-adv-x="294" d="M75 0 Q55 0 48.5 8.5 Q42 17 42 44 L42 218 L17 185 Q9 175 3 177 Q-3 179 -3 190 L-3 251 Q-3 262 0.5 270 Q4 278 16 293 L42 326 L42 624 Q42 647 49.5 657 Q57 667 75 667 L128 667 Q147 667 153.5 658 Q160 649 160 624 L160 480 L205 539 Q213 549 219 547 Q225 545 225 534 L225 472 Q225 461 221.5 453 Q218 445 206 430 L160 372 L160 139 Q160 127 164 122.5 Q168 118 176 118 L257 118 Q277 118 284 109 Q291 100 291 76 L291 43 Q291 20 282.5 10 Q274 0 254 0 L75 0 Z " />
<glyph glyph-name="M" unicode="M" horiz-adv-x="466" d="M354 0 Q335 0 328.5 8.5 Q322 17 322 42 L322 313 Q322 328 321 332.5 Q320 337 318 337 Q313 337 309 315 L269 117 Q265 99 257.5 93 Q250 87 233 87 Q216 87 208.5 93 Q201 99 197 117 L157 315 Q152 337 148 337 Q146 337 145 332.5 Q144 328 144 313 L144 42 Q144 17 137.5 8.5 Q131 0 112 0 L59 0 Q38 0 32 8 Q26 16 26 43 L26 626 Q26 651 32.5 659 Q39 667 58 667 L113 667 Q137 667 144.5 662 Q152 657 158 636 L225 396 Q228 387 233 387 Q238 387 241 396 L308 636 Q314 657 321.5 662 Q329 667 353 667 L408 667 Q427 667 433.5 659 Q440 651 440 626 L440 43 Q440 16 434 8 Q428 0 407 0 L354 0 Z " />
<glyph glyph-name="N" unicode="N" horiz-adv-x="391" d="M284 0 Q266 0 259 5 Q252 10 245 31 L161 280 Q158 288 155.5 291 Q153 294 150 294 Q147 294 146 290 Q145 286 145 275 L145 44 Q145 20 138 10 Q131 0 114 0 L62 0 Q42 0 34 10 Q26 20 26 45 L26 623 Q26 649 33 658 Q40 667 61 667 L107 667 Q125 667 132 662 Q139 657 146 636 L230 388 Q233 380 235.5 377 Q238 374 241 374 Q244 374 245 378 Q246 382 246 393 L246 623 Q246 647 253 657 Q260 667 277 667 L329 667 Q349 667 357 657 Q365 647 365 622 L365 45 Q365 19 358 9.5 Q351 0 330 0 L284 0 Z " />
<glyph glyph-name="Nacute" unicode="&#x143;" horiz-adv-x="391" d="M284 0 Q266 0 259 5 Q252 10 245 31 L161 280 Q158 288 155.5 291 Q153 294 150 294 Q147 294 146 290 Q145 286 145 275 L145 44 Q145 20 138 10 Q131 0 114 0 L62 0 Q42 0 34 10 Q26 20 26 45 L26 623 Q26 649 33 658 Q40 667 61 667 L107 667 Q125 667 132 662 Q139 657 146 636 L230 388 Q233 380 235.5 377 Q238 374 241 374 Q244 374 245 378 Q246 382 246 393 L246 623 Q246 647 253 657 Q260 667 277 667 L329 667 Q349 667 357 657 Q365 647 365 622 L365 45 Q365 19 358 9.5 Q351 0 330 0 L284 0 Z M219 701 Q212 695 208.5 693.5 Q205 692 197 692 L135 692 Q124 692 124 701 Q124 708 129 714 L174 773 Q182 784 185.5 786.5 Q189 789 196 789 L284 789 Q298 789 298 776 Q298 769 288 760 L219 701 Z " />
<glyph glyph-name="Ncaron" unicode="&#x147;" horiz-adv-x="391" d="M284 0 Q266 0 259 5 Q252 10 245 31 L161 280 Q158 288 155.5 291 Q153 294 150 294 Q147 294 146 290 Q145 286 145 275 L145 44 Q145 20 138 10 Q131 0 114 0 L62 0 Q42 0 34 10 Q26 20 26 45 L26 623 Q26 649 33 658 Q40 667 61 667 L107 667 Q125 667 132 662 Q139 657 146 636 L230 388 Q233 380 235.5 377 Q238 374 241 374 Q244 374 245 378 Q246 382 246 393 L246 623 Q246 647 253 657 Q260 667 277 667 L329 667 Q349 667 357 657 Q365 647 365 622 L365 45 Q365 19 358 9.5 Q351 0 330 0 L284 0 Z M144 789 Q159 789 167 779 L196 743 L224 779 Q228 785 233 787 Q238 789 247 789 L303 789 Q312 789 312 781 Q312 776 309 772 L268 708 Q262 699 255.5 695.5 Q249 692 238 692 L153 692 Q142 692 135.5 695.5 Q129 699 123 708 L82 772 Q79 776 79 781 Q79 789 88 789 L144 789 Z " />
<glyph glyph-name="Ntilde" unicode="&#xd1;" horiz-adv-x="391" d="M284 0 Q266 0 259 5 Q252 10 245 31 L161 280 Q158 288 155.5 291 Q153 294 150 294 Q147 294 146 290 Q145 286 145 275 L145 44 Q145 20 138 10 Q131 0 114 0 L62 0 Q42 0 34 10 Q26 20 26 45 L26 623 Q26 649 33 658 Q40 667 61 667 L107 667 Q125 667 132 662 Q139 657 146 636 L230 388 Q233 380 235.5 377 Q238 374 241 374 Q244 374 245 378 Q246 382 246 393 L246 623 Q246 647 253 657 Q260 667 277 667 L329 667 Q349 667 357 657 Q365 647 365 622 L365 45 Q365 19 358 9.5 Q351 0 330 0 L284 0 Z M236 692 Q231 692 227 693 Q223 694 219 695 L148 716 Q140 719 136 719 Q132 719 132 713 L132 708 Q132 700 127 696 Q122 692 116 692 L91 692 Q76 692 71 698 Q66 704 66 718 L66 761 Q66 773 71 781 Q76 789 91 789 L131 789 Q136 789 140 788 Q144 787 148 786 L219 765 Q226 762 231 762 Q235 762 235 768 L235 773 Q235 781 240 785 Q245 789 251 789 L276 789 Q291 789 296 783 Q301 777 301 763 L301 720 Q301 708 296 700 Q291 692 276 692 L236 692 Z " />
<glyph glyph-name="Ncommaaccent" unicode="&#x145;" horiz-adv-x="391" d="M284 0 Q266 0 259 5 Q252 10 245 31 L161 280 Q158 288 155.5 291 Q153 294 150 294 Q147 294 146 290 Q145 286 145 275 L145 44 Q145 20 138 10 Q131 0 114 0 L62 0 Q42 0 34 10 Q26 20 26 45 L26 623 Q26 649 33 658 Q40 667 61 667 L107 667 Q125 667 132 662 Q139 657 146 636 L230 388 Q233 380 235.5 377 Q238 374 241 374 Q244 374 245 378 Q246 382 246 393 L246 623 Q246 647 253 657 Q260 667 277 667 L329 667 Q349 667 357 657 Q365 647 365 622 L365 45 Q365 19 358 9.5 Q351 0 330 0 L284 0 Z M177 -127 Q171 -133 166.5 -135 Q162 -137 152 -137 L97 -137 Q83 -137 83 -126 Q83 -121 85 -117 Q87 -113 92 -105 L132 -43 Q139 -31 144.5 -27.5 Q150 -24 161 -24 L240 -24 Q255 -24 255 -38 Q255 -48 245 -58 L177 -127 Z " />
<glyph glyph-name="O" unicode="O" horiz-adv-x="356" d="M178 -8 Q131 -8 99.5 8.5 Q68 25 50 58 Q32 91 24.5 144.5 Q17 198 17 336 Q17 472 24.5 525 Q32 578 50 610.5 Q68 643 99.5 659 Q131 675 178 675 Q225 675 256 659 Q287 643 305.5 610.5 Q324 578 331.5 525 Q339 472 339 336 Q339 199 331.5 145.5 Q324 92 306 58.5 Q288 25 256.5 8.5 Q225 -8 178 -8 Z M178 119 Q194 119 202.5 127.5 Q211 136 215 154.5 Q219 173 220.5 207 Q222 241 222 336 Q222 429 220.5 462.5 Q219 496 215 514.5 Q211 533 202.5 541 Q194 549 178 549 Q161 549 153 540.5 Q145 532 141 514 Q137 496 135.5 463 Q134 430 134 336 Q134 243 135.5 209 Q137 175 141 156 Q145 137 153.5 128 Q162 119 178 119 Z " />
<glyph glyph-name="Ograve" unicode="&#xd2;" horiz-adv-x="356" d="M178 -8 Q131 -8 99.5 8.5 Q68 25 50 58 Q32 91 24.5 144.5 Q17 198 17 336 Q17 472 24.5 525 Q32 578 50 610.5 Q68 643 99.5 659 Q131 675 178 675 Q225 675 256 659 Q287 643 305.5 610.5 Q324 578 331.5 525 Q339 472 339 336 Q339 199 331.5 145.5 Q324 92 306 58.5 Q288 25 256.5 8.5 Q225 -8 178 -8 Z M178 119 Q194 119 202.5 127.5 Q211 136 215 154.5 Q219 173 220.5 207 Q222 241 222 336 Q222 429 220.5 462.5 Q219 496 215 514.5 Q211 533 202.5 541 Q194 549 178 549 Q161 549 153 540.5 Q145 532 141 514 Q137 496 135.5 463 Q134 430 134 336 Q134 243 135.5 209 Q137 175 141 156 Q145 137 153.5 128 Q162 119 178 119 Z M166 692 Q158 692 154.5 693.5 Q151 695 144 701 L75 760 Q65 769 65 776 Q65 789 79 789 L167 789 Q174 789 177.5 786.5 Q181 784 189 773 L234 714 Q239 708 239 701 Q239 692 228 692 L166 692 Z " />
<glyph glyph-name="Oacute" unicode="&#xd3;" horiz-adv-x="356" d="M178 -8 Q131 -8 99.5 8.5 Q68 25 50 58 Q32 91 24.5 144.5 Q17 198 17 336 Q17 472 24.5 525 Q32 578 50 610.5 Q68 643 99.5 659 Q131 675 178 675 Q225 675 256 659 Q287 643 305.5 610.5 Q324 578 331.5 525 Q339 472 339 336 Q339 199 331.5 145.5 Q324 92 306 58.5 Q288 25 256.5 8.5 Q225 -8 178 -8 Z M178 119 Q194 119 202.5 127.5 Q211 136 215 154.5 Q219 173 220.5 207 Q222 241 222 336 Q222 429 220.5 462.5 Q219 496 215 514.5 Q211 533 202.5 541 Q194 549 178 549 Q161 549 153 540.5 Q145 532 141 514 Q137 496 135.5 463 Q134 430 134 336 Q134 243 135.5 209 Q137 175 141 156 Q145 137 153.5 128 Q162 119 178 119 Z M199 701 Q192 695 188.5 693.5 Q185 692 177 692 L115 692 Q104 692 104 701 Q104 708 109 714 L154 773 Q162 784 165.5 786.5 Q169 789 176 789 L264 789 Q278 789 278 776 Q278 769 268 760 L199 701 Z " />
<glyph glyph-name="Ocircumflex" unicode="&#xd4;" horiz-adv-x="356" d="M178 -8 Q131 -8 99.5 8.5 Q68 25 50 58 Q32 91 24.5 144.5 Q17 198 17 336 Q17 472 24.5 525 Q32 578 50 610.5 Q68 643 99.5 659 Q131 675 178 675 Q225 675 256 659 Q287 643 305.5 610.5 Q324 578 331.5 525 Q339 472 339 336 Q339 199 331.5 145.5 Q324 92 306 58.5 Q288 25 256.5 8.5 Q225 -8 178 -8 Z M178 119 Q194 119 202.5 127.5 Q211 136 215 154.5 Q219 173 220.5 207 Q222 241 222 336 Q222 429 220.5 462.5 Q219 496 215 514.5 Q211 533 202.5 541 Q194 549 178 549 Q161 549 153 540.5 Q145 532 141 514 Q137 496 135.5 463 Q134 430 134 336 Q134 243 135.5 209 Q137 175 141 156 Q145 137 153.5 128 Q162 119 178 119 Z M225 692 Q210 692 202 702 L173 738 L145 702 Q137 692 122 692 L66 692 Q57 692 57 700 Q57 705 60 709 L101 773 Q107 782 113.5 785.5 Q120 789 131 789 L216 789 Q227 789 233.5 785.5 Q240 782 246 773 L287 709 Q290 705 290 700 Q290 692 281 692 L225 692 Z " />
<glyph glyph-name="Otilde" unicode="&#xd5;" horiz-adv-x="356" d="M178 -8 Q131 -8 99.5 8.5 Q68 25 50 58 Q32 91 24.5 144.5 Q17 198 17 336 Q17 472 24.5 525 Q32 578 50 610.5 Q68 643 99.5 659 Q131 675 178 675 Q225 675 256 659 Q287 643 305.5 610.5 Q324 578 331.5 525 Q339 472 339 336 Q339 199 331.5 145.5 Q324 92 306 58.5 Q288 25 256.5 8.5 Q225 -8 178 -8 Z M178 119 Q194 119 202.5 127.5 Q211 136 215 154.5 Q219 173 220.5 207 Q222 241 222 336 Q222 429 220.5 462.5 Q219 496 215 514.5 Q211 533 202.5 541 Q194 549 178 549 Q161 549 153 540.5 Q145 532 141 514 Q137 496 135.5 463 Q134 430 134 336 Q134 243 135.5 209 Q137 175 141 156 Q145 137 153.5 128 Q162 119 178 119 Z M226 692 Q221 692 217 693 Q213 694 209 695 L138 716 Q130 719 126 719 Q122 719 122 713 L122 708 Q122 700 117 696 Q112 692 106 692 L81 692 Q66 692 61 698 Q56 704 56 718 L56 761 Q56 773 61 781 Q66 789 81 789 L121 789 Q126 789 130 788 Q134 787 138 786 L209 765 Q216 762 221 762 Q225 762 225 768 L225 773 Q225 781 230 785 Q235 789 241 789 L266 789 Q281 789 286 783 Q291 777 291 763 L291 720 Q291 708 286 700 Q281 692 266 692 L226 692 Z " />
<glyph glyph-name="Odieresis" unicode="&#xd6;" horiz-adv-x="356" d="M178 -8 Q131 -8 99.5 8.5 Q68 25 50 58 Q32 91 24.5 144.5 Q17 198 17 336 Q17 472 24.5 525 Q32 578 50 610.5 Q68 643 99.5 659 Q131 675 178 675 Q225 675 256 659 Q287 643 305.5 610.5 Q324 578 331.5 525 Q339 472 339 336 Q339 199 331.5 145.5 Q324 92 306 58.5 Q288 25 256.5 8.5 Q225 -8 178 -8 Z M178 119 Q194 119 202.5 127.5 Q211 136 215 154.5 Q219 173 220.5 207 Q222 241 222 336 Q222 429 220.5 462.5 Q219 496 215 514.5 Q211 533 202.5 541 Q194 549 178 549 Q161 549 153 540.5 Q145 532 141 514 Q137 496 135.5 463 Q134 430 134 336 Q134 243 135.5 209 Q137 175 141 156 Q145 137 153.5 128 Q162 119 178 119 Z M217 692 Q199 692 192.5 698.5 Q186 705 186 723 L186 758 Q186 776 192.5 782.5 Q199 789 217 789 L246 789 Q264 789 270.5 782.5 Q277 776 277 758 L277 723 Q277 705 270.5 698.5 Q264 692 246 692 L217 692 Z M96 692 Q78 692 71.5 698.5 Q65 705 65 723 L65 758 Q65 776 71.5 782.5 Q78 789 96 789 L125 789 Q143 789 149.5 782.5 Q156 776 156 758 L156 723 Q156 705 149.5 698.5 Q143 692 125 692 L96 692 Z " />
<glyph glyph-name="Omacron" unicode="&#x14c;" horiz-adv-x="356" d="M178 -8 Q131 -8 99.5 8.5 Q68 25 50 58 Q32 91 24.5 144.5 Q17 198 17 336 Q17 472 24.5 525 Q32 578 50 610.5 Q68 643 99.5 659 Q131 675 178 675 Q225 675 256 659 Q287 643 305.5 610.5 Q324 578 331.5 525 Q339 472 339 336 Q339 199 331.5 145.5 Q324 92 306 58.5 Q288 25 256.5 8.5 Q225 -8 178 -8 Z M178 119 Q194 119 202.5 127.5 Q211 136 215 154.5 Q219 173 220.5 207 Q222 241 222 336 Q222 429 220.5 462.5 Q219 496 215 514.5 Q211 533 202.5 541 Q194 549 178 549 Q161 549 153 540.5 Q145 532 141 514 Q137 496 135.5 463 Q134 430 134 336 Q134 243 135.5 209 Q137 175 141 156 Q145 137 153.5 128 Q162 119 178 119 Z M111 692 Q83 692 74.5 698.5 Q66 705 66 723 L66 748 Q66 766 74.5 772.5 Q83 779 111 779 L246 779 Q274 779 282.5 772.5 Q291 766 291 748 L291 723 Q291 705 282.5 698.5 Q274 692 246 692 L111 692 Z " />
<glyph glyph-name="Ohungarumlaut" unicode="&#x150;" horiz-adv-x="356" d="M178 -8 Q131 -8 99.5 8.5 Q68 25 50 58 Q32 91 24.5 144.5 Q17 198 17 336 Q17 472 24.5 525 Q32 578 50 610.5 Q68 643 99.5 659 Q131 675 178 675 Q225 675 256 659 Q287 643 305.5 610.5 Q324 578 331.5 525 Q339 472 339 336 Q339 199 331.5 145.5 Q324 92 306 58.5 Q288 25 256.5 8.5 Q225 -8 178 -8 Z M178 119 Q194 119 202.5 127.5 Q211 136 215 154.5 Q219 173 220.5 207 Q222 241 222 336 Q222 429 220.5 462.5 Q219 496 215 514.5 Q211 533 202.5 541 Q194 549 178 549 Q161 549 153 540.5 Q145 532 141 514 Q137 496 135.5 463 Q134 430 134 336 Q134 243 135.5 209 Q137 175 141 156 Q145 137 153.5 128 Q162 119 178 119 Z M196 692 Q191 692 188 698 Q185 704 191 714 L224 768 Q232 781 234 785 Q236 789 244 789 L301 789 Q309 789 312 783 Q315 777 308 769 L254 707 Q246 698 243 695 Q240 692 233 692 L196 692 Z M94 692 Q88 692 84.5 698 Q81 704 87 714 L121 768 Q129 780 132 784.5 Q135 789 143 789 L198 789 Q206 789 209 782.5 Q212 776 206 769 L151 707 Q143 698 140.5 695 Q138 692 130 692 L94 692 Z " />
<glyph glyph-name="Oslash" unicode="&#xd8;" horiz-adv-x="356" d="M14 0 Q0 0 -2 5 Q-4 10 2 24 L35 95 Q25 128 21 175.5 Q17 223 17 336 Q17 470 24 523 Q31 576 49 609 Q67 642 98.5 658.5 Q130 675 178 675 Q215 675 242.5 665 Q270 655 289 634 L298 652 Q303 663 307 665 Q311 667 322 667 L342 667 Q357 667 359.5 663 Q362 659 357 648 L321 572 Q331 540 335 493.5 Q339 447 339 336 Q339 201 331.5 147.5 Q324 94 306.5 60 Q289 26 257.5 9 Q226 -8 178 -8 Q140 -8 112 3 Q84 14 65 36 L56 16 Q48 0 36 0 L14 0 Z M219 485 Q215 522 206.5 535.5 Q198 549 178 549 Q161 549 152.5 540.5 Q144 532 140 513 Q136 494 134.5 459.5 Q133 425 133 336 L133 303 L219 485 Z M223 367 L137 186 Q140 148 149 133.5 Q158 119 178 119 Q194 119 202.5 127.5 Q211 136 215.5 155.5 Q220 175 221.5 210.5 Q223 246 223 336 L223 367 Z " />
<glyph glyph-name="OE" unicode="&#x152;" horiz-adv-x="503" d="M269 0 Q254 0 246 5 Q217 -8 173 -8 Q117 -8 84 14.5 Q51 37 36 77.5 Q21 118 16.5 170.5 Q12 223 12 336 Q12 448 16.5 500 Q21 552 36 591.5 Q51 631 84 653 Q117 675 173 675 Q193 675 211.5 671 Q230 667 246 660 Q253 667 269 667 L458 667 Q477 667 483.5 659.5 Q490 652 490 628 L490 591 Q490 566 483.5 557.5 Q477 549 458 549 L360 549 Q349 549 345.5 545 Q342 541 342 527 L342 434 Q342 420 344.5 416.5 Q347 413 360 413 L410 413 Q427 413 433 406 Q439 399 439 379 L439 328 Q439 309 432.5 302 Q426 295 410 295 L360 295 Q349 295 345.5 292 Q342 289 342 280 L342 140 Q342 127 346 122.5 Q350 118 363 118 L462 118 Q482 118 490 108.5 Q498 99 498 75 L498 43 Q498 20 490 10 Q482 0 464 0 L269 0 Z M173 119 Q190 119 198.5 128.5 Q207 138 211 159 Q215 180 216 215 Q217 250 217 336 Q216 426 215 458.5 Q214 491 210.5 511 Q207 531 198.5 540 Q190 549 173 549 Q156 549 147.5 540 Q139 531 135 510.5 Q131 490 129.5 454.5 Q128 419 128 336 Q128 253 129.5 216.5 Q131 180 135 159 Q139 138 147.5 128.5 Q156 119 173 119 Z " />
<glyph glyph-name="P" unicode="P" horiz-adv-x="347" d="M58 0 Q38 0 32 8 Q26 16 26 43 L26 621 Q26 647 33 657 Q40 667 58 667 L212 667 Q275 667 307.5 613 Q340 559 340 454 Q340 353 311.5 300.5 Q283 248 228 248 L144 248 L144 43 Q144 17 138 8.5 Q132 0 112 0 L58 0 Z M192 366 Q201 366 206 369 Q211 372 214.5 381 Q218 390 220 408 Q222 426 222 455 Q222 485 220 503.5 Q218 522 214 532 Q210 542 204 545.5 Q198 549 189 549 L160 549 Q151 549 147.5 545 Q144 541 144 531 L144 383 Q144 366 159 366 L192 366 Z " />
<glyph glyph-name="Thorn" unicode="&#xde;" horiz-adv-x="343" d="M58 0 Q38 0 32 8 Q26 16 26 43 L26 624 Q26 650 32.5 658.5 Q39 667 59 667 L113 667 Q133 667 138.5 659 Q144 651 144 624 L144 561 L212 561 Q275 561 307.5 507 Q340 453 340 348 Q340 247 311.5 194.5 Q283 142 228 142 L144 142 L144 43 Q144 17 138 8.5 Q132 0 112 0 L58 0 Z M192 260 Q201 260 206 263 Q211 266 214.5 275 Q218 284 220 302 Q222 320 222 349 Q222 379 220 397.5 Q218 416 214 426 Q210 436 204 439.5 Q198 443 189 443 L160 443 Q151 443 147.5 439 Q144 435 144 425 L144 277 Q144 260 159 260 L192 260 Z " />
<glyph glyph-name="Q" unicode="Q" horiz-adv-x="356" d="M279 -79 Q269 -84 261.5 -80 Q254 -76 243 -62 L200 -7 Q197 -7 189 -7.5 Q181 -8 177 -8 Q130 -8 99 8.5 Q68 25 50 58 Q32 91 24.5 144.5 Q17 198 17 336 Q17 472 24.5 525 Q32 578 50.5 610.5 Q69 643 100 659 Q131 675 178 675 Q225 675 256.5 659 Q288 643 306 610.5 Q324 578 331.5 525 Q339 472 339 336 Q339 250 337 209 Q335 168 329.5 137 Q324 106 315.5 82.5 Q307 59 294 42 L350 -18 Q370 -39 345 -50 L279 -79 Z M178 119 Q194 119 202.5 127.5 Q211 136 215 154.5 Q219 173 220.5 207 Q222 241 222 336 Q222 429 220.5 462.5 Q219 496 215 514.5 Q211 533 202.5 541 Q194 549 178 549 Q161 549 153 540.5 Q145 532 141 514 Q137 496 135.5 463 Q134 430 134 336 Q134 243 135.5 209 Q137 175 141 156 Q145 137 153.5 128 Q162 119 178 119 Z " />
<glyph glyph-name="R" unicode="R" horiz-adv-x="351" d="M249 0 Q235 0 230 5.5 Q225 11 222 29 L181 269 Q179 276 176.5 277 Q174 278 169 278 L155 278 Q144 278 144 269 L144 42 Q144 19 136.5 9.5 Q129 0 111 0 L58 0 Q39 0 32.5 8.5 Q26 17 26 43 L26 622 Q26 648 33 657.5 Q40 667 60 667 L203 667 Q340 667 340 461 Q340 404 327.5 370 Q315 336 286 311 L344 27 Q346 17 346 14 Q346 0 328 0 L249 0 Z M187 396 Q205 396 214 414.5 Q223 433 223 476 Q223 519 214 534 Q205 549 189 549 L157 549 Q144 549 144 535 L144 414 Q144 396 154 396 L187 396 Z " />
<glyph glyph-name="Racute" unicode="&#x154;" horiz-adv-x="351" d="M249 0 Q235 0 230 5.5 Q225 11 222 29 L181 269 Q179 276 176.5 277 Q174 278 169 278 L155 278 Q144 278 144 269 L144 42 Q144 19 136.5 9.5 Q129 0 111 0 L58 0 Q39 0 32.5 8.5 Q26 17 26 43 L26 622 Q26 648 33 657.5 Q40 667 60 667 L203 667 Q340 667 340 461 Q340 404 327.5 370 Q315 336 286 311 L344 27 Q346 17 346 14 Q346 0 328 0 L249 0 Z M187 396 Q205 396 214 414.5 Q223 433 223 476 Q223 519 214 534 Q205 549 189 549 L157 549 Q144 549 144 535 L144 414 Q144 396 154 396 L187 396 Z M197 701 Q190 695 186.5 693.5 Q183 692 175 692 L113 692 Q102 692 102 701 Q102 708 107 714 L152 773 Q160 784 163.5 786.5 Q167 789 174 789 L262 789 Q276 789 276 776 Q276 769 266 760 L197 701 Z " />
<glyph glyph-name="Rcaron" unicode="&#x158;" horiz-adv-x="351" d="M249 0 Q235 0 230 5.5 Q225 11 222 29 L181 269 Q179 276 176.5 277 Q174 278 169 278 L155 278 Q144 278 144 269 L144 42 Q144 19 136.5 9.5 Q129 0 111 0 L58 0 Q39 0 32.5 8.5 Q26 17 26 43 L26 622 Q26 648 33 657.5 Q40 667 60 667 L203 667 Q340 667 340 461 Q340 404 327.5 370 Q315 336 286 311 L344 27 Q346 17 346 14 Q346 0 328 0 L249 0 Z M187 396 Q205 396 214 414.5 Q223 433 223 476 Q223 519 214 534 Q205 549 189 549 L157 549 Q144 549 144 535 L144 414 Q144 396 154 396 L187 396 Z M124 789 Q139 789 147 779 L176 743 L204 779 Q208 785 213 787 Q218 789 227 789 L283 789 Q292 789 292 781 Q292 776 289 772 L248 708 Q242 699 235.5 695.5 Q229 692 218 692 L133 692 Q122 692 115.5 695.5 Q109 699 103 708 L62 772 Q59 776 59 781 Q59 789 68 789 L124 789 Z " />
<glyph glyph-name="Rcommaaccent" unicode="&#x156;" horiz-adv-x="351" d="M249 0 Q235 0 230 5.5 Q225 11 222 29 L181 269 Q179 276 176.5 277 Q174 278 169 278 L155 278 Q144 278 144 269 L144 42 Q144 19 136.5 9.5 Q129 0 111 0 L58 0 Q39 0 32.5 8.5 Q26 17 26 43 L26 622 Q26 648 33 657.5 Q40 667 60 667 L203 667 Q340 667 340 461 Q340 404 327.5 370 Q315 336 286 311 L344 27 Q346 17 346 14 Q346 0 328 0 L249 0 Z M187 396 Q205 396 214 414.5 Q223 433 223 476 Q223 519 214 534 Q205 549 189 549 L157 549 Q144 549 144 535 L144 414 Q144 396 154 396 L187 396 Z M164 -127 Q158 -133 153.5 -135 Q149 -137 139 -137 L84 -137 Q70 -137 70 -126 Q70 -121 72 -117 Q74 -113 79 -105 L119 -43 Q126 -31 131.5 -27.5 Q137 -24 148 -24 L227 -24 Q242 -24 242 -38 Q242 -48 232 -58 L164 -127 Z " />
<glyph glyph-name="S" unicode="S" horiz-adv-x="302" d="M41 0 Q21 0 14.5 8 Q8 16 8 41 L8 76 Q8 102 14 110 Q20 118 40 118 L143 118 Q156 118 163 125 Q170 132 170 144 Q170 156 164 167 L51 380 Q37 406 28 427.5 Q19 449 14 468 Q9 487 7 505.5 Q5 524 5 546 Q5 611 34 639 Q63 667 129 667 L243 667 Q258 667 264.5 659 Q271 651 271 631 L271 587 Q271 566 264 557.5 Q257 549 240 549 L151 549 Q136 549 128 541 Q120 533 120 520 Q120 505 129 490 L236 293 Q255 257 267 230.5 Q279 204 285.5 184 Q292 164 294.5 146.5 Q297 129 297 107 Q297 52 270 26 Q243 0 190 0 L41 0 Z " />
<glyph glyph-name="Sacute" unicode="&#x15a;" horiz-adv-x="302" d="M41 0 Q21 0 14.5 8 Q8 16 8 41 L8 76 Q8 102 14 110 Q20 118 40 118 L143 118 Q156 118 163 125 Q170 132 170 144 Q170 156 164 167 L51 380 Q37 406 28 427.5 Q19 449 14 468 Q9 487 7 505.5 Q5 524 5 546 Q5 611 34 639 Q63 667 129 667 L243 667 Q258 667 264.5 659 Q271 651 271 631 L271 587 Q271 566 264 557.5 Q257 549 240 549 L151 549 Q136 549 128 541 Q120 533 120 520 Q120 505 129 490 L236 293 Q255 257 267 230.5 Q279 204 285.5 184 Q292 164 294.5 146.5 Q297 129 297 107 Q297 52 270 26 Q243 0 190 0 L41 0 Z M177 701 Q170 695 166.5 693.5 Q163 692 155 692 L93 692 Q82 692 82 701 Q82 708 87 714 L132 773 Q140 784 143.5 786.5 Q147 789 154 789 L242 789 Q256 789 256 776 Q256 769 246 760 L177 701 Z " />
<glyph glyph-name="Scaron" unicode="&#x160;" horiz-adv-x="302" d="M41 0 Q21 0 14.5 8 Q8 16 8 41 L8 76 Q8 102 14 110 Q20 118 40 118 L143 118 Q156 118 163 125 Q170 132 170 144 Q170 156 164 167 L51 380 Q37 406 28 427.5 Q19 449 14 468 Q9 487 7 505.5 Q5 524 5 546 Q5 611 34 639 Q63 667 129 667 L243 667 Q258 667 264.5 659 Q271 651 271 631 L271 587 Q271 566 264 557.5 Q257 549 240 549 L151 549 Q136 549 128 541 Q120 533 120 520 Q120 505 129 490 L236 293 Q255 257 267 230.5 Q279 204 285.5 184 Q292 164 294.5 146.5 Q297 129 297 107 Q297 52 270 26 Q243 0 190 0 L41 0 Z M96 789 Q111 789 119 779 L148 743 L176 779 Q180 785 185 787 Q190 789 199 789 L255 789 Q264 789 264 781 Q264 776 261 772 L220 708 Q214 699 207.5 695.5 Q201 692 190 692 L105 692 Q94 692 87.5 695.5 Q81 699 75 708 L34 772 Q31 776 31 781 Q31 789 40 789 L96 789 Z " />
<glyph glyph-name="Scedilla" unicode="&#x15e;" horiz-adv-x="302" d="M41 0 Q21 0 14.5 8 Q8 16 8 41 L8 76 Q8 102 14 110 Q20 118 40 118 L143 118 Q156 118 163 125 Q170 132 170 144 Q170 156 164 167 L51 380 Q37 406 28 427.5 Q19 449 14 468 Q9 487 7 505.5 Q5 524 5 546 Q5 611 34 639 Q63 667 129 667 L243 667 Q258 667 264.5 659 Q271 651 271 631 L271 587 Q271 566 264 557.5 Q257 549 240 549 L151 549 Q136 549 128 541 Q120 533 120 520 Q120 505 129 490 L236 293 Q255 257 267 230.5 Q279 204 285.5 184 Q292 164 294.5 146.5 Q297 129 297 107 Q297 52 270 26 Q243 0 190 0 L41 0 Z M90 -137 Q68 -137 61.5 -130 Q55 -123 55 -97 L55 -75 Q55 -57 63 -50.5 Q71 -44 94 -44 L115 -44 Q128 -44 128 -29 Q128 -22 122 0 L190 0 Q197 -23 200 -39.5 Q203 -56 203 -75 L203 -92 Q203 -115 193 -126 Q183 -137 161 -137 L90 -137 Z " />
<glyph glyph-name="Scommaaccent" unicode="&#x218;" horiz-adv-x="302" d="M41 0 Q21 0 14.5 8 Q8 16 8 41 L8 76 Q8 102 14 110 Q20 118 40 118 L143 118 Q156 118 163 125 Q170 132 170 144 Q170 156 164 167 L51 380 Q37 406 28 427.5 Q19 449 14 468 Q9 487 7 505.5 Q5 524 5 546 Q5 611 34 639 Q63 667 129 667 L243 667 Q258 667 264.5 659 Q271 651 271 631 L271 587 Q271 566 264 557.5 Q257 549 240 549 L151 549 Q136 549 128 541 Q120 533 120 520 Q120 505 129 490 L236 293 Q255 257 267 230.5 Q279 204 285.5 184 Q292 164 294.5 146.5 Q297 129 297 107 Q297 52 270 26 Q243 0 190 0 L41 0 Z M139 -127 Q133 -133 128.5 -135 Q124 -137 114 -137 L59 -137 Q45 -137 45 -126 Q45 -121 47 -117 Q49 -113 54 -105 L94 -43 Q101 -31 106.5 -27.5 Q112 -24 123 -24 L202 -24 Q217 -24 217 -38 Q217 -48 207 -58 L139 -127 Z " />
<glyph glyph-name="T" unicode="T" horiz-adv-x="315" d="M132 0 Q112 0 105 8.5 Q98 17 98 41 L98 529 Q98 543 94.5 546 Q91 549 85 549 L33 549 Q15 549 9 556.5 Q3 564 3 589 L3 623 Q3 649 9.5 658 Q16 667 36 667 L280 667 Q298 667 305 658.5 Q312 650 312 627 L312 590 Q312 566 305.5 557.5 Q299 549 281 549 L229 549 Q221 549 218.5 545 Q216 541 216 529 L216 44 Q216 18 210 9 Q204 0 184 0 L132 0 Z " />
<glyph glyph-name="Tcaron" unicode="&#x164;" horiz-adv-x="315" d="M132 0 Q112 0 105 8.5 Q98 17 98 41 L98 529 Q98 543 94.5 546 Q91 549 85 549 L33 549 Q15 549 9 556.5 Q3 564 3 589 L3 623 Q3 649 9.5 658 Q16 667 36 667 L280 667 Q298 667 305 658.5 Q312 650 312 627 L312 590 Q312 566 305.5 557.5 Q299 549 281 549 L229 549 Q221 549 218.5 545 Q216 541 216 529 L216 44 Q216 18 210 9 Q204 0 184 0 L132 0 Z M106 789 Q121 789 129 779 L158 743 L186 779 Q190 785 195 787 Q200 789 209 789 L265 789 Q274 789 274 781 Q274 776 271 772 L230 708 Q224 699 217.5 695.5 Q211 692 200 692 L115 692 Q104 692 97.5 695.5 Q91 699 85 708 L44 772 Q41 776 41 781 Q41 789 50 789 L106 789 Z " />
<glyph glyph-name="&amp;#x162;" unicode="&#x162;" horiz-adv-x="315" d="M132 0 Q112 0 105 8.5 Q98 17 98 41 L98 529 Q98 543 94.5 546 Q91 549 85 549 L33 549 Q15 549 9 556.5 Q3 564 3 589 L3 623 Q3 649 9.5 658 Q16 667 36 667 L280 667 Q298 667 305 658.5 Q312 650 312 627 L312 590 Q312 566 305.5 557.5 Q299 549 281 549 L229 549 Q221 549 218.5 545 Q216 541 216 529 L216 44 Q216 18 210 9 Q204 0 184 0 L132 0 Z M139 -127 Q133 -133 128.5 -135 Q124 -137 114 -137 L59 -137 Q45 -137 45 -126 Q45 -121 47 -117 Q49 -113 54 -105 L94 -43 Q101 -31 106.5 -27.5 Q112 -24 123 -24 L202 -24 Q217 -24 217 -38 Q217 -48 207 -58 L139 -127 Z " />
<glyph glyph-name="&amp;#x21a;" unicode="&#x21a;" horiz-adv-x="315" d="M132 0 Q112 0 105 8.5 Q98 17 98 41 L98 529 Q98 543 94.5 546 Q91 549 85 549 L33 549 Q15 549 9 556.5 Q3 564 3 589 L3 623 Q3 649 9.5 658 Q16 667 36 667 L280 667 Q298 667 305 658.5 Q312 650 312 627 L312 590 Q312 566 305.5 557.5 Q299 549 281 549 L229 549 Q221 549 218.5 545 Q216 541 216 529 L216 44 Q216 18 210 9 Q204 0 184 0 L132 0 Z M139 -127 Q133 -133 128.5 -135 Q124 -137 114 -137 L59 -137 Q45 -137 45 -126 Q45 -121 47 -117 Q49 -113 54 -105 L94 -43 Q101 -31 106.5 -27.5 Q112 -24 123 -24 L202 -24 Q217 -24 217 -38 Q217 -48 207 -58 L139 -127 Z " />
<glyph glyph-name="U" unicode="U" horiz-adv-x="362" d="M224 626 Q224 651 230.5 659 Q237 667 256 667 L311 667 Q330 667 336 659 Q342 651 342 626 L342 191 Q342 141 335 106.5 Q328 72 310.5 46 Q293 20 260.5 6 Q228 -8 179 -8 Q131 -8 100 4.5 Q69 17 51.5 40.5 Q34 64 27 99 Q20 134 20 186 L20 623 Q20 649 27.5 658 Q35 667 55 667 L108 667 Q126 667 132 658.5 Q138 650 138 626 L138 171 Q138 143 148 131 Q158 119 182 119 Q204 119 214 131 Q224 143 224 172 L224 626 Z " />
<glyph glyph-name="Ugrave" unicode="&#xd9;" horiz-adv-x="362" d="M224 626 Q224 651 230.5 659 Q237 667 256 667 L311 667 Q330 667 336 659 Q342 651 342 626 L342 191 Q342 141 335 106.5 Q328 72 310.5 46 Q293 20 260.5 6 Q228 -8 179 -8 Q131 -8 100 4.5 Q69 17 51.5 40.5 Q34 64 27 99 Q20 134 20 186 L20 623 Q20 649 27.5 658 Q35 667 55 667 L108 667 Q126 667 132 658.5 Q138 650 138 626 L138 171 Q138 143 148 131 Q158 119 182 119 Q204 119 214 131 Q224 143 224 172 L224 626 Z M163 692 Q155 692 151.5 693.5 Q148 695 141 701 L72 760 Q62 769 62 776 Q62 789 76 789 L164 789 Q171 789 174.5 786.5 Q178 784 186 773 L231 714 Q236 708 236 701 Q236 692 225 692 L163 692 Z " />
<glyph glyph-name="Uacute" unicode="&#xda;" horiz-adv-x="362" d="M224 626 Q224 651 230.5 659 Q237 667 256 667 L311 667 Q330 667 336 659 Q342 651 342 626 L342 191 Q342 141 335 106.5 Q328 72 310.5 46 Q293 20 260.5 6 Q228 -8 179 -8 Q131 -8 100 4.5 Q69 17 51.5 40.5 Q34 64 27 99 Q20 134 20 186 L20 623 Q20 649 27.5 658 Q35 667 55 667 L108 667 Q126 667 132 658.5 Q138 650 138 626 L138 171 Q138 143 148 131 Q158 119 182 119 Q204 119 214 131 Q224 143 224 172 L224 626 Z M202 701 Q195 695 191.5 693.5 Q188 692 180 692 L118 692 Q107 692 107 701 Q107 708 112 714 L157 773 Q165 784 168.5 786.5 Q172 789 179 789 L267 789 Q281 789 281 776 Q281 769 271 760 L202 701 Z " />
<glyph glyph-name="Ucircumflex" unicode="&#xdb;" horiz-adv-x="362" d="M224 626 Q224 651 230.5 659 Q237 667 256 667 L311 667 Q330 667 336 659 Q342 651 342 626 L342 191 Q342 141 335 106.5 Q328 72 310.5 46 Q293 20 260.5 6 Q228 -8 179 -8 Q131 -8 100 4.5 Q69 17 51.5 40.5 Q34 64 27 99 Q20 134 20 186 L20 623 Q20 649 27.5 658 Q35 667 55 667 L108 667 Q126 667 132 658.5 Q138 650 138 626 L138 171 Q138 143 148 131 Q158 119 182 119 Q204 119 214 131 Q224 143 224 172 L224 626 Z M227 692 Q212 692 204 702 L175 738 L147 702 Q139 692 124 692 L68 692 Q59 692 59 700 Q59 705 62 709 L103 773 Q109 782 115.5 785.5 Q122 789 133 789 L218 789 Q229 789 235.5 785.5 Q242 782 248 773 L289 709 Q292 705 292 700 Q292 692 283 692 L227 692 Z " />
<glyph glyph-name="Udieresis" unicode="&#xdc;" horiz-adv-x="362" d="M224 626 Q224 651 230.5 659 Q237 667 256 667 L311 667 Q330 667 336 659 Q342 651 342 626 L342 191 Q342 141 335 106.5 Q328 72 310.5 46 Q293 20 260.5 6 Q228 -8 179 -8 Q131 -8 100 4.5 Q69 17 51.5 40.5 Q34 64 27 99 Q20 134 20 186 L20 623 Q20 649 27.5 658 Q35 667 55 667 L108 667 Q126 667 132 658.5 Q138 650 138 626 L138 171 Q138 143 148 131 Q158 119 182 119 Q204 119 214 131 Q224 143 224 172 L224 626 Z M219 692 Q201 692 194.5 698.5 Q188 705 188 723 L188 758 Q188 776 194.5 782.5 Q201 789 219 789 L248 789 Q266 789 272.5 782.5 Q279 776 279 758 L279 723 Q279 705 272.5 698.5 Q266 692 248 692 L219 692 Z M98 692 Q80 692 73.5 698.5 Q67 705 67 723 L67 758 Q67 776 73.5 782.5 Q80 789 98 789 L127 789 Q145 789 151.5 782.5 Q158 776 158 758 L158 723 Q158 705 151.5 698.5 Q145 692 127 692 L98 692 Z " />
<glyph glyph-name="Umacron" unicode="&#x16a;" horiz-adv-x="362" d="M224 626 Q224 651 230.5 659 Q237 667 256 667 L311 667 Q330 667 336 659 Q342 651 342 626 L342 191 Q342 141 335 106.5 Q328 72 310.5 46 Q293 20 260.5 6 Q228 -8 179 -8 Q131 -8 100 4.5 Q69 17 51.5 40.5 Q34 64 27 99 Q20 134 20 186 L20 623 Q20 649 27.5 658 Q35 667 55 667 L108 667 Q126 667 132 658.5 Q138 650 138 626 L138 171 Q138 143 148 131 Q158 119 182 119 Q204 119 214 131 Q224 143 224 172 L224 626 Z M114 692 Q86 692 77.5 698.5 Q69 705 69 723 L69 748 Q69 766 77.5 772.5 Q86 779 114 779 L249 779 Q277 779 285.5 772.5 Q294 766 294 748 L294 723 Q294 705 285.5 698.5 Q277 692 249 692 L114 692 Z " />
<glyph glyph-name="Uring" unicode="&#x16e;" horiz-adv-x="362" d="M224 626 Q224 651 230.5 659 Q237 667 256 667 L311 667 Q330 667 336 659 Q342 651 342 626 L342 191 Q342 141 335 106.5 Q328 72 310.5 46 Q293 20 260.5 6 Q228 -8 179 -8 Q131 -8 100 4.5 Q69 17 51.5 40.5 Q34 64 27 99 Q20 134 20 186 L20 623 Q20 649 27.5 658 Q35 667 55 667 L108 667 Q126 667 132 658.5 Q138 650 138 626 L138 171 Q138 143 148 131 Q158 119 182 119 Q204 119 214 131 Q224 143 224 172 L224 626 Z M265 745 Q265 719 261.5 707.5 Q258 696 249 688.5 Q240 681 223.5 677 Q207 673 181 673 Q155 673 138.5 677 Q122 681 113 688.5 Q104 696 100.5 707.5 Q97 719 97 745 Q97 771 100.5 782.5 Q104 794 113 801.5 Q122 809 138.5 813 Q155 817 181 817 Q207 817 223.5 813 Q240 809 249 801.5 Q258 794 261.5 782.5 Q265 771 265 745 Z M205 745 Q205 759 200 764 Q195 769 181 769 Q167 769 162 764 Q157 759 157 745 Q157 731 162 726 Q167 721 181 721 Q195 721 200 726 Q205 731 205 745 Z " />
<glyph glyph-name="Uhungarumlaut" unicode="&#x170;" horiz-adv-x="362" d="M224 626 Q224 651 230.5 659 Q237 667 256 667 L311 667 Q330 667 336 659 Q342 651 342 626 L342 191 Q342 141 335 106.5 Q328 72 310.5 46 Q293 20 260.5 6 Q228 -8 179 -8 Q131 -8 100 4.5 Q69 17 51.5 40.5 Q34 64 27 99 Q20 134 20 186 L20 623 Q20 649 27.5 658 Q35 667 55 667 L108 667 Q126 667 132 658.5 Q138 650 138 626 L138 171 Q138 143 148 131 Q158 119 182 119 Q204 119 214 131 Q224 143 224 172 L224 626 Z M196 692 Q191 692 188 698 Q185 704 191 714 L224 768 Q232 781 234 785 Q236 789 244 789 L301 789 Q309 789 312 783 Q315 777 308 769 L254 707 Q246 698 243 695 Q240 692 233 692 L196 692 Z M94 692 Q88 692 84.5 698 Q81 704 87 714 L121 768 Q129 780 132 784.5 Q135 789 143 789 L198 789 Q206 789 209 782.5 Q212 776 206 769 L151 707 Q143 698 140.5 695 Q138 692 130 692 L94 692 Z " />
<glyph glyph-name="Uogonek" unicode="&#x172;" horiz-adv-x="362" d="M206 -137 Q184 -137 174 -126 Q164 -115 164 -92 L164 -75 Q164 -51 169 -35 Q174 -19 185 -8 L179 -8 Q131 -8 100 4.5 Q69 17 51.5 40.5 Q34 64 27 99 Q20 134 20 186 L20 623 Q20 649 27.5 658 Q35 667 55 667 L108 667 Q126 667 132 658.5 Q138 650 138 626 L138 171 Q138 143 148 131 Q158 119 182 119 Q204 119 214 131 Q224 143 224 172 L224 626 Q224 651 230.5 659 Q237 667 256 667 L311 667 Q330 667 336 659 Q342 651 342 626 L342 191 Q342 130 331.5 92 Q321 54 298 31 Q287 20 270 10.5 Q253 1 248 -4 Q244 -8 241.5 -15 Q239 -22 239 -29 Q239 -44 252 -44 L273 -44 Q296 -44 304 -50.5 Q312 -57 312 -75 L312 -97 Q312 -123 305.5 -130 Q299 -137 277 -137 L206 -137 Z " />
<glyph glyph-name="V" unicode="V" horiz-adv-x="364" d="M129 0 Q116 0 110 6 Q104 12 102 27 L3 640 Q1 655 4 661 Q7 667 21 667 L98 667 Q110 667 116 662 Q122 657 125 635 L173 255 Q174 240 182 240 Q189 240 191 255 L239 635 Q242 657 248 662 Q254 667 266 667 L343 667 Q357 667 360 661 Q363 655 361 640 L262 27 Q260 12 254 6 Q248 0 235 0 L129 0 Z " />
<glyph glyph-name="W" unicode="W" horiz-adv-x="553" d="M338 0 Q323 0 317.5 5.5 Q312 11 310 30 L282 253 Q282 257 281 261 Q280 265 277 265 Q274 265 272.5 261.5 Q271 258 270 254 L215 20 Q211 0 188 0 L123 0 Q110 0 105 5 Q100 10 98 25 L4 630 Q0 656 8 661.5 Q16 667 29 667 L97 667 Q109 667 114 661 Q119 655 121 638 L168 313 Q170 305 172 302.5 Q174 300 177 300 Q180 300 181.5 302.5 Q183 305 185 313 L230 505 L216 631 Q214 649 219 658 Q224 667 241 667 L311 667 Q324 667 329 661 Q334 655 336 638 L375 314 Q376 300 383 300 Q390 300 391 314 L431 641 Q434 667 454 667 L527 667 Q541 667 546.5 660 Q552 653 548 631 L444 29 Q441 13 435 6.5 Q429 0 416 0 L338 0 Z " />
<glyph glyph-name="X" unicode="X" horiz-adv-x="342" d="M243 0 Q220 0 216 25 L180 232 Q177 244 171 244 Q165 244 162 232 L126 25 Q122 0 99 0 L21 0 Q7 0 3.5 8.5 Q0 17 5 37 L71 346 L5 631 Q0 651 5.5 659 Q11 667 25 667 L101 667 Q121 667 127 640 L163 452 Q165 444 166 441.5 Q167 439 171 439 Q175 439 176 441.5 Q177 444 179 452 L215 640 Q221 667 241 667 L317 667 Q331 667 336.5 659 Q342 651 337 631 L270 346 L337 37 Q342 17 338.5 8.5 Q335 0 321 0 L243 0 Z " />
<glyph glyph-name="Y" unicode="Y" horiz-adv-x="344" d="M146 0 Q126 0 119.5 8.5 Q113 17 113 43 L113 255 L3 632 Q-2 647 2.5 657 Q7 667 21 667 L88 667 Q100 667 105.5 662 Q111 657 114 643 L165 426 Q167 415 172 415 Q177 415 179 426 L230 643 Q233 657 238.5 662 Q244 667 256 667 L323 667 Q337 667 341.5 657 Q346 647 341 632 L231 255 L231 43 Q231 17 224.5 8.5 Q218 0 198 0 L146 0 Z " />
<glyph glyph-name="Yacute" unicode="&#xdd;" horiz-adv-x="344" d="M146 0 Q126 0 119.5 8.5 Q113 17 113 43 L113 255 L3 632 Q-2 647 2.5 657 Q7 667 21 667 L88 667 Q100 667 105.5 662 Q111 657 114 643 L165 426 Q167 415 172 415 Q177 415 179 426 L230 643 Q233 657 238.5 662 Q244 667 256 667 L323 667 Q337 667 341.5 657 Q346 647 341 632 L231 255 L231 43 Q231 17 224.5 8.5 Q218 0 198 0 L146 0 Z M197 701 Q190 695 186.5 693.5 Q183 692 175 692 L113 692 Q102 692 102 701 Q102 708 107 714 L152 773 Q160 784 163.5 786.5 Q167 789 174 789 L262 789 Q276 789 276 776 Q276 769 266 760 L197 701 Z " />
<glyph glyph-name="Ydieresis" unicode="&#x178;" horiz-adv-x="344" d="M146 0 Q126 0 119.5 8.5 Q113 17 113 43 L113 255 L3 632 Q-2 647 2.5 657 Q7 667 21 667 L88 667 Q100 667 105.5 662 Q111 657 114 643 L165 426 Q167 415 172 415 Q177 415 179 426 L230 643 Q233 657 238.5 662 Q244 667 256 667 L323 667 Q337 667 341.5 657 Q346 647 341 632 L231 255 L231 43 Q231 17 224.5 8.5 Q218 0 198 0 L146 0 Z M221 692 Q203 692 196.5 698.5 Q190 705 190 723 L190 758 Q190 776 196.5 782.5 Q203 789 221 789 L250 789 Q268 789 274.5 782.5 Q281 776 281 758 L281 723 Q281 705 274.5 698.5 Q268 692 250 692 L221 692 Z M100 692 Q82 692 75.5 698.5 Q69 705 69 723 L69 758 Q69 776 75.5 782.5 Q82 789 100 789 L129 789 Q147 789 153.5 782.5 Q160 776 160 758 L160 723 Q160 705 153.5 698.5 Q147 692 129 692 L100 692 Z " />
<glyph glyph-name="Z" unicode="Z" horiz-adv-x="311" d="M40 0 Q20 0 14 8 Q8 16 8 40 L8 118 Q8 137 11 150 Q14 163 24 184 L183 531 Q187 539 185 544 Q183 549 175 549 L50 549 Q28 549 22.5 556 Q17 563 17 590 L17 625 Q17 651 23 659 Q29 667 49 667 L272 667 Q302 667 302 628 L302 549 Q302 535 299 522.5 Q296 510 288 493 L129 142 Q124 132 126 125 Q128 118 138 118 L271 118 Q290 118 296.5 109.5 Q303 101 303 75 L303 41 Q303 17 295.5 8.5 Q288 0 267 0 L40 0 Z " />
<glyph glyph-name="Zacute" unicode="&#x179;" horiz-adv-x="311" d="M40 0 Q20 0 14 8 Q8 16 8 40 L8 118 Q8 137 11 150 Q14 163 24 184 L183 531 Q187 539 185 544 Q183 549 175 549 L50 549 Q28 549 22.5 556 Q17 563 17 590 L17 625 Q17 651 23 659 Q29 667 49 667 L272 667 Q302 667 302 628 L302 549 Q302 535 299 522.5 Q296 510 288 493 L129 142 Q124 132 126 125 Q128 118 138 118 L271 118 Q290 118 296.5 109.5 Q303 101 303 75 L303 41 Q303 17 295.5 8.5 Q288 0 267 0 L40 0 Z M181 701 Q174 695 170.5 693.5 Q167 692 159 692 L97 692 Q86 692 86 701 Q86 708 91 714 L136 773 Q144 784 147.5 786.5 Q151 789 158 789 L246 789 Q260 789 260 776 Q260 769 250 760 L181 701 Z " />
<glyph glyph-name="Zcaron" unicode="&#x17d;" horiz-adv-x="311" d="M40 0 Q20 0 14 8 Q8 16 8 40 L8 118 Q8 137 11 150 Q14 163 24 184 L183 531 Q187 539 185 544 Q183 549 175 549 L50 549 Q28 549 22.5 556 Q17 563 17 590 L17 625 Q17 651 23 659 Q29 667 49 667 L272 667 Q302 667 302 628 L302 549 Q302 535 299 522.5 Q296 510 288 493 L129 142 Q124 132 126 125 Q128 118 138 118 L271 118 Q290 118 296.5 109.5 Q303 101 303 75 L303 41 Q303 17 295.5 8.5 Q288 0 267 0 L40 0 Z M106 789 Q121 789 129 779 L158 743 L186 779 Q190 785 195 787 Q200 789 209 789 L265 789 Q274 789 274 781 Q274 776 271 772 L230 708 Q224 699 217.5 695.5 Q211 692 200 692 L115 692 Q104 692 97.5 695.5 Q91 699 85 708 L44 772 Q41 776 41 781 Q41 789 50 789 L106 789 Z " />
<glyph glyph-name="Zdotaccent" unicode="&#x17b;" horiz-adv-x="311" d="M40 0 Q20 0 14 8 Q8 16 8 40 L8 118 Q8 137 11 150 Q14 163 24 184 L183 531 Q187 539 185 544 Q183 549 175 549 L50 549 Q28 549 22.5 556 Q17 563 17 590 L17 625 Q17 651 23 659 Q29 667 49 667 L272 667 Q302 667 302 628 L302 549 Q302 535 299 522.5 Q296 510 288 493 L129 142 Q124 132 126 125 Q128 118 138 118 L271 118 Q290 118 296.5 109.5 Q303 101 303 75 L303 41 Q303 17 295.5 8.5 Q288 0 267 0 L40 0 Z M138 692 Q120 692 113.5 698.5 Q107 705 107 723 L107 758 Q107 776 113.5 782.5 Q120 789 138 789 L173 789 Q191 789 197.5 782.5 Q204 776 204 758 L204 723 Q204 705 197.5 698.5 Q191 692 173 692 L138 692 Z " />
<glyph glyph-name="a" unicode="a" horiz-adv-x="371" d="M258 0 Q250 0 246.5 3.5 Q243 7 241 18 L222 159 Q220 169 216.5 172 Q213 175 205 175 L163 175 Q155 175 151.5 172.5 Q148 170 146 159 L130 16 Q129 6 126 3 Q123 0 112 0 L20 0 Q1 0 3 15 L84 629 Q87 651 96 659 Q105 667 126 667 L242 667 Q260 667 269 658.5 Q278 650 281 628 L368 15 Q369 0 353 0 L258 0 Z M191 534 Q190 549 183 549 Q176 549 175 533 L158 304 Q157 293 171 293 L196 293 Q211 293 210 304 L191 534 Z " />
<glyph glyph-name="agrave" unicode="&#xe0;" horiz-adv-x="371" d="M258 0 Q250 0 246.5 3.5 Q243 7 241 18 L222 159 Q220 169 216.5 172 Q213 175 205 175 L163 175 Q155 175 151.5 172.5 Q148 170 146 159 L130 16 Q129 6 126 3 Q123 0 112 0 L20 0 Q1 0 3 15 L84 629 Q87 651 96 659 Q105 667 126 667 L242 667 Q260 667 269 658.5 Q278 650 281 628 L368 15 Q369 0 353 0 L258 0 Z M191 534 Q190 549 183 549 Q176 549 175 533 L158 304 Q157 293 171 293 L196 293 Q211 293 210 304 L191 534 Z M169 692 Q161 692 157.5 693.5 Q154 695 147 701 L78 760 Q68 769 68 776 Q68 789 82 789 L170 789 Q177 789 180.5 786.5 Q184 784 192 773 L237 714 Q242 708 242 701 Q242 692 231 692 L169 692 Z " />
<glyph glyph-name="aacute" unicode="&#xe1;" horiz-adv-x="371" d="M258 0 Q250 0 246.5 3.5 Q243 7 241 18 L222 159 Q220 169 216.5 172 Q213 175 205 175 L163 175 Q155 175 151.5 172.5 Q148 170 146 159 L130 16 Q129 6 126 3 Q123 0 112 0 L20 0 Q1 0 3 15 L84 629 Q87 651 96 659 Q105 667 126 667 L242 667 Q260 667 269 658.5 Q278 650 281 628 L368 15 Q369 0 353 0 L258 0 Z M191 534 Q190 549 183 549 Q176 549 175 533 L158 304 Q157 293 171 293 L196 293 Q211 293 210 304 L191 534 Z M221 701 Q214 695 210.5 693.5 Q207 692 199 692 L137 692 Q126 692 126 701 Q126 708 131 714 L176 773 Q184 784 187.5 786.5 Q191 789 198 789 L286 789 Q300 789 300 776 Q300 769 290 760 L221 701 Z " />
<glyph glyph-name="acircumflex" unicode="&#xe2;" horiz-adv-x="371" d="M258 0 Q250 0 246.5 3.5 Q243 7 241 18 L222 159 Q220 169 216.5 172 Q213 175 205 175 L163 175 Q155 175 151.5 172.5 Q148 170 146 159 L130 16 Q129 6 126 3 Q123 0 112 0 L20 0 Q1 0 3 15 L84 629 Q87 651 96 659 Q105 667 126 667 L242 667 Q260 667 269 658.5 Q278 650 281 628 L368 15 Q369 0 353 0 L258 0 Z M191 534 Q190 549 183 549 Q176 549 175 533 L158 304 Q157 293 171 293 L196 293 Q211 293 210 304 L191 534 Z M238 692 Q223 692 215 702 L186 738 L158 702 Q150 692 135 692 L79 692 Q70 692 70 700 Q70 705 73 709 L114 773 Q120 782 126.5 785.5 Q133 789 144 789 L229 789 Q240 789 246.5 785.5 Q253 782 259 773 L300 709 Q303 705 303 700 Q303 692 294 692 L238 692 Z " />
<glyph glyph-name="atilde" unicode="&#xe3;" horiz-adv-x="371" d="M258 0 Q250 0 246.5 3.5 Q243 7 241 18 L222 159 Q220 169 216.5 172 Q213 175 205 175 L163 175 Q155 175 151.5 172.5 Q148 170 146 159 L130 16 Q129 6 126 3 Q123 0 112 0 L20 0 Q1 0 3 15 L84 629 Q87 651 96 659 Q105 667 126 667 L242 667 Q260 667 269 658.5 Q278 650 281 628 L368 15 Q369 0 353 0 L258 0 Z M191 534 Q190 549 183 549 Q176 549 175 533 L158 304 Q157 293 171 293 L196 293 Q211 293 210 304 L191 534 Z M233 692 Q228 692 224 693 Q220 694 216 695 L145 716 Q137 719 133 719 Q129 719 129 713 L129 708 Q129 700 124 696 Q119 692 113 692 L88 692 Q73 692 68 698 Q63 704 63 718 L63 761 Q63 773 68 781 Q73 789 88 789 L128 789 Q133 789 137 788 Q141 787 145 786 L216 765 Q223 762 228 762 Q232 762 232 768 L232 773 Q232 781 237 785 Q242 789 248 789 L273 789 Q288 789 293 783 Q298 777 298 763 L298 720 Q298 708 293 700 Q288 692 273 692 L233 692 Z " />
<glyph glyph-name="adieresis" unicode="&#xe4;" horiz-adv-x="371" d="M258 0 Q250 0 246.5 3.5 Q243 7 241 18 L222 159 Q220 169 216.5 172 Q213 175 205 175 L163 175 Q155 175 151.5 172.5 Q148 170 146 159 L130 16 Q129 6 126 3 Q123 0 112 0 L20 0 Q1 0 3 15 L84 629 Q87 651 96 659 Q105 667 126 667 L242 667 Q260 667 269 658.5 Q278 650 281 628 L368 15 Q369 0 353 0 L258 0 Z M191 534 Q190 549 183 549 Q176 549 175 533 L158 304 Q157 293 171 293 L196 293 Q211 293 210 304 L191 534 Z M231 692 Q213 692 206.5 698.5 Q200 705 200 723 L200 758 Q200 776 206.5 782.5 Q213 789 231 789 L260 789 Q278 789 284.5 782.5 Q291 776 291 758 L291 723 Q291 705 284.5 698.5 Q278 692 260 692 L231 692 Z M110 692 Q92 692 85.5 698.5 Q79 705 79 723 L79 758 Q79 776 85.5 782.5 Q92 789 110 789 L139 789 Q157 789 163.5 782.5 Q170 776 170 758 L170 723 Q170 705 163.5 698.5 Q157 692 139 692 L110 692 Z " />
<glyph glyph-name="amacron" unicode="&#x101;" horiz-adv-x="371" d="M258 0 Q250 0 246.5 3.5 Q243 7 241 18 L222 159 Q220 169 216.5 172 Q213 175 205 175 L163 175 Q155 175 151.5 172.5 Q148 170 146 159 L130 16 Q129 6 126 3 Q123 0 112 0 L20 0 Q1 0 3 15 L84 629 Q87 651 96 659 Q105 667 126 667 L242 667 Q260 667 269 658.5 Q278 650 281 628 L368 15 Q369 0 353 0 L258 0 Z M191 534 Q190 549 183 549 Q176 549 175 533 L158 304 Q157 293 171 293 L196 293 Q211 293 210 304 L191 534 Z M118 692 Q90 692 81.5 698.5 Q73 705 73 723 L73 748 Q73 766 81.5 772.5 Q90 779 118 779 L253 779 Q281 779 289.5 772.5 Q298 766 298 748 L298 723 Q298 705 289.5 698.5 Q281 692 253 692 L118 692 Z " />
<glyph glyph-name="abreve" unicode="&#x103;" horiz-adv-x="371" d="M258 0 Q250 0 246.5 3.5 Q243 7 241 18 L222 159 Q220 169 216.5 172 Q213 175 205 175 L163 175 Q155 175 151.5 172.5 Q148 170 146 159 L130 16 Q129 6 126 3 Q123 0 112 0 L20 0 Q1 0 3 15 L84 629 Q87 651 96 659 Q105 667 126 667 L242 667 Q260 667 269 658.5 Q278 650 281 628 L368 15 Q369 0 353 0 L258 0 Z M191 534 Q190 549 183 549 Q176 549 175 533 L158 304 Q157 293 171 293 L196 293 Q211 293 210 304 L191 534 Z M301 788 Q312 788 312 774 Q312 753 306.5 738.5 Q301 724 287.5 713.5 Q274 703 249 697 Q224 691 185 691 Q146 691 121 697 Q96 703 83 713.5 Q70 724 64.5 738.5 Q59 753 59 774 Q59 788 70 788 L133 788 Q146 788 146 776 Q146 756 186 756 Q225 756 225 776 Q225 788 238 788 L301 788 Z " />
<glyph glyph-name="aring" unicode="&#xe5;" horiz-adv-x="371" d="M258 0 Q250 0 246.5 3.5 Q243 7 241 18 L222 159 Q220 169 216.5 172 Q213 175 205 175 L163 175 Q155 175 151.5 172.5 Q148 170 146 159 L130 16 Q129 6 126 3 Q123 0 112 0 L20 0 Q1 0 3 15 L84 629 Q86 649 94 657 Q102 665 118 667 Q106 675 102.5 688 Q99 701 99 725 Q99 741 100.5 754 Q102 767 110 776.5 Q118 786 135 791.5 Q152 797 183 797 Q214 797 231 791.5 Q248 786 256 776.5 Q264 767 265.5 754 Q267 741 267 725 Q267 699 263 687 Q259 675 248 667 Q263 665 270.5 656.5 Q278 648 281 628 L368 15 Q369 0 353 0 L258 0 Z M191 534 Q190 549 183 549 Q176 549 175 533 L158 304 Q157 293 171 293 L196 293 Q211 293 210 304 L191 534 Z M207 725 Q207 739 202 744 Q197 749 183 749 Q169 749 164 744 Q159 739 159 725 Q159 711 164 706 Q169 701 183 701 Q197 701 202 706 Q207 711 207 725 Z " />
<glyph glyph-name="aogonek" unicode="&#x105;" horiz-adv-x="371" d="M258 0 Q250 0 246.5 3.5 Q243 7 241 18 L222 159 Q220 169 216.5 172 Q213 175 205 175 L163 175 Q155 175 151.5 172.5 Q148 170 146 159 L130 16 Q129 6 126 3 Q123 0 112 0 L20 0 Q1 0 3 15 L84 629 Q87 651 96 659 Q105 667 126 667 L242 667 Q260 667 269 658.5 Q278 650 281 628 L368 15 Q369 0 353 0 L258 0 Z M191 534 Q190 549 183 549 Q176 549 175 533 L158 304 Q157 293 171 293 L196 293 Q211 293 210 304 L191 534 Z M287 -137 Q265 -137 255 -126 Q245 -115 245 -92 L245 -75 Q245 -58 248 -41.5 Q251 -25 258 0 L326 0 Q320 -22 320 -29 Q320 -44 333 -44 L354 -44 Q377 -44 385 -50.5 Q393 -57 393 -75 L393 -97 Q393 -123 386.5 -130 Q380 -137 358 -137 L287 -137 Z " />
<glyph glyph-name="ae" unicode="&#xe6;" horiz-adv-x="511" d="M249 0 Q241 0 237.5 4 Q234 8 234 18 L234 159 Q234 169 230.5 172 Q227 175 219 175 L176 175 Q167 175 163.5 172 Q160 169 158 159 L130 16 Q128 6 124.5 3 Q121 0 110 0 L18 0 Q0 0 3 15 L135 629 Q139 650 149.5 658.5 Q160 667 181 667 L466 667 Q485 667 491.5 659.5 Q498 652 498 628 L498 591 Q498 566 491.5 557.5 Q485 549 466 549 L368 549 Q357 549 353.5 545 Q350 541 350 527 L350 434 Q350 420 352.5 416.5 Q355 413 368 413 L418 413 Q435 413 441 406 Q447 399 447 379 L447 328 Q447 309 440.5 302 Q434 295 418 295 L368 295 Q357 295 353.5 292 Q350 289 350 280 L350 140 Q350 127 354 122.5 Q358 118 371 118 L470 118 Q490 118 498 108.5 Q506 99 506 75 L506 43 Q506 20 498 10 Q490 0 472 0 L249 0 Z M234 534 Q234 549 228 549 Q221 549 218 533 L182 304 Q180 293 194 293 L219 293 Q234 293 234 304 L234 534 Z " />
<glyph glyph-name="b" unicode="b" horiz-adv-x="361" d="M58 0 Q39 0 32.5 9 Q26 18 26 44 L26 624 Q26 648 33 657.5 Q40 667 58 667 L239 667 Q273 667 295 650.5 Q317 634 327.5 599 Q338 564 338 499 Q338 436 325.5 400.5 Q313 365 284 348 Q315 336 331 293 Q347 250 347 180 Q347 117 335 77.5 Q323 38 299 19 Q275 0 239 0 L58 0 Z M179 404 Q204 404 212.5 418 Q221 432 221 476 Q221 515 212 532 Q203 549 179 549 L160 549 Q149 549 146 545 Q143 541 143 529 L143 424 Q143 412 146.5 408 Q150 404 160 404 L179 404 Z M179 118 Q209 118 218.5 135 Q228 152 228 201 Q228 248 218 267 Q208 286 179 286 L160 286 Q149 286 146 282 Q143 278 143 266 L143 138 Q143 127 146.5 122.5 Q150 118 160 118 L179 118 Z " />
<glyph glyph-name="c" unicode="c" horiz-adv-x="290" d="M137 0 Q96 0 73.5 14 Q51 28 39 61.5 Q27 95 22 155 Q17 215 17 327 Q17 455 21 512 Q25 569 36 602.5 Q47 636 69 651.5 Q91 667 132 667 L256 667 Q273 667 280 659.5 Q287 652 287 632 L287 587 Q287 564 280.5 556.5 Q274 549 254 549 L178 549 Q160 549 153.5 543 Q147 537 143.5 519 Q140 501 138.5 463.5 Q137 426 137 332 Q137 247 138.5 207.5 Q140 168 143.5 149.5 Q147 131 153 124.5 Q159 118 176 118 L254 118 Q272 118 279 110.5 Q286 103 286 84 L286 36 Q286 16 279.5 8 Q273 0 256 0 L137 0 Z " />
<glyph glyph-name="cacute" unicode="&#x107;" horiz-adv-x="290" d="M137 0 Q96 0 73.5 14 Q51 28 39 61.5 Q27 95 22 155 Q17 215 17 327 Q17 455 21 512 Q25 569 36 602.5 Q47 636 69 651.5 Q91 667 132 667 L256 667 Q273 667 280 659.5 Q287 652 287 632 L287 587 Q287 564 280.5 556.5 Q274 549 254 549 L178 549 Q160 549 153.5 543 Q147 537 143.5 519 Q140 501 138.5 463.5 Q137 426 137 332 Q137 247 138.5 207.5 Q140 168 143.5 149.5 Q147 131 153 124.5 Q159 118 176 118 L254 118 Q272 118 279 110.5 Q286 103 286 84 L286 36 Q286 16 279.5 8 Q273 0 256 0 L137 0 Z M203 701 Q196 695 192.5 693.5 Q189 692 181 692 L119 692 Q108 692 108 701 Q108 708 113 714 L158 773 Q166 784 169.5 786.5 Q173 789 180 789 L268 789 Q282 789 282 776 Q282 769 272 760 L203 701 Z " />
<glyph glyph-name="ccaron" unicode="&#x10d;" horiz-adv-x="290" d="M137 0 Q96 0 73.5 14 Q51 28 39 61.5 Q27 95 22 155 Q17 215 17 327 Q17 455 21 512 Q25 569 36 602.5 Q47 636 69 651.5 Q91 667 132 667 L256 667 Q273 667 280 659.5 Q287 652 287 632 L287 587 Q287 564 280.5 556.5 Q274 549 254 549 L178 549 Q160 549 153.5 543 Q147 537 143.5 519 Q140 501 138.5 463.5 Q137 426 137 332 Q137 247 138.5 207.5 Q140 168 143.5 149.5 Q147 131 153 124.5 Q159 118 176 118 L254 118 Q272 118 279 110.5 Q286 103 286 84 L286 36 Q286 16 279.5 8 Q273 0 256 0 L137 0 Z M113 789 Q128 789 136 779 L165 743 L193 779 Q197 785 202 787 Q207 789 216 789 L272 789 Q281 789 281 781 Q281 776 278 772 L237 708 Q231 699 224.5 695.5 Q218 692 207 692 L122 692 Q111 692 104.5 695.5 Q98 699 92 708 L51 772 Q48 776 48 781 Q48 789 57 789 L113 789 Z " />
<glyph glyph-name="ccedilla" unicode="&#xe7;" horiz-adv-x="290" d="M137 0 Q96 0 73.5 14 Q51 28 39 61.5 Q27 95 22 155 Q17 215 17 327 Q17 455 21 512 Q25 569 36 602.5 Q47 636 69 651.5 Q91 667 132 667 L256 667 Q273 667 280 659.5 Q287 652 287 632 L287 587 Q287 564 280.5 556.5 Q274 549 254 549 L178 549 Q160 549 153.5 543 Q147 537 143.5 519 Q140 501 138.5 463.5 Q137 426 137 332 Q137 247 138.5 207.5 Q140 168 143.5 149.5 Q147 131 153 124.5 Q159 118 176 118 L254 118 Q272 118 279 110.5 Q286 103 286 84 L286 36 Q286 16 279.5 8 Q273 0 256 0 L137 0 Z M120 -137 Q98 -137 91.5 -130 Q85 -123 85 -97 L85 -75 Q85 -57 93 -50.5 Q101 -44 124 -44 L145 -44 Q158 -44 158 -29 Q158 -22 152 0 L220 0 Q227 -23 230 -39.5 Q233 -56 233 -75 L233 -92 Q233 -115 223 -126 Q213 -137 191 -137 L120 -137 Z " />
<glyph glyph-name="d" unicode="d" horiz-adv-x="366" d="M61 0 Q39 0 32.5 8 Q26 16 26 43 L26 622 Q26 647 33 657 Q40 667 58 667 L229 667 Q268 667 291 652 Q314 637 326.5 604.5 Q339 572 344 515 Q349 458 349 334 Q349 217 343.5 155 Q338 93 326 60 Q314 27 291 13.5 Q268 0 223 0 L61 0 Z M140 145 Q140 126 145.5 122 Q151 118 177 118 Q207 118 215.5 130 Q224 142 227 177 Q230 212 230 324 Q230 433 228.5 468 Q227 503 222.5 520 Q218 537 209.5 543 Q201 549 174 549 Q152 549 146 543.5 Q140 538 140 519 L140 145 Z " />
<glyph glyph-name="dcaron" unicode="&#x10f;" horiz-adv-x="366" d="M61 0 Q39 0 32.5 8 Q26 16 26 43 L26 622 Q26 647 33 657 Q40 667 58 667 L229 667 Q268 667 291 652 Q314 637 326.5 604.5 Q339 572 344 515 Q349 458 349 334 Q349 217 343.5 155 Q338 93 326 60 Q314 27 291 13.5 Q268 0 223 0 L61 0 Z M140 145 Q140 126 145.5 122 Q151 118 177 118 Q207 118 215.5 130 Q224 142 227 177 Q230 212 230 324 Q230 433 228.5 468 Q227 503 222.5 520 Q218 537 209.5 543 Q201 549 174 549 Q152 549 146 543.5 Q140 538 140 519 L140 145 Z M132 789 Q147 789 155 779 L184 743 L212 779 Q216 785 221 787 Q226 789 235 789 L291 789 Q300 789 300 781 Q300 776 297 772 L256 708 Q250 699 243.5 695.5 Q237 692 226 692 L141 692 Q130 692 123.5 695.5 Q117 699 111 708 L70 772 Q67 776 67 781 Q67 789 76 789 L132 789 Z " />
<glyph glyph-name="dcroat" unicode="&#x111;" horiz-adv-x="366" d="M71 0 Q49 0 42.5 8 Q36 16 36 43 L36 298 L29 298 Q12 298 6 304.5 Q0 311 0 330 L0 379 Q0 397 6.5 403.5 Q13 410 29 410 L36 410 L36 622 Q36 647 43 657 Q50 667 68 667 L239 667 Q281 667 304.5 649.5 Q328 632 339.5 596 Q351 560 355 503 Q359 446 359 334 Q359 218 353.5 155.5 Q348 93 335.5 59.5 Q323 26 300 13 Q277 0 233 0 L71 0 Z M150 298 L150 145 Q150 126 155.5 122 Q161 118 187 118 Q210 118 218.5 123.5 Q227 129 232 146 Q237 163 238.5 199.5 Q240 236 240 324 Q240 429 238.5 465.5 Q237 502 232.5 519.5 Q228 537 219 543 Q210 549 184 549 Q162 549 156 543.5 Q150 538 150 519 L150 410 L170 410 Q187 410 193 403.5 Q199 397 199 378 L199 329 Q199 311 192.5 304.5 Q186 298 170 298 L150 298 Z " />
<glyph glyph-name="eth" unicode="&#xf0;" horiz-adv-x="366" d="M71 0 Q49 0 42.5 8 Q36 16 36 43 L36 298 L29 298 Q12 298 6 304.5 Q0 311 0 330 L0 379 Q0 397 6.5 403.5 Q13 410 29 410 L36 410 L36 622 Q36 647 43 657 Q50 667 68 667 L239 667 Q281 667 304.5 649.5 Q328 632 339.5 596 Q351 560 355 503 Q359 446 359 334 Q359 218 353.5 155.5 Q348 93 335.5 59.5 Q323 26 300 13 Q277 0 233 0 L71 0 Z M150 298 L150 145 Q150 126 155.5 122 Q161 118 187 118 Q210 118 218.5 123.5 Q227 129 232 146 Q237 163 238.5 199.5 Q240 236 240 324 Q240 429 238.5 465.5 Q237 502 232.5 519.5 Q228 537 219 543 Q210 549 184 549 Q162 549 156 543.5 Q150 538 150 519 L150 410 L170 410 Q187 410 193 403.5 Q199 397 199 378 L199 329 Q199 311 192.5 304.5 Q186 298 170 298 L150 298 Z " />
<glyph glyph-name="e" unicode="e" horiz-adv-x="301" d="M60 0 Q40 0 33 9 Q26 18 26 44 L26 623 Q26 648 33.5 657.5 Q41 667 60 667 L258 667 Q277 667 283.5 659.5 Q290 652 290 628 L290 591 Q290 566 283.5 557.5 Q277 549 258 549 L160 549 Q149 549 145.5 545 Q142 541 142 527 L142 434 Q142 420 144.5 416.5 Q147 413 160 413 L210 413 Q227 413 233 406 Q239 399 239 379 L239 328 Q239 309 232.5 302 Q226 295 210 295 L160 295 Q149 295 145.5 292 Q142 289 142 280 L142 140 Q142 127 146 122.5 Q150 118 163 118 L262 118 Q282 118 290 108.5 Q298 99 298 75 L298 43 Q298 20 290 10 Q282 0 264 0 L60 0 Z " />
<glyph glyph-name="egrave" unicode="&#xe8;" horiz-adv-x="301" d="M60 0 Q40 0 33 9 Q26 18 26 44 L26 623 Q26 648 33.5 657.5 Q41 667 60 667 L258 667 Q277 667 283.5 659.5 Q290 652 290 628 L290 591 Q290 566 283.5 557.5 Q277 549 258 549 L160 549 Q149 549 145.5 545 Q142 541 142 527 L142 434 Q142 420 144.5 416.5 Q147 413 160 413 L210 413 Q227 413 233 406 Q239 399 239 379 L239 328 Q239 309 232.5 302 Q226 295 210 295 L160 295 Q149 295 145.5 292 Q142 289 142 280 L142 140 Q142 127 146 122.5 Q150 118 163 118 L262 118 Q282 118 290 108.5 Q298 99 298 75 L298 43 Q298 20 290 10 Q282 0 264 0 L60 0 Z M144 692 Q136 692 132.5 693.5 Q129 695 122 701 L53 760 Q43 769 43 776 Q43 789 57 789 L145 789 Q152 789 155.5 786.5 Q159 784 167 773 L212 714 Q217 708 217 701 Q217 692 206 692 L144 692 Z " />
<glyph glyph-name="eacute" unicode="&#xe9;" horiz-adv-x="301" d="M60 0 Q40 0 33 9 Q26 18 26 44 L26 623 Q26 648 33.5 657.5 Q41 667 60 667 L258 667 Q277 667 283.5 659.5 Q290 652 290 628 L290 591 Q290 566 283.5 557.5 Q277 549 258 549 L160 549 Q149 549 145.5 545 Q142 541 142 527 L142 434 Q142 420 144.5 416.5 Q147 413 160 413 L210 413 Q227 413 233 406 Q239 399 239 379 L239 328 Q239 309 232.5 302 Q226 295 210 295 L160 295 Q149 295 145.5 292 Q142 289 142 280 L142 140 Q142 127 146 122.5 Q150 118 163 118 L262 118 Q282 118 290 108.5 Q298 99 298 75 L298 43 Q298 20 290 10 Q282 0 264 0 L60 0 Z M169 701 Q162 695 158.5 693.5 Q155 692 147 692 L85 692 Q74 692 74 701 Q74 708 79 714 L124 773 Q132 784 135.5 786.5 Q139 789 146 789 L234 789 Q248 789 248 776 Q248 769 238 760 L169 701 Z " />
<glyph glyph-name="ecircumflex" unicode="&#xea;" horiz-adv-x="301" d="M60 0 Q40 0 33 9 Q26 18 26 44 L26 623 Q26 648 33.5 657.5 Q41 667 60 667 L258 667 Q277 667 283.5 659.5 Q290 652 290 628 L290 591 Q290 566 283.5 557.5 Q277 549 258 549 L160 549 Q149 549 145.5 545 Q142 541 142 527 L142 434 Q142 420 144.5 416.5 Q147 413 160 413 L210 413 Q227 413 233 406 Q239 399 239 379 L239 328 Q239 309 232.5 302 Q226 295 210 295 L160 295 Q149 295 145.5 292 Q142 289 142 280 L142 140 Q142 127 146 122.5 Q150 118 163 118 L262 118 Q282 118 290 108.5 Q298 99 298 75 L298 43 Q298 20 290 10 Q282 0 264 0 L60 0 Z M198 692 Q183 692 175 702 L146 738 L118 702 Q110 692 95 692 L39 692 Q30 692 30 700 Q30 705 33 709 L74 773 Q80 782 86.5 785.5 Q93 789 104 789 L189 789 Q200 789 206.5 785.5 Q213 782 219 773 L260 709 Q263 705 263 700 Q263 692 254 692 L198 692 Z " />
<glyph glyph-name="ecaron" unicode="&#x11b;" horiz-adv-x="301" d="M60 0 Q40 0 33 9 Q26 18 26 44 L26 623 Q26 648 33.5 657.5 Q41 667 60 667 L258 667 Q277 667 283.5 659.5 Q290 652 290 628 L290 591 Q290 566 283.5 557.5 Q277 549 258 549 L160 549 Q149 549 145.5 545 Q142 541 142 527 L142 434 Q142 420 144.5 416.5 Q147 413 160 413 L210 413 Q227 413 233 406 Q239 399 239 379 L239 328 Q239 309 232.5 302 Q226 295 210 295 L160 295 Q149 295 145.5 292 Q142 289 142 280 L142 140 Q142 127 146 122.5 Q150 118 163 118 L262 118 Q282 118 290 108.5 Q298 99 298 75 L298 43 Q298 20 290 10 Q282 0 264 0 L60 0 Z M99 789 Q114 789 122 779 L151 743 L179 779 Q183 785 188 787 Q193 789 202 789 L258 789 Q267 789 267 781 Q267 776 264 772 L223 708 Q217 699 210.5 695.5 Q204 692 193 692 L108 692 Q97 692 90.5 695.5 Q84 699 78 708 L37 772 Q34 776 34 781 Q34 789 43 789 L99 789 Z " />
<glyph glyph-name="edieresis" unicode="&#xeb;" horiz-adv-x="301" d="M60 0 Q40 0 33 9 Q26 18 26 44 L26 623 Q26 648 33.5 657.5 Q41 667 60 667 L258 667 Q277 667 283.5 659.5 Q290 652 290 628 L290 591 Q290 566 283.5 557.5 Q277 549 258 549 L160 549 Q149 549 145.5 545 Q142 541 142 527 L142 434 Q142 420 144.5 416.5 Q147 413 160 413 L210 413 Q227 413 233 406 Q239 399 239 379 L239 328 Q239 309 232.5 302 Q226 295 210 295 L160 295 Q149 295 145.5 292 Q142 289 142 280 L142 140 Q142 127 146 122.5 Q150 118 163 118 L262 118 Q282 118 290 108.5 Q298 99 298 75 L298 43 Q298 20 290 10 Q282 0 264 0 L60 0 Z M193 692 Q175 692 168.5 698.5 Q162 705 162 723 L162 758 Q162 776 168.5 782.5 Q175 789 193 789 L222 789 Q240 789 246.5 782.5 Q253 776 253 758 L253 723 Q253 705 246.5 698.5 Q240 692 222 692 L193 692 Z M72 692 Q54 692 47.5 698.5 Q41 705 41 723 L41 758 Q41 776 47.5 782.5 Q54 789 72 789 L101 789 Q119 789 125.5 782.5 Q132 776 132 758 L132 723 Q132 705 125.5 698.5 Q119 692 101 692 L72 692 Z " />
<glyph glyph-name="emacron" unicode="&#x113;" horiz-adv-x="301" d="M60 0 Q40 0 33 9 Q26 18 26 44 L26 623 Q26 648 33.5 657.5 Q41 667 60 667 L258 667 Q277 667 283.5 659.5 Q290 652 290 628 L290 591 Q290 566 283.5 557.5 Q277 549 258 549 L160 549 Q149 549 145.5 545 Q142 541 142 527 L142 434 Q142 420 144.5 416.5 Q147 413 160 413 L210 413 Q227 413 233 406 Q239 399 239 379 L239 328 Q239 309 232.5 302 Q226 295 210 295 L160 295 Q149 295 145.5 292 Q142 289 142 280 L142 140 Q142 127 146 122.5 Q150 118 163 118 L262 118 Q282 118 290 108.5 Q298 99 298 75 L298 43 Q298 20 290 10 Q282 0 264 0 L60 0 Z M83 692 Q55 692 46.5 698.5 Q38 705 38 723 L38 748 Q38 766 46.5 772.5 Q55 779 83 779 L218 779 Q246 779 254.5 772.5 Q263 766 263 748 L263 723 Q263 705 254.5 698.5 Q246 692 218 692 L83 692 Z " />
<glyph glyph-name="edotaccent" unicode="&#x117;" horiz-adv-x="301" d="M60 0 Q40 0 33 9 Q26 18 26 44 L26 623 Q26 648 33.5 657.5 Q41 667 60 667 L258 667 Q277 667 283.5 659.5 Q290 652 290 628 L290 591 Q290 566 283.5 557.5 Q277 549 258 549 L160 549 Q149 549 145.5 545 Q142 541 142 527 L142 434 Q142 420 144.5 416.5 Q147 413 160 413 L210 413 Q227 413 233 406 Q239 399 239 379 L239 328 Q239 309 232.5 302 Q226 295 210 295 L160 295 Q149 295 145.5 292 Q142 289 142 280 L142 140 Q142 127 146 122.5 Q150 118 163 118 L262 118 Q282 118 290 108.5 Q298 99 298 75 L298 43 Q298 20 290 10 Q282 0 264 0 L60 0 Z M133 692 Q115 692 108.5 698.5 Q102 705 102 723 L102 758 Q102 776 108.5 782.5 Q115 789 133 789 L168 789 Q186 789 192.5 782.5 Q199 776 199 758 L199 723 Q199 705 192.5 698.5 Q186 692 168 692 L133 692 Z " />
<glyph glyph-name="eogonek" unicode="&#x119;" horiz-adv-x="301" d="M60 0 Q40 0 33 9 Q26 18 26 44 L26 623 Q26 648 33.5 657.5 Q41 667 60 667 L258 667 Q277 667 283.5 659.5 Q290 652 290 628 L290 591 Q290 566 283.5 557.5 Q277 549 258 549 L160 549 Q149 549 145.5 545 Q142 541 142 527 L142 434 Q142 420 144.5 416.5 Q147 413 160 413 L210 413 Q227 413 233 406 Q239 399 239 379 L239 328 Q239 309 232.5 302 Q226 295 210 295 L160 295 Q149 295 145.5 292 Q142 289 142 280 L142 140 Q142 127 146 122.5 Q150 118 163 118 L262 118 Q282 118 290 108.5 Q298 99 298 75 L298 43 Q298 20 290 10 Q282 0 264 0 L60 0 Z M192 -137 Q170 -137 160 -126 Q150 -115 150 -92 L150 -75 Q150 -58 153 -41.5 Q156 -25 163 0 L231 0 Q225 -22 225 -29 Q225 -44 238 -44 L259 -44 Q282 -44 290 -50.5 Q298 -57 298 -75 L298 -97 Q298 -123 291.5 -130 Q285 -137 263 -137 L192 -137 Z " />
<glyph glyph-name="f" unicode="f" horiz-adv-x="287" d="M58 0 Q39 0 32.5 8.5 Q26 17 26 42 L26 621 Q26 649 32.5 658 Q39 667 59 667 L249 667 Q269 667 276.5 657.5 Q284 648 284 624 L284 589 Q284 566 277 557.5 Q270 549 253 549 L161 549 Q149 549 146 544 Q143 539 143 522 L143 431 Q143 420 146 416.5 Q149 413 156 413 L212 413 Q230 413 236 405 Q242 397 242 373 L242 338 Q242 313 235.5 304 Q229 295 211 295 L161 295 Q149 295 146 290.5 Q143 286 143 269 L143 42 Q143 18 137 9 Q131 0 114 0 L58 0 Z " />
<glyph glyph-name="fi" unicode="&#xfb01;" horiz-adv-x="457" d="M58 0 Q39 0 32.5 8.5 Q26 17 26 42 L26 621 Q26 649 32.5 658 Q39 667 59 667 L249 667 Q269 667 276.5 657.5 Q284 648 284 624 L284 589 Q284 566 277 557.5 Q270 549 253 549 L161 549 Q149 549 146 544 Q143 539 143 522 L143 431 Q143 420 146 416.5 Q149 413 156 413 L212 413 Q230 413 236 405 Q242 397 242 373 L242 338 Q242 313 235.5 304 Q229 295 211 295 L161 295 Q149 295 146 290.5 Q143 286 143 269 L143 42 Q143 18 137 9 Q131 0 114 0 L58 0 Z M348 0 Q327 0 320 8.5 Q313 17 313 44 L313 622 Q313 648 320 657.5 Q327 667 346 667 L400 667 Q417 667 424 657.5 Q431 648 431 622 L431 42 Q431 17 424.5 8.5 Q418 0 398 0 L348 0 Z " />
<glyph glyph-name="fl" unicode="&#xfb02;" horiz-adv-x="565" d="M58 0 Q39 0 32.5 8.5 Q26 17 26 42 L26 621 Q26 649 32.5 658 Q39 667 59 667 L249 667 Q269 667 276.5 657.5 Q284 648 284 624 L284 589 Q284 566 277 557.5 Q270 549 253 549 L161 549 Q149 549 146 544 Q143 539 143 522 L143 431 Q143 420 146 416.5 Q149 413 156 413 L212 413 Q230 413 236 405 Q242 397 242 373 L242 338 Q242 313 235.5 304 Q229 295 211 295 L161 295 Q149 295 146 290.5 Q143 286 143 269 L143 42 Q143 18 137 9 Q131 0 114 0 L58 0 Z M346 0 Q326 0 319.5 8.5 Q313 17 313 44 L313 624 Q313 647 320.5 657 Q328 667 346 667 L399 667 Q418 667 424.5 658 Q431 649 431 624 L431 139 Q431 127 435 122.5 Q439 118 447 118 L528 118 Q548 118 555 109 Q562 100 562 76 L562 43 Q562 20 553.5 10 Q545 0 525 0 L346 0 Z " />
<glyph glyph-name="g" unicode="g" horiz-adv-x="356" d="M237 269 Q237 284 234.5 289.5 Q232 295 225 295 L196 295 Q185 295 181.5 301 Q178 307 178 326 L178 372 Q178 397 185.5 405 Q193 413 215 413 L310 413 Q328 413 334.5 403.5 Q341 394 341 369 L341 202 Q341 143 333 104.5 Q325 66 308 42 Q291 18 261.5 6.5 Q232 -5 187 -5 Q129 -5 95.5 11.5 Q62 28 45.5 61.5 Q29 95 23 149 Q17 203 17 328 Q17 457 21 509.5 Q25 562 36.5 596.5 Q48 631 72 649 Q96 667 136 667 L267 667 Q288 667 294.5 658.5 Q301 650 301 625 L301 593 Q301 568 294.5 558.5 Q288 549 270 549 L198 549 Q168 549 158.5 543 Q149 537 144.5 520 Q140 503 138 467.5 Q136 432 136 328 L136 216 Q136 158 148 137 Q160 116 189 116 Q213 116 225 136 Q237 156 237 199 L237 269 Z " />
<glyph glyph-name="gbreve" unicode="&#x11f;" horiz-adv-x="356" d="M237 269 Q237 284 234.5 289.5 Q232 295 225 295 L196 295 Q185 295 181.5 301 Q178 307 178 326 L178 372 Q178 397 185.5 405 Q193 413 215 413 L310 413 Q328 413 334.5 403.5 Q341 394 341 369 L341 202 Q341 143 333 104.5 Q325 66 308 42 Q291 18 261.5 6.5 Q232 -5 187 -5 Q129 -5 95.5 11.5 Q62 28 45.5 61.5 Q29 95 23 149 Q17 203 17 328 Q17 457 21 509.5 Q25 562 36.5 596.5 Q48 631 72 649 Q96 667 136 667 L267 667 Q288 667 294.5 658.5 Q301 650 301 625 L301 593 Q301 568 294.5 558.5 Q288 549 270 549 L198 549 Q168 549 158.5 543 Q149 537 144.5 520 Q140 503 138 467.5 Q136 432 136 328 L136 216 Q136 158 148 137 Q160 116 189 116 Q213 116 225 136 Q237 156 237 199 L237 269 Z M293 788 Q304 788 304 774 Q304 753 298.5 738.5 Q293 724 279.5 713.5 Q266 703 241 697 Q216 691 177 691 Q138 691 113 697 Q88 703 75 713.5 Q62 724 56.5 738.5 Q51 753 51 774 Q51 788 62 788 L125 788 Q138 788 138 776 Q138 756 178 756 Q217 756 217 776 Q217 788 230 788 L293 788 Z " />
<glyph glyph-name="gcommaaccent" unicode="&#x123;" horiz-adv-x="356" d="M237 269 Q237 284 234.5 289.5 Q232 295 225 295 L196 295 Q185 295 181.5 301 Q178 307 178 326 L178 372 Q178 397 185.5 405 Q193 413 215 413 L310 413 Q328 413 334.5 403.5 Q341 394 341 369 L341 202 Q341 143 333 104.5 Q325 66 308 42 Q291 18 261.5 6.5 Q232 -5 187 -5 Q129 -5 95.5 11.5 Q62 28 45.5 61.5 Q29 95 23 149 Q17 203 17 328 Q17 457 21 509.5 Q25 562 36.5 596.5 Q48 631 72 649 Q96 667 136 667 L267 667 Q288 667 294.5 658.5 Q301 650 301 625 L301 593 Q301 568 294.5 558.5 Q288 549 270 549 L198 549 Q168 549 158.5 543 Q149 537 144.5 520 Q140 503 138 467.5 Q136 432 136 328 L136 216 Q136 158 148 137 Q160 116 189 116 Q213 116 225 136 Q237 156 237 199 L237 269 Z M169 -127 Q163 -133 158.5 -135 Q154 -137 144 -137 L89 -137 Q75 -137 75 -126 Q75 -121 77 -117 Q79 -113 84 -105 L124 -43 Q131 -31 136.5 -27.5 Q142 -24 153 -24 L232 -24 Q247 -24 247 -38 Q247 -48 237 -58 L169 -127 Z " />
<glyph glyph-name="h" unicode="h" horiz-adv-x="378" d="M266 0 Q248 0 241.5 9.5 Q235 19 235 43 L235 274 Q235 286 232 290.5 Q229 295 219 295 L159 295 Q149 295 146 290.5 Q143 286 143 274 L143 43 Q143 19 136.5 9.5 Q130 0 112 0 L59 0 Q40 0 33 9.5 Q26 19 26 44 L26 624 Q26 648 33.5 657.5 Q41 667 59 667 L113 667 Q129 667 136 657 Q143 647 143 625 L143 432 Q143 421 146.5 417 Q150 413 158 413 L220 413 Q228 413 231.5 417 Q235 421 235 432 L235 625 Q235 647 242 657 Q249 667 265 667 L319 667 Q337 667 344.5 657.5 Q352 648 352 624 L352 44 Q352 19 345 9.5 Q338 0 319 0 L266 0 Z " />
<glyph glyph-name="i" unicode="i" horiz-adv-x="170" d="M61 0 Q40 0 33 8.5 Q26 17 26 44 L26 622 Q26 648 33 657.5 Q40 667 59 667 L113 667 Q130 667 137 657.5 Q144 648 144 622 L144 42 Q144 17 137.5 8.5 Q131 0 111 0 L61 0 Z " />
<glyph glyph-name="dotlessi" unicode="&#x131;" horiz-adv-x="170" d="M61 0 Q40 0 33 8.5 Q26 17 26 44 L26 622 Q26 648 33 657.5 Q40 667 59 667 L113 667 Q130 667 137 657.5 Q144 648 144 622 L144 42 Q144 17 137.5 8.5 Q131 0 111 0 L61 0 Z M68 692 Q50 692 43.5 698.5 Q37 705 37 723 L37 758 Q37 776 43.5 782.5 Q50 789 68 789 L103 789 Q121 789 127.5 782.5 Q134 776 134 758 L134 723 Q134 705 127.5 698.5 Q121 692 103 692 L68 692 Z " />
<glyph glyph-name="igrave" unicode="&#xec;" horiz-adv-x="170" d="M61 0 Q40 0 33 8.5 Q26 17 26 44 L26 622 Q26 648 33 657.5 Q40 667 59 667 L113 667 Q130 667 137 657.5 Q144 648 144 622 L144 42 Q144 17 137.5 8.5 Q131 0 111 0 L61 0 Z M83 692 Q75 692 71.5 693.5 Q68 695 61 701 L-8 760 Q-18 769 -18 776 Q-18 789 -4 789 L84 789 Q91 789 94.5 786.5 Q98 784 106 773 L151 714 Q156 708 156 701 Q156 692 145 692 L83 692 Z " />
<glyph glyph-name="iacute" unicode="&#xed;" horiz-adv-x="170" d="M61 0 Q40 0 33 8.5 Q26 17 26 44 L26 622 Q26 648 33 657.5 Q40 667 59 667 L113 667 Q130 667 137 657.5 Q144 648 144 622 L144 42 Q144 17 137.5 8.5 Q131 0 111 0 L61 0 Z M101 701 Q94 695 90.5 693.5 Q87 692 79 692 L17 692 Q6 692 6 701 Q6 708 11 714 L56 773 Q64 784 67.5 786.5 Q71 789 78 789 L166 789 Q180 789 180 776 Q180 769 170 760 L101 701 Z " />
<glyph glyph-name="icircumflex" unicode="&#xee;" horiz-adv-x="170" d="M61 0 Q40 0 33 8.5 Q26 17 26 44 L26 622 Q26 648 33 657.5 Q40 667 59 667 L113 667 Q130 667 137 657.5 Q144 648 144 622 L144 42 Q144 17 137.5 8.5 Q131 0 111 0 L61 0 Z M137 692 Q122 692 114 702 L85 738 L57 702 Q49 692 34 692 L-22 692 Q-31 692 -31 700 Q-31 705 -28 709 L13 773 Q19 782 25.5 785.5 Q32 789 43 789 L128 789 Q139 789 145.5 785.5 Q152 782 158 773 L199 709 Q202 705 202 700 Q202 692 193 692 L137 692 Z " />
<glyph glyph-name="idieresis" unicode="&#xef;" horiz-adv-x="170" d="M61 0 Q40 0 33 8.5 Q26 17 26 44 L26 622 Q26 648 33 657.5 Q40 667 59 667 L113 667 Q130 667 137 657.5 Q144 648 144 622 L144 42 Q144 17 137.5 8.5 Q131 0 111 0 L61 0 Z M133 692 Q115 692 108.5 698.5 Q102 705 102 723 L102 758 Q102 776 108.5 782.5 Q115 789 133 789 L162 789 Q180 789 186.5 782.5 Q193 776 193 758 L193 723 Q193 705 186.5 698.5 Q180 692 162 692 L133 692 Z M12 692 Q-6 692 -12.5 698.5 Q-19 705 -19 723 L-19 758 Q-19 776 -12.5 782.5 Q-6 789 12 789 L41 789 Q59 789 65.5 782.5 Q72 776 72 758 L72 723 Q72 705 65.5 698.5 Q59 692 41 692 L12 692 Z " />
<glyph glyph-name="imacron" unicode="&#x12b;" horiz-adv-x="170" d="M61 0 Q40 0 33 8.5 Q26 17 26 44 L26 622 Q26 648 33 657.5 Q40 667 59 667 L113 667 Q130 667 137 657.5 Q144 648 144 622 L144 42 Q144 17 137.5 8.5 Q131 0 111 0 L61 0 Z M18 692 Q-10 692 -18.5 698.5 Q-27 705 -27 723 L-27 748 Q-27 766 -18.5 772.5 Q-10 779 18 779 L153 779 Q181 779 189.5 772.5 Q198 766 198 748 L198 723 Q198 705 189.5 698.5 Q181 692 153 692 L18 692 Z " />
<glyph glyph-name="iogonek" unicode="&#x12f;" horiz-adv-x="170" d="M68 -137 Q46 -137 36 -126 Q26 -115 26 -92 L26 -75 Q26 -64 27 -58 Q28 -52 30 -45 Q32 -38 37.5 -27.5 Q43 -17 53 0 Q37 2 31.5 11 Q26 20 26 44 L26 622 Q26 648 33 657.5 Q40 667 59 667 L113 667 Q130 667 137 657.5 Q144 648 144 622 L144 42 Q144 19 139 10.5 Q134 2 117 0 Q108 -18 105.5 -24.5 Q103 -31 103 -36 Q103 -44 114 -44 L131 -44 Q154 -44 162 -50.5 Q170 -57 170 -75 L170 -97 Q170 -123 163.5 -130 Q157 -137 135 -137 L68 -137 Z " />
<glyph glyph-name="j" unicode="j" horiz-adv-x="230" d="M38 0 Q16 0 9.5 7.5 Q3 15 3 41 L3 78 Q3 102 9 110 Q15 118 35 118 L61 118 Q80 118 86.5 127.5 Q93 137 93 162 L93 625 Q93 651 99.5 659 Q106 667 127 667 L177 667 Q198 667 204.5 659 Q211 651 211 626 L211 171 Q211 84 180 42 Q149 0 87 0 L38 0 Z " />
<glyph glyph-name="k" unicode="k" horiz-adv-x="375" d="M270 0 Q257 0 251.5 6 Q246 12 242 29 L192 266 Q190 276 188 279 Q186 282 182 282 Q180 282 178 281 Q176 280 173 276 Q170 272 165.5 264 Q161 256 153 241 Q148 231 146 219 Q144 207 144 185 L144 42 Q144 17 137.5 8.5 Q131 0 111 0 L61 0 Q40 0 33 8.5 Q26 17 26 44 L26 622 Q26 648 33 657.5 Q40 667 59 667 L113 667 Q130 667 137 657.5 Q144 648 144 622 L144 473 Q144 462 149 462 Q154 462 159 473 L233 629 Q245 654 251 660.5 Q257 667 271 667 L360 667 Q372 667 372 655 Q372 649 369 643 L270 451 Q264 439 264 429 Q264 422 267 411 L368 30 Q373 12 369.5 6 Q366 0 352 0 L270 0 Z " />
<glyph glyph-name="kcommaaccent" unicode="&#x137;" horiz-adv-x="375" d="M270 0 Q257 0 251.5 6 Q246 12 242 29 L192 266 Q190 276 188 279 Q186 282 182 282 Q180 282 178 281 Q176 280 173 276 Q170 272 165.5 264 Q161 256 153 241 Q148 231 146 219 Q144 207 144 185 L144 42 Q144 17 137.5 8.5 Q131 0 111 0 L61 0 Q40 0 33 8.5 Q26 17 26 44 L26 622 Q26 648 33 657.5 Q40 667 59 667 L113 667 Q130 667 137 657.5 Q144 648 144 622 L144 473 Q144 462 149 462 Q154 462 159 473 L233 629 Q245 654 251 660.5 Q257 667 271 667 L360 667 Q372 667 372 655 Q372 649 369 643 L270 451 Q264 439 264 429 Q264 422 267 411 L368 30 Q373 12 369.5 6 Q366 0 352 0 L270 0 Z M169 -127 Q163 -133 158.5 -135 Q154 -137 144 -137 L89 -137 Q75 -137 75 -126 Q75 -121 77 -117 Q79 -113 84 -105 L124 -43 Q131 -31 136.5 -27.5 Q142 -24 153 -24 L232 -24 Q247 -24 247 -38 Q247 -48 237 -58 L169 -127 Z " />
<glyph glyph-name="l" unicode="l" horiz-adv-x="278" d="M59 0 Q39 0 32.5 8.5 Q26 17 26 44 L26 624 Q26 647 33.5 657 Q41 667 59 667 L112 667 Q131 667 137.5 658 Q144 649 144 624 L144 139 Q144 127 148 122.5 Q152 118 160 118 L241 118 Q261 118 268 109 Q275 100 275 76 L275 43 Q275 20 266.5 10 Q258 0 238 0 L59 0 Z " />
<glyph glyph-name="lacute" unicode="&#x13a;" horiz-adv-x="278" d="M59 0 Q39 0 32.5 8.5 Q26 17 26 44 L26 624 Q26 647 33.5 657 Q41 667 59 667 L112 667 Q131 667 137.5 658 Q144 649 144 624 L144 139 Q144 127 148 122.5 Q152 118 160 118 L241 118 Q261 118 268 109 Q275 100 275 76 L275 43 Q275 20 266.5 10 Q258 0 238 0 L59 0 Z M139 701 Q132 695 128.5 693.5 Q125 692 117 692 L55 692 Q44 692 44 701 Q44 708 49 714 L94 773 Q102 784 105.5 786.5 Q109 789 116 789 L204 789 Q218 789 218 776 Q218 769 208 760 L139 701 Z " />
<glyph glyph-name="lcaron" unicode="&#x13e;" horiz-adv-x="278" d="M59 0 Q39 0 32.5 8.5 Q26 17 26 44 L26 624 Q26 647 33.5 657 Q41 667 59 667 L112 667 Q131 667 137.5 658 Q144 649 144 624 L144 139 Q144 127 148 122.5 Q152 118 160 118 L241 118 Q261 118 268 109 Q275 100 275 76 L275 43 Q275 20 266.5 10 Q258 0 238 0 L59 0 Z M188 455 Q178 455 176 458.5 Q174 462 178 474 L198 531 Q201 539 200 544 Q199 549 193 549 L186 549 Q176 549 173 556 Q170 563 170 586 L170 623 Q170 648 177 657.5 Q184 667 203 667 L244 667 Q261 667 268 658 Q275 649 275 626 L275 585 Q275 572 274 565 Q273 558 271 550 L246 474 Q240 455 224 455 L188 455 Z " />
<glyph glyph-name="lcommaaccent" unicode="&#x13c;" horiz-adv-x="278" d="M59 0 Q39 0 32.5 8.5 Q26 17 26 44 L26 624 Q26 647 33.5 657 Q41 667 59 667 L112 667 Q131 667 137.5 658 Q144 649 144 624 L144 139 Q144 127 148 122.5 Q152 118 160 118 L241 118 Q261 118 268 109 Q275 100 275 76 L275 43 Q275 20 266.5 10 Q258 0 238 0 L59 0 Z M139 -127 Q133 -133 128.5 -135 Q124 -137 114 -137 L59 -137 Q45 -137 45 -126 Q45 -121 47 -117 Q49 -113 54 -105 L94 -43 Q101 -31 106.5 -27.5 Q112 -24 123 -24 L202 -24 Q217 -24 217 -38 Q217 -48 207 -58 L139 -127 Z " />
<glyph glyph-name="lslash" unicode="&#x142;" horiz-adv-x="294" d="M75 0 Q55 0 48.5 8.5 Q42 17 42 44 L42 218 L17 185 Q9 175 3 177 Q-3 179 -3 190 L-3 251 Q-3 262 0.5 270 Q4 278 16 293 L42 326 L42 624 Q42 647 49.5 657 Q57 667 75 667 L128 667 Q147 667 153.5 658 Q160 649 160 624 L160 480 L205 539 Q213 549 219 547 Q225 545 225 534 L225 472 Q225 461 221.5 453 Q218 445 206 430 L160 372 L160 139 Q160 127 164 122.5 Q168 118 176 118 L257 118 Q277 118 284 109 Q291 100 291 76 L291 43 Q291 20 282.5 10 Q274 0 254 0 L75 0 Z " />
<glyph glyph-name="m" unicode="m" horiz-adv-x="466" d="M354 0 Q335 0 328.5 8.5 Q322 17 322 42 L322 313 Q322 328 321 332.5 Q320 337 318 337 Q313 337 309 315 L269 117 Q265 99 257.5 93 Q250 87 233 87 Q216 87 208.5 93 Q201 99 197 117 L157 315 Q152 337 148 337 Q146 337 145 332.5 Q144 328 144 313 L144 42 Q144 17 137.5 8.5 Q131 0 112 0 L59 0 Q38 0 32 8 Q26 16 26 43 L26 626 Q26 651 32.5 659 Q39 667 58 667 L113 667 Q137 667 144.5 662 Q152 657 158 636 L225 396 Q228 387 233 387 Q238 387 241 396 L308 636 Q314 657 321.5 662 Q329 667 353 667 L408 667 Q427 667 433.5 659 Q440 651 440 626 L440 43 Q440 16 434 8 Q428 0 407 0 L354 0 Z " />
<glyph glyph-name="n" unicode="n" horiz-adv-x="391" d="M284 0 Q266 0 259 5 Q252 10 245 31 L161 280 Q158 288 155.5 291 Q153 294 150 294 Q147 294 146 290 Q145 286 145 275 L145 44 Q145 20 138 10 Q131 0 114 0 L62 0 Q42 0 34 10 Q26 20 26 45 L26 623 Q26 649 33 658 Q40 667 61 667 L107 667 Q125 667 132 662 Q139 657 146 636 L230 388 Q233 380 235.5 377 Q238 374 241 374 Q244 374 245 378 Q246 382 246 393 L246 623 Q246 647 253 657 Q260 667 277 667 L329 667 Q349 667 357 657 Q365 647 365 622 L365 45 Q365 19 358 9.5 Q351 0 330 0 L284 0 Z " />
<glyph glyph-name="nacute" unicode="&#x144;" horiz-adv-x="391" d="M284 0 Q266 0 259 5 Q252 10 245 31 L161 280 Q158 288 155.5 291 Q153 294 150 294 Q147 294 146 290 Q145 286 145 275 L145 44 Q145 20 138 10 Q131 0 114 0 L62 0 Q42 0 34 10 Q26 20 26 45 L26 623 Q26 649 33 658 Q40 667 61 667 L107 667 Q125 667 132 662 Q139 657 146 636 L230 388 Q233 380 235.5 377 Q238 374 241 374 Q244 374 245 378 Q246 382 246 393 L246 623 Q246 647 253 657 Q260 667 277 667 L329 667 Q349 667 357 657 Q365 647 365 622 L365 45 Q365 19 358 9.5 Q351 0 330 0 L284 0 Z M219 701 Q212 695 208.5 693.5 Q205 692 197 692 L135 692 Q124 692 124 701 Q124 708 129 714 L174 773 Q182 784 185.5 786.5 Q189 789 196 789 L284 789 Q298 789 298 776 Q298 769 288 760 L219 701 Z " />
<glyph glyph-name="ncaron" unicode="&#x148;" horiz-adv-x="391" d="M284 0 Q266 0 259 5 Q252 10 245 31 L161 280 Q158 288 155.5 291 Q153 294 150 294 Q147 294 146 290 Q145 286 145 275 L145 44 Q145 20 138 10 Q131 0 114 0 L62 0 Q42 0 34 10 Q26 20 26 45 L26 623 Q26 649 33 658 Q40 667 61 667 L107 667 Q125 667 132 662 Q139 657 146 636 L230 388 Q233 380 235.5 377 Q238 374 241 374 Q244 374 245 378 Q246 382 246 393 L246 623 Q246 647 253 657 Q260 667 277 667 L329 667 Q349 667 357 657 Q365 647 365 622 L365 45 Q365 19 358 9.5 Q351 0 330 0 L284 0 Z M144 789 Q159 789 167 779 L196 743 L224 779 Q228 785 233 787 Q238 789 247 789 L303 789 Q312 789 312 781 Q312 776 309 772 L268 708 Q262 699 255.5 695.5 Q249 692 238 692 L153 692 Q142 692 135.5 695.5 Q129 699 123 708 L82 772 Q79 776 79 781 Q79 789 88 789 L144 789 Z " />
<glyph glyph-name="ntilde" unicode="&#xf1;" horiz-adv-x="391" d="M284 0 Q266 0 259 5 Q252 10 245 31 L161 280 Q158 288 155.5 291 Q153 294 150 294 Q147 294 146 290 Q145 286 145 275 L145 44 Q145 20 138 10 Q131 0 114 0 L62 0 Q42 0 34 10 Q26 20 26 45 L26 623 Q26 649 33 658 Q40 667 61 667 L107 667 Q125 667 132 662 Q139 657 146 636 L230 388 Q233 380 235.5 377 Q238 374 241 374 Q244 374 245 378 Q246 382 246 393 L246 623 Q246 647 253 657 Q260 667 277 667 L329 667 Q349 667 357 657 Q365 647 365 622 L365 45 Q365 19 358 9.5 Q351 0 330 0 L284 0 Z M236 692 Q231 692 227 693 Q223 694 219 695 L148 716 Q140 719 136 719 Q132 719 132 713 L132 708 Q132 700 127 696 Q122 692 116 692 L91 692 Q76 692 71 698 Q66 704 66 718 L66 761 Q66 773 71 781 Q76 789 91 789 L131 789 Q136 789 140 788 Q144 787 148 786 L219 765 Q226 762 231 762 Q235 762 235 768 L235 773 Q235 781 240 785 Q245 789 251 789 L276 789 Q291 789 296 783 Q301 777 301 763 L301 720 Q301 708 296 700 Q291 692 276 692 L236 692 Z " />
<glyph glyph-name="ncommaaccent" unicode="&#x146;" horiz-adv-x="391" d="M284 0 Q266 0 259 5 Q252 10 245 31 L161 280 Q158 288 155.5 291 Q153 294 150 294 Q147 294 146 290 Q145 286 145 275 L145 44 Q145 20 138 10 Q131 0 114 0 L62 0 Q42 0 34 10 Q26 20 26 45 L26 623 Q26 649 33 658 Q40 667 61 667 L107 667 Q125 667 132 662 Q139 657 146 636 L230 388 Q233 380 235.5 377 Q238 374 241 374 Q244 374 245 378 Q246 382 246 393 L246 623 Q246 647 253 657 Q260 667 277 667 L329 667 Q349 667 357 657 Q365 647 365 622 L365 45 Q365 19 358 9.5 Q351 0 330 0 L284 0 Z M177 -127 Q171 -133 166.5 -135 Q162 -137 152 -137 L97 -137 Q83 -137 83 -126 Q83 -121 85 -117 Q87 -113 92 -105 L132 -43 Q139 -31 144.5 -27.5 Q150 -24 161 -24 L240 -24 Q255 -24 255 -38 Q255 -48 245 -58 L177 -127 Z " />
<glyph glyph-name="o" unicode="o" horiz-adv-x="356" d="M178 -8 Q131 -8 99.5 8.5 Q68 25 50 58 Q32 91 24.5 144.5 Q17 198 17 336 Q17 472 24.5 525 Q32 578 50 610.5 Q68 643 99.5 659 Q131 675 178 675 Q225 675 256 659 Q287 643 305.5 610.5 Q324 578 331.5 525 Q339 472 339 336 Q339 199 331.5 145.5 Q324 92 306 58.5 Q288 25 256.5 8.5 Q225 -8 178 -8 Z M178 119 Q194 119 202.5 127.5 Q211 136 215 154.5 Q219 173 220.5 207 Q222 241 222 336 Q222 429 220.5 462.5 Q219 496 215 514.5 Q211 533 202.5 541 Q194 549 178 549 Q161 549 153 540.5 Q145 532 141 514 Q137 496 135.5 463 Q134 430 134 336 Q134 243 135.5 209 Q137 175 141 156 Q145 137 153.5 128 Q162 119 178 119 Z " />
<glyph glyph-name="ograve" unicode="&#xf2;" horiz-adv-x="356" d="M178 -8 Q131 -8 99.5 8.5 Q68 25 50 58 Q32 91 24.5 144.5 Q17 198 17 336 Q17 472 24.5 525 Q32 578 50 610.5 Q68 643 99.5 659 Q131 675 178 675 Q225 675 256 659 Q287 643 305.5 610.5 Q324 578 331.5 525 Q339 472 339 336 Q339 199 331.5 145.5 Q324 92 306 58.5 Q288 25 256.5 8.5 Q225 -8 178 -8 Z M178 119 Q194 119 202.5 127.5 Q211 136 215 154.5 Q219 173 220.5 207 Q222 241 222 336 Q222 429 220.5 462.5 Q219 496 215 514.5 Q211 533 202.5 541 Q194 549 178 549 Q161 549 153 540.5 Q145 532 141 514 Q137 496 135.5 463 Q134 430 134 336 Q134 243 135.5 209 Q137 175 141 156 Q145 137 153.5 128 Q162 119 178 119 Z M166 692 Q158 692 154.5 693.5 Q151 695 144 701 L75 760 Q65 769 65 776 Q65 789 79 789 L167 789 Q174 789 177.5 786.5 Q181 784 189 773 L234 714 Q239 708 239 701 Q239 692 228 692 L166 692 Z " />
<glyph glyph-name="oacute" unicode="&#xf3;" horiz-adv-x="356" d="M178 -8 Q131 -8 99.5 8.5 Q68 25 50 58 Q32 91 24.5 144.5 Q17 198 17 336 Q17 472 24.5 525 Q32 578 50 610.5 Q68 643 99.5 659 Q131 675 178 675 Q225 675 256 659 Q287 643 305.5 610.5 Q324 578 331.5 525 Q339 472 339 336 Q339 199 331.5 145.5 Q324 92 306 58.5 Q288 25 256.5 8.5 Q225 -8 178 -8 Z M178 119 Q194 119 202.5 127.5 Q211 136 215 154.5 Q219 173 220.5 207 Q222 241 222 336 Q222 429 220.5 462.5 Q219 496 215 514.5 Q211 533 202.5 541 Q194 549 178 549 Q161 549 153 540.5 Q145 532 141 514 Q137 496 135.5 463 Q134 430 134 336 Q134 243 135.5 209 Q137 175 141 156 Q145 137 153.5 128 Q162 119 178 119 Z M199 701 Q192 695 188.5 693.5 Q185 692 177 692 L115 692 Q104 692 104 701 Q104 708 109 714 L154 773 Q162 784 165.5 786.5 Q169 789 176 789 L264 789 Q278 789 278 776 Q278 769 268 760 L199 701 Z " />
<glyph glyph-name="ocircumflex" unicode="&#xf4;" horiz-adv-x="356" d="M178 -8 Q131 -8 99.5 8.5 Q68 25 50 58 Q32 91 24.5 144.5 Q17 198 17 336 Q17 472 24.5 525 Q32 578 50 610.5 Q68 643 99.5 659 Q131 675 178 675 Q225 675 256 659 Q287 643 305.5 610.5 Q324 578 331.5 525 Q339 472 339 336 Q339 199 331.5 145.5 Q324 92 306 58.5 Q288 25 256.5 8.5 Q225 -8 178 -8 Z M178 119 Q194 119 202.5 127.5 Q211 136 215 154.5 Q219 173 220.5 207 Q222 241 222 336 Q222 429 220.5 462.5 Q219 496 215 514.5 Q211 533 202.5 541 Q194 549 178 549 Q161 549 153 540.5 Q145 532 141 514 Q137 496 135.5 463 Q134 430 134 336 Q134 243 135.5 209 Q137 175 141 156 Q145 137 153.5 128 Q162 119 178 119 Z M225 692 Q210 692 202 702 L173 738 L145 702 Q137 692 122 692 L66 692 Q57 692 57 700 Q57 705 60 709 L101 773 Q107 782 113.5 785.5 Q120 789 131 789 L216 789 Q227 789 233.5 785.5 Q240 782 246 773 L287 709 Q290 705 290 700 Q290 692 281 692 L225 692 Z " />
<glyph glyph-name="otilde" unicode="&#xf5;" horiz-adv-x="356" d="M178 -8 Q131 -8 99.5 8.5 Q68 25 50 58 Q32 91 24.5 144.5 Q17 198 17 336 Q17 472 24.5 525 Q32 578 50 610.5 Q68 643 99.5 659 Q131 675 178 675 Q225 675 256 659 Q287 643 305.5 610.5 Q324 578 331.5 525 Q339 472 339 336 Q339 199 331.5 145.5 Q324 92 306 58.5 Q288 25 256.5 8.5 Q225 -8 178 -8 Z M178 119 Q194 119 202.5 127.5 Q211 136 215 154.5 Q219 173 220.5 207 Q222 241 222 336 Q222 429 220.5 462.5 Q219 496 215 514.5 Q211 533 202.5 541 Q194 549 178 549 Q161 549 153 540.5 Q145 532 141 514 Q137 496 135.5 463 Q134 430 134 336 Q134 243 135.5 209 Q137 175 141 156 Q145 137 153.5 128 Q162 119 178 119 Z M226 692 Q221 692 217 693 Q213 694 209 695 L138 716 Q130 719 126 719 Q122 719 122 713 L122 708 Q122 700 117 696 Q112 692 106 692 L81 692 Q66 692 61 698 Q56 704 56 718 L56 761 Q56 773 61 781 Q66 789 81 789 L121 789 Q126 789 130 788 Q134 787 138 786 L209 765 Q216 762 221 762 Q225 762 225 768 L225 773 Q225 781 230 785 Q235 789 241 789 L266 789 Q281 789 286 783 Q291 777 291 763 L291 720 Q291 708 286 700 Q281 692 266 692 L226 692 Z " />
<glyph glyph-name="odieresis" unicode="&#xf6;" horiz-adv-x="356" d="M178 -8 Q131 -8 99.5 8.5 Q68 25 50 58 Q32 91 24.5 144.5 Q17 198 17 336 Q17 472 24.5 525 Q32 578 50 610.5 Q68 643 99.5 659 Q131 675 178 675 Q225 675 256 659 Q287 643 305.5 610.5 Q324 578 331.5 525 Q339 472 339 336 Q339 199 331.5 145.5 Q324 92 306 58.5 Q288 25 256.5 8.5 Q225 -8 178 -8 Z M178 119 Q194 119 202.5 127.5 Q211 136 215 154.5 Q219 173 220.5 207 Q222 241 222 336 Q222 429 220.5 462.5 Q219 496 215 514.5 Q211 533 202.5 541 Q194 549 178 549 Q161 549 153 540.5 Q145 532 141 514 Q137 496 135.5 463 Q134 430 134 336 Q134 243 135.5 209 Q137 175 141 156 Q145 137 153.5 128 Q162 119 178 119 Z M217 692 Q199 692 192.5 698.5 Q186 705 186 723 L186 758 Q186 776 192.5 782.5 Q199 789 217 789 L246 789 Q264 789 270.5 782.5 Q277 776 277 758 L277 723 Q277 705 270.5 698.5 Q264 692 246 692 L217 692 Z M96 692 Q78 692 71.5 698.5 Q65 705 65 723 L65 758 Q65 776 71.5 782.5 Q78 789 96 789 L125 789 Q143 789 149.5 782.5 Q156 776 156 758 L156 723 Q156 705 149.5 698.5 Q143 692 125 692 L96 692 Z " />
<glyph glyph-name="omacron" unicode="&#x14d;" horiz-adv-x="356" d="M178 -8 Q131 -8 99.5 8.5 Q68 25 50 58 Q32 91 24.5 144.5 Q17 198 17 336 Q17 472 24.5 525 Q32 578 50 610.5 Q68 643 99.5 659 Q131 675 178 675 Q225 675 256 659 Q287 643 305.5 610.5 Q324 578 331.5 525 Q339 472 339 336 Q339 199 331.5 145.5 Q324 92 306 58.5 Q288 25 256.5 8.5 Q225 -8 178 -8 Z M178 119 Q194 119 202.5 127.5 Q211 136 215 154.5 Q219 173 220.5 207 Q222 241 222 336 Q222 429 220.5 462.5 Q219 496 215 514.5 Q211 533 202.5 541 Q194 549 178 549 Q161 549 153 540.5 Q145 532 141 514 Q137 496 135.5 463 Q134 430 134 336 Q134 243 135.5 209 Q137 175 141 156 Q145 137 153.5 128 Q162 119 178 119 Z M111 692 Q83 692 74.5 698.5 Q66 705 66 723 L66 748 Q66 766 74.5 772.5 Q83 779 111 779 L246 779 Q274 779 282.5 772.5 Q291 766 291 748 L291 723 Q291 705 282.5 698.5 Q274 692 246 692 L111 692 Z " />
<glyph glyph-name="ohungarumlaut" unicode="&#x151;" horiz-adv-x="356" d="M178 -8 Q131 -8 99.5 8.5 Q68 25 50 58 Q32 91 24.5 144.5 Q17 198 17 336 Q17 472 24.5 525 Q32 578 50 610.5 Q68 643 99.5 659 Q131 675 178 675 Q225 675 256 659 Q287 643 305.5 610.5 Q324 578 331.5 525 Q339 472 339 336 Q339 199 331.5 145.5 Q324 92 306 58.5 Q288 25 256.5 8.5 Q225 -8 178 -8 Z M178 119 Q194 119 202.5 127.5 Q211 136 215 154.5 Q219 173 220.5 207 Q222 241 222 336 Q222 429 220.5 462.5 Q219 496 215 514.5 Q211 533 202.5 541 Q194 549 178 549 Q161 549 153 540.5 Q145 532 141 514 Q137 496 135.5 463 Q134 430 134 336 Q134 243 135.5 209 Q137 175 141 156 Q145 137 153.5 128 Q162 119 178 119 Z M196 692 Q191 692 188 698 Q185 704 191 714 L224 768 Q232 781 234 785 Q236 789 244 789 L301 789 Q309 789 312 783 Q315 777 308 769 L254 707 Q246 698 243 695 Q240 692 233 692 L196 692 Z M94 692 Q88 692 84.5 698 Q81 704 87 714 L121 768 Q129 780 132 784.5 Q135 789 143 789 L198 789 Q206 789 209 782.5 Q212 776 206 769 L151 707 Q143 698 140.5 695 Q138 692 130 692 L94 692 Z " />
<glyph glyph-name="oslash" unicode="&#xf8;" horiz-adv-x="356" d="M14 0 Q0 0 -2 5 Q-4 10 2 24 L35 95 Q25 128 21 175.5 Q17 223 17 336 Q17 470 24 523 Q31 576 49 609 Q67 642 98.5 658.5 Q130 675 178 675 Q215 675 242.5 665 Q270 655 289 634 L298 652 Q303 663 307 665 Q311 667 322 667 L342 667 Q357 667 359.5 663 Q362 659 357 648 L321 572 Q331 540 335 493.5 Q339 447 339 336 Q339 201 331.5 147.5 Q324 94 306.5 60 Q289 26 257.5 9 Q226 -8 178 -8 Q140 -8 112 3 Q84 14 65 36 L56 16 Q48 0 36 0 L14 0 Z M219 485 Q215 522 206.5 535.5 Q198 549 178 549 Q161 549 152.5 540.5 Q144 532 140 513 Q136 494 134.5 459.5 Q133 425 133 336 L133 303 L219 485 Z M223 367 L137 186 Q140 148 149 133.5 Q158 119 178 119 Q194 119 202.5 127.5 Q211 136 215.5 155.5 Q220 175 221.5 210.5 Q223 246 223 336 L223 367 Z " />
<glyph glyph-name="oe" unicode="&#x153;" horiz-adv-x="503" d="M269 0 Q254 0 246 5 Q217 -8 173 -8 Q117 -8 84 14.5 Q51 37 36 77.5 Q21 118 16.5 170.5 Q12 223 12 336 Q12 448 16.5 500 Q21 552 36 591.5 Q51 631 84 653 Q117 675 173 675 Q193 675 211.5 671 Q230 667 246 660 Q253 667 269 667 L458 667 Q477 667 483.5 659.5 Q490 652 490 628 L490 591 Q490 566 483.5 557.5 Q477 549 458 549 L360 549 Q349 549 345.5 545 Q342 541 342 527 L342 434 Q342 420 344.5 416.5 Q347 413 360 413 L410 413 Q427 413 433 406 Q439 399 439 379 L439 328 Q439 309 432.5 302 Q426 295 410 295 L360 295 Q349 295 345.5 292 Q342 289 342 280 L342 140 Q342 127 346 122.5 Q350 118 363 118 L462 118 Q482 118 490 108.5 Q498 99 498 75 L498 43 Q498 20 490 10 Q482 0 464 0 L269 0 Z M173 119 Q190 119 198.5 128.5 Q207 138 211 159 Q215 180 216 215 Q217 250 217 336 Q216 426 215 458.5 Q214 491 210.5 511 Q207 531 198.5 540 Q190 549 173 549 Q156 549 147.5 540 Q139 531 135 510.5 Q131 490 129.5 454.5 Q128 419 128 336 Q128 253 129.5 216.5 Q131 180 135 159 Q139 138 147.5 128.5 Q156 119 173 119 Z " />
<glyph glyph-name="p" unicode="p" horiz-adv-x="347" d="M58 0 Q38 0 32 8 Q26 16 26 43 L26 621 Q26 647 33 657 Q40 667 58 667 L212 667 Q275 667 307.5 613 Q340 559 340 454 Q340 353 311.5 300.5 Q283 248 228 248 L144 248 L144 43 Q144 17 138 8.5 Q132 0 112 0 L58 0 Z M192 366 Q201 366 206 369 Q211 372 214.5 381 Q218 390 220 408 Q222 426 222 455 Q222 485 220 503.5 Q218 522 214 532 Q210 542 204 545.5 Q198 549 189 549 L160 549 Q151 549 147.5 545 Q144 541 144 531 L144 383 Q144 366 159 366 L192 366 Z " />
<glyph glyph-name="thorn" unicode="&#xfe;" horiz-adv-x="343" d="M58 0 Q38 0 32 8 Q26 16 26 43 L26 624 Q26 650 32.5 658.5 Q39 667 59 667 L113 667 Q133 667 138.5 659 Q144 651 144 624 L144 561 L212 561 Q275 561 307.5 507 Q340 453 340 348 Q340 247 311.5 194.5 Q283 142 228 142 L144 142 L144 43 Q144 17 138 8.5 Q132 0 112 0 L58 0 Z M192 260 Q201 260 206 263 Q211 266 214.5 275 Q218 284 220 302 Q222 320 222 349 Q222 379 220 397.5 Q218 416 214 426 Q210 436 204 439.5 Q198 443 189 443 L160 443 Q151 443 147.5 439 Q144 435 144 425 L144 277 Q144 260 159 260 L192 260 Z " />
<glyph glyph-name="q" unicode="q" horiz-adv-x="356" d="M279 -79 Q269 -84 261.5 -80 Q254 -76 243 -62 L200 -7 Q197 -7 189 -7.5 Q181 -8 177 -8 Q130 -8 99 8.5 Q68 25 50 58 Q32 91 24.5 144.5 Q17 198 17 336 Q17 472 24.5 525 Q32 578 50.5 610.5 Q69 643 100 659 Q131 675 178 675 Q225 675 256.5 659 Q288 643 306 610.5 Q324 578 331.5 525 Q339 472 339 336 Q339 250 337 209 Q335 168 329.5 137 Q324 106 315.5 82.5 Q307 59 294 42 L350 -18 Q370 -39 345 -50 L279 -79 Z M178 119 Q194 119 202.5 127.5 Q211 136 215 154.5 Q219 173 220.5 207 Q222 241 222 336 Q222 429 220.5 462.5 Q219 496 215 514.5 Q211 533 202.5 541 Q194 549 178 549 Q161 549 153 540.5 Q145 532 141 514 Q137 496 135.5 463 Q134 430 134 336 Q134 243 135.5 209 Q137 175 141 156 Q145 137 153.5 128 Q162 119 178 119 Z " />
<glyph glyph-name="r" unicode="r" horiz-adv-x="351" d="M249 0 Q235 0 230 5.5 Q225 11 222 29 L181 269 Q179 276 176.5 277 Q174 278 169 278 L155 278 Q144 278 144 269 L144 42 Q144 19 136.5 9.5 Q129 0 111 0 L58 0 Q39 0 32.5 8.5 Q26 17 26 43 L26 622 Q26 648 33 657.5 Q40 667 60 667 L203 667 Q340 667 340 461 Q340 404 327.5 370 Q315 336 286 311 L344 27 Q346 17 346 14 Q346 0 328 0 L249 0 Z M187 396 Q205 396 214 414.5 Q223 433 223 476 Q223 519 214 534 Q205 549 189 549 L157 549 Q144 549 144 535 L144 414 Q144 396 154 396 L187 396 Z " />
<glyph glyph-name="racute" unicode="&#x155;" horiz-adv-x="351" d="M249 0 Q235 0 230 5.5 Q225 11 222 29 L181 269 Q179 276 176.5 277 Q174 278 169 278 L155 278 Q144 278 144 269 L144 42 Q144 19 136.5 9.5 Q129 0 111 0 L58 0 Q39 0 32.5 8.5 Q26 17 26 43 L26 622 Q26 648 33 657.5 Q40 667 60 667 L203 667 Q340 667 340 461 Q340 404 327.5 370 Q315 336 286 311 L344 27 Q346 17 346 14 Q346 0 328 0 L249 0 Z M187 396 Q205 396 214 414.5 Q223 433 223 476 Q223 519 214 534 Q205 549 189 549 L157 549 Q144 549 144 535 L144 414 Q144 396 154 396 L187 396 Z M197 701 Q190 695 186.5 693.5 Q183 692 175 692 L113 692 Q102 692 102 701 Q102 708 107 714 L152 773 Q160 784 163.5 786.5 Q167 789 174 789 L262 789 Q276 789 276 776 Q276 769 266 760 L197 701 Z " />
<glyph glyph-name="rcaron" unicode="&#x159;" horiz-adv-x="351" d="M249 0 Q235 0 230 5.5 Q225 11 222 29 L181 269 Q179 276 176.5 277 Q174 278 169 278 L155 278 Q144 278 144 269 L144 42 Q144 19 136.5 9.5 Q129 0 111 0 L58 0 Q39 0 32.5 8.5 Q26 17 26 43 L26 622 Q26 648 33 657.5 Q40 667 60 667 L203 667 Q340 667 340 461 Q340 404 327.5 370 Q315 336 286 311 L344 27 Q346 17 346 14 Q346 0 328 0 L249 0 Z M187 396 Q205 396 214 414.5 Q223 433 223 476 Q223 519 214 534 Q205 549 189 549 L157 549 Q144 549 144 535 L144 414 Q144 396 154 396 L187 396 Z M124 789 Q139 789 147 779 L176 743 L204 779 Q208 785 213 787 Q218 789 227 789 L283 789 Q292 789 292 781 Q292 776 289 772 L248 708 Q242 699 235.5 695.5 Q229 692 218 692 L133 692 Q122 692 115.5 695.5 Q109 699 103 708 L62 772 Q59 776 59 781 Q59 789 68 789 L124 789 Z " />
<glyph glyph-name="rcommaaccent" unicode="&#x157;" horiz-adv-x="351" d="M249 0 Q235 0 230 5.5 Q225 11 222 29 L181 269 Q179 276 176.5 277 Q174 278 169 278 L155 278 Q144 278 144 269 L144 42 Q144 19 136.5 9.5 Q129 0 111 0 L58 0 Q39 0 32.5 8.5 Q26 17 26 43 L26 622 Q26 648 33 657.5 Q40 667 60 667 L203 667 Q340 667 340 461 Q340 404 327.5 370 Q315 336 286 311 L344 27 Q346 17 346 14 Q346 0 328 0 L249 0 Z M187 396 Q205 396 214 414.5 Q223 433 223 476 Q223 519 214 534 Q205 549 189 549 L157 549 Q144 549 144 535 L144 414 Q144 396 154 396 L187 396 Z M164 -127 Q158 -133 153.5 -135 Q149 -137 139 -137 L84 -137 Q70 -137 70 -126 Q70 -121 72 -117 Q74 -113 79 -105 L119 -43 Q126 -31 131.5 -27.5 Q137 -24 148 -24 L227 -24 Q242 -24 242 -38 Q242 -48 232 -58 L164 -127 Z " />
<glyph glyph-name="s" unicode="s" horiz-adv-x="302" d="M41 0 Q21 0 14.5 8 Q8 16 8 41 L8 76 Q8 102 14 110 Q20 118 40 118 L143 118 Q156 118 163 125 Q170 132 170 144 Q170 156 164 167 L51 380 Q37 406 28 427.5 Q19 449 14 468 Q9 487 7 505.5 Q5 524 5 546 Q5 611 34 639 Q63 667 129 667 L243 667 Q258 667 264.5 659 Q271 651 271 631 L271 587 Q271 566 264 557.5 Q257 549 240 549 L151 549 Q136 549 128 541 Q120 533 120 520 Q120 505 129 490 L236 293 Q255 257 267 230.5 Q279 204 285.5 184 Q292 164 294.5 146.5 Q297 129 297 107 Q297 52 270 26 Q243 0 190 0 L41 0 Z " />
<glyph glyph-name="sacute" unicode="&#x15b;" horiz-adv-x="302" d="M41 0 Q21 0 14.5 8 Q8 16 8 41 L8 76 Q8 102 14 110 Q20 118 40 118 L143 118 Q156 118 163 125 Q170 132 170 144 Q170 156 164 167 L51 380 Q37 406 28 427.5 Q19 449 14 468 Q9 487 7 505.5 Q5 524 5 546 Q5 611 34 639 Q63 667 129 667 L243 667 Q258 667 264.5 659 Q271 651 271 631 L271 587 Q271 566 264 557.5 Q257 549 240 549 L151 549 Q136 549 128 541 Q120 533 120 520 Q120 505 129 490 L236 293 Q255 257 267 230.5 Q279 204 285.5 184 Q292 164 294.5 146.5 Q297 129 297 107 Q297 52 270 26 Q243 0 190 0 L41 0 Z M177 701 Q170 695 166.5 693.5 Q163 692 155 692 L93 692 Q82 692 82 701 Q82 708 87 714 L132 773 Q140 784 143.5 786.5 Q147 789 154 789 L242 789 Q256 789 256 776 Q256 769 246 760 L177 701 Z " />
<glyph glyph-name="scaron" unicode="&#x161;" horiz-adv-x="302" d="M41 0 Q21 0 14.5 8 Q8 16 8 41 L8 76 Q8 102 14 110 Q20 118 40 118 L143 118 Q156 118 163 125 Q170 132 170 144 Q170 156 164 167 L51 380 Q37 406 28 427.5 Q19 449 14 468 Q9 487 7 505.5 Q5 524 5 546 Q5 611 34 639 Q63 667 129 667 L243 667 Q258 667 264.5 659 Q271 651 271 631 L271 587 Q271 566 264 557.5 Q257 549 240 549 L151 549 Q136 549 128 541 Q120 533 120 520 Q120 505 129 490 L236 293 Q255 257 267 230.5 Q279 204 285.5 184 Q292 164 294.5 146.5 Q297 129 297 107 Q297 52 270 26 Q243 0 190 0 L41 0 Z M96 789 Q111 789 119 779 L148 743 L176 779 Q180 785 185 787 Q190 789 199 789 L255 789 Q264 789 264 781 Q264 776 261 772 L220 708 Q214 699 207.5 695.5 Q201 692 190 692 L105 692 Q94 692 87.5 695.5 Q81 699 75 708 L34 772 Q31 776 31 781 Q31 789 40 789 L96 789 Z " />
<glyph glyph-name="scedilla" unicode="&#x15f;" horiz-adv-x="302" d="M41 0 Q21 0 14.5 8 Q8 16 8 41 L8 76 Q8 102 14 110 Q20 118 40 118 L143 118 Q156 118 163 125 Q170 132 170 144 Q170 156 164 167 L51 380 Q37 406 28 427.5 Q19 449 14 468 Q9 487 7 505.5 Q5 524 5 546 Q5 611 34 639 Q63 667 129 667 L243 667 Q258 667 264.5 659 Q271 651 271 631 L271 587 Q271 566 264 557.5 Q257 549 240 549 L151 549 Q136 549 128 541 Q120 533 120 520 Q120 505 129 490 L236 293 Q255 257 267 230.5 Q279 204 285.5 184 Q292 164 294.5 146.5 Q297 129 297 107 Q297 52 270 26 Q243 0 190 0 L41 0 Z M90 -137 Q68 -137 61.5 -130 Q55 -123 55 -97 L55 -75 Q55 -57 63 -50.5 Q71 -44 94 -44 L115 -44 Q128 -44 128 -29 Q128 -22 122 0 L190 0 Q197 -23 200 -39.5 Q203 -56 203 -75 L203 -92 Q203 -115 193 -126 Q183 -137 161 -137 L90 -137 Z " />
<glyph glyph-name="scommaaccent" unicode="&#x219;" horiz-adv-x="302" d="M41 0 Q21 0 14.5 8 Q8 16 8 41 L8 76 Q8 102 14 110 Q20 118 40 118 L143 118 Q156 118 163 125 Q170 132 170 144 Q170 156 164 167 L51 380 Q37 406 28 427.5 Q19 449 14 468 Q9 487 7 505.5 Q5 524 5 546 Q5 611 34 639 Q63 667 129 667 L243 667 Q258 667 264.5 659 Q271 651 271 631 L271 587 Q271 566 264 557.5 Q257 549 240 549 L151 549 Q136 549 128 541 Q120 533 120 520 Q120 505 129 490 L236 293 Q255 257 267 230.5 Q279 204 285.5 184 Q292 164 294.5 146.5 Q297 129 297 107 Q297 52 270 26 Q243 0 190 0 L41 0 Z M139 -127 Q133 -133 128.5 -135 Q124 -137 114 -137 L59 -137 Q45 -137 45 -126 Q45 -121 47 -117 Q49 -113 54 -105 L94 -43 Q101 -31 106.5 -27.5 Q112 -24 123 -24 L202 -24 Q217 -24 217 -38 Q217 -48 207 -58 L139 -127 Z " />
<glyph glyph-name="germandbls" unicode="&#xdf;" horiz-adv-x="382" d="M188 0 Q177 0 173.5 4 Q170 8 170 20 L170 93 Q170 106 174 112 Q178 118 188 118 L205 118 Q235 118 244.5 135 Q254 152 254 201 Q254 228 251 244.5 Q248 261 242.5 270 Q237 279 228.5 282.5 Q220 286 206 286 L200 286 Q189 286 186 289.5 Q183 293 183 305 L183 379 Q183 392 186.5 398 Q190 404 200 404 L205 404 Q230 404 239 418.5 Q248 433 248 476 Q248 515 239 532 Q230 549 206 549 L160 549 Q149 549 146 545 Q143 541 143 529 L143 45 Q143 19 137 9.5 Q131 0 112 0 L58 0 Q39 0 32.5 9.5 Q26 19 26 45 L26 624 Q26 648 33 657.5 Q40 667 58 667 L266 667 Q295 667 314 656 Q333 645 344.5 624 Q356 603 360.5 573 Q365 543 365 499 Q365 436 352.5 400.5 Q340 365 311 348 Q342 336 358 293 Q374 250 374 180 Q374 135 368 102 Q362 69 349 46.5 Q336 24 315.5 12 Q295 0 266 0 L188 0 Z " />
<glyph glyph-name="t" unicode="t" horiz-adv-x="315" d="M132 0 Q112 0 105 8.5 Q98 17 98 41 L98 529 Q98 543 94.5 546 Q91 549 85 549 L33 549 Q15 549 9 556.5 Q3 564 3 589 L3 623 Q3 649 9.5 658 Q16 667 36 667 L280 667 Q298 667 305 658.5 Q312 650 312 627 L312 590 Q312 566 305.5 557.5 Q299 549 281 549 L229 549 Q221 549 218.5 545 Q216 541 216 529 L216 44 Q216 18 210 9 Q204 0 184 0 L132 0 Z " />
<glyph glyph-name="tcaron" unicode="&#x165;" horiz-adv-x="315" d="M132 0 Q112 0 105 8.5 Q98 17 98 41 L98 529 Q98 543 94.5 546 Q91 549 85 549 L33 549 Q15 549 9 556.5 Q3 564 3 589 L3 623 Q3 649 9.5 658 Q16 667 36 667 L280 667 Q298 667 305 658.5 Q312 650 312 627 L312 590 Q312 566 305.5 557.5 Q299 549 281 549 L229 549 Q221 549 218.5 545 Q216 541 216 529 L216 44 Q216 18 210 9 Q204 0 184 0 L132 0 Z M106 789 Q121 789 129 779 L158 743 L186 779 Q190 785 195 787 Q200 789 209 789 L265 789 Q274 789 274 781 Q274 776 271 772 L230 708 Q224 699 217.5 695.5 Q211 692 200 692 L115 692 Q104 692 97.5 695.5 Q91 699 85 708 L44 772 Q41 776 41 781 Q41 789 50 789 L106 789 Z " />
<glyph glyph-name="&amp;#x163;" unicode="&#x163;" horiz-adv-x="315" d="M132 0 Q112 0 105 8.5 Q98 17 98 41 L98 529 Q98 543 94.5 546 Q91 549 85 549 L33 549 Q15 549 9 556.5 Q3 564 3 589 L3 623 Q3 649 9.5 658 Q16 667 36 667 L280 667 Q298 667 305 658.5 Q312 650 312 627 L312 590 Q312 566 305.5 557.5 Q299 549 281 549 L229 549 Q221 549 218.5 545 Q216 541 216 529 L216 44 Q216 18 210 9 Q204 0 184 0 L132 0 Z M139 -127 Q133 -133 128.5 -135 Q124 -137 114 -137 L59 -137 Q45 -137 45 -126 Q45 -121 47 -117 Q49 -113 54 -105 L94 -43 Q101 -31 106.5 -27.5 Q112 -24 123 -24 L202 -24 Q217 -24 217 -38 Q217 -48 207 -58 L139 -127 Z " />
<glyph glyph-name="&amp;#x21b;" unicode="&#x21b;" horiz-adv-x="315" d="M132 0 Q112 0 105 8.5 Q98 17 98 41 L98 529 Q98 543 94.5 546 Q91 549 85 549 L33 549 Q15 549 9 556.5 Q3 564 3 589 L3 623 Q3 649 9.5 658 Q16 667 36 667 L280 667 Q298 667 305 658.5 Q312 650 312 627 L312 590 Q312 566 305.5 557.5 Q299 549 281 549 L229 549 Q221 549 218.5 545 Q216 541 216 529 L216 44 Q216 18 210 9 Q204 0 184 0 L132 0 Z M139 -127 Q133 -133 128.5 -135 Q124 -137 114 -137 L59 -137 Q45 -137 45 -126 Q45 -121 47 -117 Q49 -113 54 -105 L94 -43 Q101 -31 106.5 -27.5 Q112 -24 123 -24 L202 -24 Q217 -24 217 -38 Q217 -48 207 -58 L139 -127 Z " />
<glyph glyph-name="u" unicode="u" horiz-adv-x="362" d="M224 626 Q224 651 230.5 659 Q237 667 256 667 L311 667 Q330 667 336 659 Q342 651 342 626 L342 191 Q342 141 335 106.5 Q328 72 310.5 46 Q293 20 260.5 6 Q228 -8 179 -8 Q131 -8 100 4.5 Q69 17 51.5 40.5 Q34 64 27 99 Q20 134 20 186 L20 623 Q20 649 27.5 658 Q35 667 55 667 L108 667 Q126 667 132 658.5 Q138 650 138 626 L138 171 Q138 143 148 131 Q158 119 182 119 Q204 119 214 131 Q224 143 224 172 L224 626 Z " />
<glyph glyph-name="ugrave" unicode="&#xf9;" horiz-adv-x="362" d="M224 626 Q224 651 230.5 659 Q237 667 256 667 L311 667 Q330 667 336 659 Q342 651 342 626 L342 191 Q342 141 335 106.5 Q328 72 310.5 46 Q293 20 260.5 6 Q228 -8 179 -8 Q131 -8 100 4.5 Q69 17 51.5 40.5 Q34 64 27 99 Q20 134 20 186 L20 623 Q20 649 27.5 658 Q35 667 55 667 L108 667 Q126 667 132 658.5 Q138 650 138 626 L138 171 Q138 143 148 131 Q158 119 182 119 Q204 119 214 131 Q224 143 224 172 L224 626 Z M163 692 Q155 692 151.5 693.5 Q148 695 141 701 L72 760 Q62 769 62 776 Q62 789 76 789 L164 789 Q171 789 174.5 786.5 Q178 784 186 773 L231 714 Q236 708 236 701 Q236 692 225 692 L163 692 Z " />
<glyph glyph-name="uacute" unicode="&#xfa;" horiz-adv-x="362" d="M224 626 Q224 651 230.5 659 Q237 667 256 667 L311 667 Q330 667 336 659 Q342 651 342 626 L342 191 Q342 141 335 106.5 Q328 72 310.5 46 Q293 20 260.5 6 Q228 -8 179 -8 Q131 -8 100 4.5 Q69 17 51.5 40.5 Q34 64 27 99 Q20 134 20 186 L20 623 Q20 649 27.5 658 Q35 667 55 667 L108 667 Q126 667 132 658.5 Q138 650 138 626 L138 171 Q138 143 148 131 Q158 119 182 119 Q204 119 214 131 Q224 143 224 172 L224 626 Z M202 701 Q195 695 191.5 693.5 Q188 692 180 692 L118 692 Q107 692 107 701 Q107 708 112 714 L157 773 Q165 784 168.5 786.5 Q172 789 179 789 L267 789 Q281 789 281 776 Q281 769 271 760 L202 701 Z " />
<glyph glyph-name="ucircumflex" unicode="&#xfb;" horiz-adv-x="362" d="M224 626 Q224 651 230.5 659 Q237 667 256 667 L311 667 Q330 667 336 659 Q342 651 342 626 L342 191 Q342 141 335 106.5 Q328 72 310.5 46 Q293 20 260.5 6 Q228 -8 179 -8 Q131 -8 100 4.5 Q69 17 51.5 40.5 Q34 64 27 99 Q20 134 20 186 L20 623 Q20 649 27.5 658 Q35 667 55 667 L108 667 Q126 667 132 658.5 Q138 650 138 626 L138 171 Q138 143 148 131 Q158 119 182 119 Q204 119 214 131 Q224 143 224 172 L224 626 Z M227 692 Q212 692 204 702 L175 738 L147 702 Q139 692 124 692 L68 692 Q59 692 59 700 Q59 705 62 709 L103 773 Q109 782 115.5 785.5 Q122 789 133 789 L218 789 Q229 789 235.5 785.5 Q242 782 248 773 L289 709 Q292 705 292 700 Q292 692 283 692 L227 692 Z " />
<glyph glyph-name="udieresis" unicode="&#xfc;" horiz-adv-x="362" d="M224 626 Q224 651 230.5 659 Q237 667 256 667 L311 667 Q330 667 336 659 Q342 651 342 626 L342 191 Q342 141 335 106.5 Q328 72 310.5 46 Q293 20 260.5 6 Q228 -8 179 -8 Q131 -8 100 4.5 Q69 17 51.5 40.5 Q34 64 27 99 Q20 134 20 186 L20 623 Q20 649 27.5 658 Q35 667 55 667 L108 667 Q126 667 132 658.5 Q138 650 138 626 L138 171 Q138 143 148 131 Q158 119 182 119 Q204 119 214 131 Q224 143 224 172 L224 626 Z M219 692 Q201 692 194.5 698.5 Q188 705 188 723 L188 758 Q188 776 194.5 782.5 Q201 789 219 789 L248 789 Q266 789 272.5 782.5 Q279 776 279 758 L279 723 Q279 705 272.5 698.5 Q266 692 248 692 L219 692 Z M98 692 Q80 692 73.5 698.5 Q67 705 67 723 L67 758 Q67 776 73.5 782.5 Q80 789 98 789 L127 789 Q145 789 151.5 782.5 Q158 776 158 758 L158 723 Q158 705 151.5 698.5 Q145 692 127 692 L98 692 Z " />
<glyph glyph-name="umacron" unicode="&#x16b;" horiz-adv-x="362" d="M224 626 Q224 651 230.5 659 Q237 667 256 667 L311 667 Q330 667 336 659 Q342 651 342 626 L342 191 Q342 141 335 106.5 Q328 72 310.5 46 Q293 20 260.5 6 Q228 -8 179 -8 Q131 -8 100 4.5 Q69 17 51.5 40.5 Q34 64 27 99 Q20 134 20 186 L20 623 Q20 649 27.5 658 Q35 667 55 667 L108 667 Q126 667 132 658.5 Q138 650 138 626 L138 171 Q138 143 148 131 Q158 119 182 119 Q204 119 214 131 Q224 143 224 172 L224 626 Z M114 692 Q86 692 77.5 698.5 Q69 705 69 723 L69 748 Q69 766 77.5 772.5 Q86 779 114 779 L249 779 Q277 779 285.5 772.5 Q294 766 294 748 L294 723 Q294 705 285.5 698.5 Q277 692 249 692 L114 692 Z " />
<glyph glyph-name="uring" unicode="&#x16f;" horiz-adv-x="362" d="M224 626 Q224 651 230.5 659 Q237 667 256 667 L311 667 Q330 667 336 659 Q342 651 342 626 L342 191 Q342 141 335 106.5 Q328 72 310.5 46 Q293 20 260.5 6 Q228 -8 179 -8 Q131 -8 100 4.5 Q69 17 51.5 40.5 Q34 64 27 99 Q20 134 20 186 L20 623 Q20 649 27.5 658 Q35 667 55 667 L108 667 Q126 667 132 658.5 Q138 650 138 626 L138 171 Q138 143 148 131 Q158 119 182 119 Q204 119 214 131 Q224 143 224 172 L224 626 Z M265 745 Q265 719 261.5 707.5 Q258 696 249 688.5 Q240 681 223.5 677 Q207 673 181 673 Q155 673 138.5 677 Q122 681 113 688.5 Q104 696 100.5 707.5 Q97 719 97 745 Q97 771 100.5 782.5 Q104 794 113 801.5 Q122 809 138.5 813 Q155 817 181 817 Q207 817 223.5 813 Q240 809 249 801.5 Q258 794 261.5 782.5 Q265 771 265 745 Z M205 745 Q205 759 200 764 Q195 769 181 769 Q167 769 162 764 Q157 759 157 745 Q157 731 162 726 Q167 721 181 721 Q195 721 200 726 Q205 731 205 745 Z " />
<glyph glyph-name="uhungarumlaut" unicode="&#x171;" horiz-adv-x="362" d="M224 626 Q224 651 230.5 659 Q237 667 256 667 L311 667 Q330 667 336 659 Q342 651 342 626 L342 191 Q342 141 335 106.5 Q328 72 310.5 46 Q293 20 260.5 6 Q228 -8 179 -8 Q131 -8 100 4.5 Q69 17 51.5 40.5 Q34 64 27 99 Q20 134 20 186 L20 623 Q20 649 27.5 658 Q35 667 55 667 L108 667 Q126 667 132 658.5 Q138 650 138 626 L138 171 Q138 143 148 131 Q158 119 182 119 Q204 119 214 131 Q224 143 224 172 L224 626 Z M196 692 Q191 692 188 698 Q185 704 191 714 L224 768 Q232 781 234 785 Q236 789 244 789 L301 789 Q309 789 312 783 Q315 777 308 769 L254 707 Q246 698 243 695 Q240 692 233 692 L196 692 Z M94 692 Q88 692 84.5 698 Q81 704 87 714 L121 768 Q129 780 132 784.5 Q135 789 143 789 L198 789 Q206 789 209 782.5 Q212 776 206 769 L151 707 Q143 698 140.5 695 Q138 692 130 692 L94 692 Z " />
<glyph glyph-name="uogonek" unicode="&#x173;" horiz-adv-x="362" d="M206 -137 Q184 -137 174 -126 Q164 -115 164 -92 L164 -75 Q164 -51 169 -35 Q174 -19 185 -8 L179 -8 Q131 -8 100 4.5 Q69 17 51.5 40.5 Q34 64 27 99 Q20 134 20 186 L20 623 Q20 649 27.5 658 Q35 667 55 667 L108 667 Q126 667 132 658.5 Q138 650 138 626 L138 171 Q138 143 148 131 Q158 119 182 119 Q204 119 214 131 Q224 143 224 172 L224 626 Q224 651 230.5 659 Q237 667 256 667 L311 667 Q330 667 336 659 Q342 651 342 626 L342 191 Q342 130 331.5 92 Q321 54 298 31 Q287 20 270 10.5 Q253 1 248 -4 Q244 -8 241.5 -15 Q239 -22 239 -29 Q239 -44 252 -44 L273 -44 Q296 -44 304 -50.5 Q312 -57 312 -75 L312 -97 Q312 -123 305.5 -130 Q299 -137 277 -137 L206 -137 Z " />
<glyph glyph-name="v" unicode="v" horiz-adv-x="364" d="M129 0 Q116 0 110 6 Q104 12 102 27 L3 640 Q1 655 4 661 Q7 667 21 667 L98 667 Q110 667 116 662 Q122 657 125 635 L173 255 Q174 240 182 240 Q189 240 191 255 L239 635 Q242 657 248 662 Q254 667 266 667 L343 667 Q357 667 360 661 Q363 655 361 640 L262 27 Q260 12 254 6 Q248 0 235 0 L129 0 Z " />
<glyph glyph-name="w" unicode="w" horiz-adv-x="553" d="M338 0 Q323 0 317.5 5.5 Q312 11 310 30 L282 253 Q282 257 281 261 Q280 265 277 265 Q274 265 272.5 261.5 Q271 258 270 254 L215 20 Q211 0 188 0 L123 0 Q110 0 105 5 Q100 10 98 25 L4 630 Q0 656 8 661.5 Q16 667 29 667 L97 667 Q109 667 114 661 Q119 655 121 638 L168 313 Q170 305 172 302.5 Q174 300 177 300 Q180 300 181.5 302.5 Q183 305 185 313 L230 505 L216 631 Q214 649 219 658 Q224 667 241 667 L311 667 Q324 667 329 661 Q334 655 336 638 L375 314 Q376 300 383 300 Q390 300 391 314 L431 641 Q434 667 454 667 L527 667 Q541 667 546.5 660 Q552 653 548 631 L444 29 Q441 13 435 6.5 Q429 0 416 0 L338 0 Z " />
<glyph glyph-name="x" unicode="x" horiz-adv-x="342" d="M243 0 Q220 0 216 25 L180 232 Q177 244 171 244 Q165 244 162 232 L126 25 Q122 0 99 0 L21 0 Q7 0 3.5 8.5 Q0 17 5 37 L71 346 L5 631 Q0 651 5.5 659 Q11 667 25 667 L101 667 Q121 667 127 640 L163 452 Q165 444 166 441.5 Q167 439 171 439 Q175 439 176 441.5 Q177 444 179 452 L215 640 Q221 667 241 667 L317 667 Q331 667 336.5 659 Q342 651 337 631 L270 346 L337 37 Q342 17 338.5 8.5 Q335 0 321 0 L243 0 Z " />
<glyph glyph-name="y" unicode="y" horiz-adv-x="344" d="M146 0 Q126 0 119.5 8.5 Q113 17 113 43 L113 255 L3 632 Q-2 647 2.5 657 Q7 667 21 667 L88 667 Q100 667 105.5 662 Q111 657 114 643 L165 426 Q167 415 172 415 Q177 415 179 426 L230 643 Q233 657 238.5 662 Q244 667 256 667 L323 667 Q337 667 341.5 657 Q346 647 341 632 L231 255 L231 43 Q231 17 224.5 8.5 Q218 0 198 0 L146 0 Z " />
<glyph glyph-name="yacute" unicode="&#xfd;" horiz-adv-x="344" d="M146 0 Q126 0 119.5 8.5 Q113 17 113 43 L113 255 L3 632 Q-2 647 2.5 657 Q7 667 21 667 L88 667 Q100 667 105.5 662 Q111 657 114 643 L165 426 Q167 415 172 415 Q177 415 179 426 L230 643 Q233 657 238.5 662 Q244 667 256 667 L323 667 Q337 667 341.5 657 Q346 647 341 632 L231 255 L231 43 Q231 17 224.5 8.5 Q218 0 198 0 L146 0 Z M197 701 Q190 695 186.5 693.5 Q183 692 175 692 L113 692 Q102 692 102 701 Q102 708 107 714 L152 773 Q160 784 163.5 786.5 Q167 789 174 789 L262 789 Q276 789 276 776 Q276 769 266 760 L197 701 Z " />
<glyph glyph-name="ydieresis" unicode="&#xff;" horiz-adv-x="344" d="M146 0 Q126 0 119.5 8.5 Q113 17 113 43 L113 255 L3 632 Q-2 647 2.5 657 Q7 667 21 667 L88 667 Q100 667 105.5 662 Q111 657 114 643 L165 426 Q167 415 172 415 Q177 415 179 426 L230 643 Q233 657 238.5 662 Q244 667 256 667 L323 667 Q337 667 341.5 657 Q346 647 341 632 L231 255 L231 43 Q231 17 224.5 8.5 Q218 0 198 0 L146 0 Z M221 692 Q203 692 196.5 698.5 Q190 705 190 723 L190 758 Q190 776 196.5 782.5 Q203 789 221 789 L250 789 Q268 789 274.5 782.5 Q281 776 281 758 L281 723 Q281 705 274.5 698.5 Q268 692 250 692 L221 692 Z M100 692 Q82 692 75.5 698.5 Q69 705 69 723 L69 758 Q69 776 75.5 782.5 Q82 789 100 789 L129 789 Q147 789 153.5 782.5 Q160 776 160 758 L160 723 Q160 705 153.5 698.5 Q147 692 129 692 L100 692 Z " />
<glyph glyph-name="z" unicode="z" horiz-adv-x="311" d="M40 0 Q20 0 14 8 Q8 16 8 40 L8 118 Q8 137 11 150 Q14 163 24 184 L183 531 Q187 539 185 544 Q183 549 175 549 L50 549 Q28 549 22.5 556 Q17 563 17 590 L17 625 Q17 651 23 659 Q29 667 49 667 L272 667 Q302 667 302 628 L302 549 Q302 535 299 522.5 Q296 510 288 493 L129 142 Q124 132 126 125 Q128 118 138 118 L271 118 Q290 118 296.5 109.5 Q303 101 303 75 L303 41 Q303 17 295.5 8.5 Q288 0 267 0 L40 0 Z " />
<glyph glyph-name="zacute" unicode="&#x17a;" horiz-adv-x="311" d="M40 0 Q20 0 14 8 Q8 16 8 40 L8 118 Q8 137 11 150 Q14 163 24 184 L183 531 Q187 539 185 544 Q183 549 175 549 L50 549 Q28 549 22.5 556 Q17 563 17 590 L17 625 Q17 651 23 659 Q29 667 49 667 L272 667 Q302 667 302 628 L302 549 Q302 535 299 522.5 Q296 510 288 493 L129 142 Q124 132 126 125 Q128 118 138 118 L271 118 Q290 118 296.5 109.5 Q303 101 303 75 L303 41 Q303 17 295.5 8.5 Q288 0 267 0 L40 0 Z M181 701 Q174 695 170.5 693.5 Q167 692 159 692 L97 692 Q86 692 86 701 Q86 708 91 714 L136 773 Q144 784 147.5 786.5 Q151 789 158 789 L246 789 Q260 789 260 776 Q260 769 250 760 L181 701 Z " />
<glyph glyph-name="zcaron" unicode="&#x17e;" horiz-adv-x="311" d="M40 0 Q20 0 14 8 Q8 16 8 40 L8 118 Q8 137 11 150 Q14 163 24 184 L183 531 Q187 539 185 544 Q183 549 175 549 L50 549 Q28 549 22.5 556 Q17 563 17 590 L17 625 Q17 651 23 659 Q29 667 49 667 L272 667 Q302 667 302 628 L302 549 Q302 535 299 522.5 Q296 510 288 493 L129 142 Q124 132 126 125 Q128 118 138 118 L271 118 Q290 118 296.5 109.5 Q303 101 303 75 L303 41 Q303 17 295.5 8.5 Q288 0 267 0 L40 0 Z M106 789 Q121 789 129 779 L158 743 L186 779 Q190 785 195 787 Q200 789 209 789 L265 789 Q274 789 274 781 Q274 776 271 772 L230 708 Q224 699 217.5 695.5 Q211 692 200 692 L115 692 Q104 692 97.5 695.5 Q91 699 85 708 L44 772 Q41 776 41 781 Q41 789 50 789 L106 789 Z " />
<glyph glyph-name="zdotaccent" unicode="&#x17c;" horiz-adv-x="311" d="M40 0 Q20 0 14 8 Q8 16 8 40 L8 118 Q8 137 11 150 Q14 163 24 184 L183 531 Q187 539 185 544 Q183 549 175 549 L50 549 Q28 549 22.5 556 Q17 563 17 590 L17 625 Q17 651 23 659 Q29 667 49 667 L272 667 Q302 667 302 628 L302 549 Q302 535 299 522.5 Q296 510 288 493 L129 142 Q124 132 126 125 Q128 118 138 118 L271 118 Q290 118 296.5 109.5 Q303 101 303 75 L303 41 Q303 17 295.5 8.5 Q288 0 267 0 L40 0 Z M138 692 Q120 692 113.5 698.5 Q107 705 107 723 L107 758 Q107 776 113.5 782.5 Q120 789 138 789 L173 789 Q191 789 197.5 782.5 Q204 776 204 758 L204 723 Q204 705 197.5 698.5 Q191 692 173 692 L138 692 Z " />
<glyph glyph-name="ordfeminine" unicode="&#xaa;" horiz-adv-x="290" d="M199 345 Q190 345 186.5 347.5 Q183 350 182 358 L176 393 Q175 399 167 399 L120 399 Q113 399 112 393 L106 358 Q104 349 101 347 Q98 345 89 345 L22 345 Q7 345 10 362 L67 649 Q69 660 75.5 663.5 Q82 667 98 667 L192 667 Q208 667 214.5 663.5 Q221 660 223 649 L280 362 Q283 345 268 345 L199 345 Z M151 580 Q150 588 144 588 Q138 588 137 580 L125 490 Q123 478 132 478 L157 478 Q165 478 163 490 L151 580 Z M47 233 Q30 233 24.5 238 Q19 243 19 257 L19 288 Q19 304 25.5 308 Q32 312 47 312 L243 312 Q260 312 265.5 307 Q271 302 271 288 L271 258 Q271 243 266 238 Q261 233 243 233 L47 233 Z " />
<glyph glyph-name="ordmasculine" unicode="&#xba;" horiz-adv-x="275" d="M139 339 Q103 339 79.5 347.5 Q56 356 43 372.5 Q30 389 24.5 415 Q19 441 19 507 Q19 573 24.5 599 Q30 625 43 641 Q56 657 79.5 665 Q103 673 139 673 Q174 673 197 665 Q220 657 233 641 Q246 625 251.5 599 Q257 573 257 507 Q257 441 251.5 414.5 Q246 388 232.5 371.5 Q219 355 196.5 347 Q174 339 139 339 Z M139 418 Q150 418 155 421.5 Q160 425 162.5 432.5 Q165 440 166 453 Q167 466 167 507 Q167 546 166 559 Q165 572 163 579.5 Q161 587 155.5 590.5 Q150 594 139 594 Q128 594 122 591 Q116 588 113.5 581 Q111 574 110 561 Q109 548 109 507 Q109 466 110 453 Q111 440 113.5 432.5 Q116 425 122 421.5 Q128 418 139 418 Z M47 233 Q30 233 24.5 238 Q19 243 19 260 L19 285 Q19 302 24.5 307 Q30 312 47 312 L229 312 Q246 312 251.5 307 Q257 302 257 285 L257 260 Q257 243 251.5 238 Q246 233 229 233 L47 233 Z " />
<glyph glyph-name="grave" unicode="&#x60;" horiz-adv-x="194" d="M111 692 Q103 692 99.5 693.5 Q96 695 89 701 L20 760 Q10 769 10 776 Q10 789 24 789 L112 789 Q119 789 122.5 786.5 Q126 784 134 773 L179 714 Q184 708 184 701 Q184 692 173 692 L111 692 Z " />
<glyph glyph-name="acute" unicode="&#xb4;" horiz-adv-x="194" d="M105 701 Q98 695 94.5 693.5 Q91 692 83 692 L21 692 Q10 692 10 701 Q10 708 15 714 L60 773 Q68 784 71.5 786.5 Q75 789 82 789 L170 789 Q184 789 184 776 Q184 769 174 760 L105 701 Z " />
<glyph glyph-name="circumflex" unicode="&#x2c6;" horiz-adv-x="253" d="M178 692 Q163 692 155 702 L126 738 L98 702 Q90 692 75 692 L19 692 Q10 692 10 700 Q10 705 13 709 L54 773 Q60 782 66.5 785.5 Q73 789 84 789 L169 789 Q180 789 186.5 785.5 Q193 782 199 773 L240 709 Q243 705 243 700 Q243 692 234 692 L178 692 Z " />
<glyph glyph-name="caron" unicode="&#x2c7;" horiz-adv-x="253" d="M75 789 Q90 789 98 779 L127 743 L155 779 Q159 785 164 787 Q169 789 178 789 L234 789 Q243 789 243 781 Q243 776 240 772 L199 708 Q193 699 186.5 695.5 Q180 692 169 692 L84 692 Q73 692 66.5 695.5 Q60 699 54 708 L13 772 Q10 776 10 781 Q10 789 19 789 L75 789 Z " />
<glyph glyph-name="tilde" unicode="&#x2dc;" horiz-adv-x="245" d="M175 692 Q170 692 166 693 Q162 694 158 695 L87 716 Q79 719 75 719 Q71 719 71 713 L71 708 Q71 700 66 696 Q61 692 55 692 L30 692 Q15 692 10 698 Q5 704 5 718 L5 761 Q5 773 10 781 Q15 789 30 789 L70 789 Q75 789 79 788 Q83 787 87 786 L158 765 Q165 762 170 762 Q174 762 174 768 L174 773 Q174 781 179 785 Q184 789 190 789 L215 789 Q230 789 235 783 Q240 777 240 763 L240 720 Q240 708 235 700 Q230 692 215 692 L175 692 Z " />
<glyph glyph-name="dieresis" unicode="&#xa8;" horiz-adv-x="232" d="M162 692 Q144 692 137.5 698.5 Q131 705 131 723 L131 758 Q131 776 137.5 782.5 Q144 789 162 789 L191 789 Q209 789 215.5 782.5 Q222 776 222 758 L222 723 Q222 705 215.5 698.5 Q209 692 191 692 L162 692 Z M41 692 Q23 692 16.5 698.5 Q10 705 10 723 L10 758 Q10 776 16.5 782.5 Q23 789 41 789 L70 789 Q88 789 94.5 782.5 Q101 776 101 758 L101 723 Q101 705 94.5 698.5 Q88 692 70 692 L41 692 Z " />
<glyph glyph-name="macron" unicode="&#xaf;" horiz-adv-x="245" d="M55 692 Q27 692 18.5 698.5 Q10 705 10 723 L10 748 Q10 766 18.5 772.5 Q27 779 55 779 L190 779 Q218 779 226.5 772.5 Q235 766 235 748 L235 723 Q235 705 226.5 698.5 Q218 692 190 692 L55 692 Z " />
<glyph glyph-name="breve" unicode="&#x2d8;" horiz-adv-x="273" d="M252 788 Q263 788 263 774 Q263 753 257.5 738.5 Q252 724 238.5 713.5 Q225 703 200 697 Q175 691 136 691 Q97 691 72 697 Q47 703 34 713.5 Q21 724 15.5 738.5 Q10 753 10 774 Q10 788 21 788 L84 788 Q97 788 97 776 Q97 756 137 756 Q176 756 176 776 Q176 788 189 788 L252 788 Z " />
<glyph glyph-name="ring" unicode="&#x2da;" horiz-adv-x="188" d="M178 745 Q178 719 174.5 707.5 Q171 696 162 688.5 Q153 681 136.5 677 Q120 673 94 673 Q68 673 51.5 677 Q35 681 26 688.5 Q17 696 13.5 707.5 Q10 719 10 745 Q10 771 13.5 782.5 Q17 794 26 801.5 Q35 809 51.5 813 Q68 817 94 817 Q120 817 136.5 813 Q153 809 162 801.5 Q171 794 174.5 782.5 Q178 771 178 745 Z M118 745 Q118 759 113 764 Q108 769 94 769 Q80 769 75 764 Q70 759 70 745 Q70 731 75 726 Q80 721 94 721 Q108 721 113 726 Q118 731 118 745 Z " />
<glyph glyph-name="hungarumlaut" unicode="&#x2dd;" horiz-adv-x="250" d="M123 692 Q118 692 115 698 Q112 704 118 714 L151 768 Q159 781 161 785 Q163 789 171 789 L228 789 Q236 789 239 783 Q242 777 235 769 L181 707 Q173 698 170 695 Q167 692 160 692 L123 692 Z M21 692 Q15 692 11.5 698 Q8 704 14 714 L48 768 Q56 780 59 784.5 Q62 789 70 789 L125 789 Q133 789 136 782.5 Q139 776 133 769 L78 707 Q70 698 67.5 695 Q65 692 57 692 L21 692 Z " />
<glyph glyph-name="dotaccent" unicode="&#x2d9;" horiz-adv-x="117" d="M41 692 Q23 692 16.5 698.5 Q10 705 10 723 L10 758 Q10 776 16.5 782.5 Q23 789 41 789 L76 789 Q94 789 100.5 782.5 Q107 776 107 758 L107 723 Q107 705 100.5 698.5 Q94 692 76 692 L41 692 Z " />
<glyph glyph-name="cedilla" unicode="&#xb8;" horiz-adv-x="168" d="M45 -137 Q23 -137 16.5 -130 Q10 -123 10 -97 L10 -75 Q10 -57 18 -50.5 Q26 -44 49 -44 L70 -44 Q83 -44 83 -29 Q83 -22 77 0 L145 0 Q152 -23 155 -39.5 Q158 -56 158 -75 L158 -92 Q158 -115 148 -126 Q138 -137 116 -137 L45 -137 Z " />
<glyph glyph-name="uni0326" unicode="&#x326;" horiz-adv-x="192" d="M104 -127 Q98 -133 93.5 -135 Q89 -137 79 -137 L24 -137 Q10 -137 10 -126 Q10 -121 12 -117 Q14 -113 19 -105 L59 -43 Q66 -31 71.5 -27.5 Q77 -24 88 -24 L167 -24 Q182 -24 182 -38 Q182 -48 172 -58 L104 -127 Z " />
<glyph glyph-name="ogonek" unicode="&#x2db;" horiz-adv-x="168" d="M52 -137 Q30 -137 20 -126 Q10 -115 10 -92 L10 -75 Q10 -58 13 -41.5 Q16 -25 23 0 L91 0 Q85 -22 85 -29 Q85 -44 98 -44 L119 -44 Q142 -44 150 -50.5 Q158 -57 158 -75 L158 -97 Q158 -123 151.5 -130 Q145 -137 123 -137 L52 -137 Z " />
<glyph glyph-name="Alpha" unicode="&#x391;" horiz-adv-x="371" d="M258 0 Q250 0 246.5 3.5 Q243 7 241 18 L222 159 Q220 169 216.5 172 Q213 175 205 175 L163 175 Q155 175 151.5 172.5 Q148 170 146 159 L130 16 Q129 6 126 3 Q123 0 112 0 L20 0 Q1 0 3 15 L84 629 Q87 651 96 659 Q105 667 126 667 L242 667 Q260 667 269 658.5 Q278 650 281 628 L368 15 Q369 0 353 0 L258 0 Z M191 534 Q190 549 183 549 Q176 549 175 533 L158 304 Q157 293 171 293 L196 293 Q211 293 210 304 L191 534 Z " />
<glyph glyph-name="Alphatonos" unicode="&#x386;" horiz-adv-x="433" d="M320 0 Q312 0 308.5 3.5 Q305 7 303 18 L284 159 Q282 169 278.5 172 Q275 175 267 175 L225 175 Q217 175 213.5 172.5 Q210 170 208 159 L192 16 Q191 6 188 3 Q185 0 174 0 L82 0 Q63 0 65 15 L146 629 Q149 651 158 659 Q167 667 188 667 L304 667 Q322 667 331 658.5 Q340 650 343 628 L430 15 Q431 0 415 0 L320 0 Z M253 534 Q252 549 245 549 Q238 549 237 533 L220 304 Q219 293 233 293 L258 293 Q273 293 272 304 L253 534 Z M90 544 Q81 521 63 521 L18 521 Q-3 521 2 547 L21 643 Q25 667 44 667 L116 667 Q127 667 131 659.5 Q135 652 131 643 L90 544 Z " />
<glyph glyph-name="Beta" unicode="&#x392;" horiz-adv-x="361" d="M58 0 Q39 0 32.5 9 Q26 18 26 44 L26 624 Q26 648 33 657.5 Q40 667 58 667 L239 667 Q273 667 295 650.5 Q317 634 327.5 599 Q338 564 338 499 Q338 436 325.5 400.5 Q313 365 284 348 Q315 336 331 293 Q347 250 347 180 Q347 117 335 77.5 Q323 38 299 19 Q275 0 239 0 L58 0 Z M179 404 Q204 404 212.5 418 Q221 432 221 476 Q221 515 212 532 Q203 549 179 549 L160 549 Q149 549 146 545 Q143 541 143 529 L143 424 Q143 412 146.5 408 Q150 404 160 404 L179 404 Z M179 118 Q209 118 218.5 135 Q228 152 228 201 Q228 248 218 267 Q208 286 179 286 L160 286 Q149 286 146 282 Q143 278 143 266 L143 138 Q143 127 146.5 122.5 Q150 118 160 118 L179 118 Z " />
<glyph glyph-name="Gamma" unicode="&#x393;" horiz-adv-x="278" d="M59 0 Q41 0 33.5 10 Q26 20 26 43 L26 623 Q26 650 32.5 658.5 Q39 667 59 667 L238 667 Q258 667 266.5 657 Q275 647 275 624 L275 591 Q275 567 268 558 Q261 549 241 549 L160 549 Q152 549 148 544.5 Q144 540 144 528 L144 43 Q144 18 137.5 9 Q131 0 112 0 L59 0 Z " />
<glyph glyph-name="&amp;#x394;" unicode="&#x394;" horiz-adv-x="370" d="M32 0 Q18 0 10.5 9.5 Q3 19 5 34 L84 629 Q87 651 96 659 Q105 667 126 667 L242 667 Q260 667 269 658.5 Q278 650 281 628 L366 35 Q368 20 361 10 Q354 0 340 0 L32 0 Z M191 518 Q190 533 183 533 Q175 533 174 517 L143 135 Q141 118 157 118 L210 118 Q226 118 224 137 L191 518 Z " />
<glyph glyph-name="&amp;#x2206;" unicode="&#x2206;" horiz-adv-x="370" d="M32 0 Q18 0 10.5 9.5 Q3 19 5 34 L84 629 Q87 651 96 659 Q105 667 126 667 L242 667 Q260 667 269 658.5 Q278 650 281 628 L366 35 Q368 20 361 10 Q354 0 340 0 L32 0 Z M191 518 Q190 533 183 533 Q175 533 174 517 L143 135 Q141 118 157 118 L210 118 Q226 118 224 137 L191 518 Z " />
<glyph glyph-name="Epsilon" unicode="&#x395;" horiz-adv-x="301" d="M60 0 Q40 0 33 9 Q26 18 26 44 L26 623 Q26 648 33.5 657.5 Q41 667 60 667 L258 667 Q277 667 283.5 659.5 Q290 652 290 628 L290 591 Q290 566 283.5 557.5 Q277 549 258 549 L160 549 Q149 549 145.5 545 Q142 541 142 527 L142 434 Q142 420 144.5 416.5 Q147 413 160 413 L210 413 Q227 413 233 406 Q239 399 239 379 L239 328 Q239 309 232.5 302 Q226 295 210 295 L160 295 Q149 295 145.5 292 Q142 289 142 280 L142 140 Q142 127 146 122.5 Q150 118 163 118 L262 118 Q282 118 290 108.5 Q298 99 298 75 L298 43 Q298 20 290 10 Q282 0 264 0 L60 0 Z " />
<glyph glyph-name="Epsilontonos" unicode="&#x388;" horiz-adv-x="423" d="M182 0 Q162 0 155 9 Q148 18 148 44 L148 623 Q148 648 155.5 657.5 Q163 667 182 667 L380 667 Q399 667 405.5 659.5 Q412 652 412 628 L412 591 Q412 566 405.5 557.5 Q399 549 380 549 L282 549 Q271 549 267.5 545 Q264 541 264 527 L264 434 Q264 420 266.5 416.5 Q269 413 282 413 L332 413 Q349 413 355 406 Q361 399 361 379 L361 328 Q361 309 354.5 302 Q348 295 332 295 L282 295 Q271 295 267.5 292 Q264 289 264 280 L264 140 Q264 127 268 122.5 Q272 118 285 118 L384 118 Q404 118 412 108.5 Q420 99 420 75 L420 43 Q420 20 412 10 Q404 0 386 0 L182 0 Z M90 544 Q81 521 63 521 L18 521 Q-3 521 2 547 L21 643 Q25 667 44 667 L116 667 Q127 667 131 659.5 Q135 652 131 643 L90 544 Z " />
<glyph glyph-name="Zeta" unicode="&#x396;" horiz-adv-x="311" d="M40 0 Q20 0 14 8 Q8 16 8 40 L8 118 Q8 137 11 150 Q14 163 24 184 L183 531 Q187 539 185 544 Q183 549 175 549 L50 549 Q28 549 22.5 556 Q17 563 17 590 L17 625 Q17 651 23 659 Q29 667 49 667 L272 667 Q302 667 302 628 L302 549 Q302 535 299 522.5 Q296 510 288 493 L129 142 Q124 132 126 125 Q128 118 138 118 L271 118 Q290 118 296.5 109.5 Q303 101 303 75 L303 41 Q303 17 295.5 8.5 Q288 0 267 0 L40 0 Z " />
<glyph glyph-name="Eta" unicode="&#x397;" horiz-adv-x="378" d="M266 0 Q248 0 241.5 9.5 Q235 19 235 43 L235 274 Q235 286 232 290.5 Q229 295 219 295 L159 295 Q149 295 146 290.5 Q143 286 143 274 L143 43 Q143 19 136.5 9.5 Q130 0 112 0 L59 0 Q40 0 33 9.5 Q26 19 26 44 L26 624 Q26 648 33.5 657.5 Q41 667 59 667 L113 667 Q129 667 136 657 Q143 647 143 625 L143 432 Q143 421 146.5 417 Q150 413 158 413 L220 413 Q228 413 231.5 417 Q235 421 235 432 L235 625 Q235 647 242 657 Q249 667 265 667 L319 667 Q337 667 344.5 657.5 Q352 648 352 624 L352 44 Q352 19 345 9.5 Q338 0 319 0 L266 0 Z " />
<glyph glyph-name="Etatonos" unicode="&#x389;" horiz-adv-x="500" d="M388 0 Q370 0 363.5 9.5 Q357 19 357 43 L357 274 Q357 286 354 290.5 Q351 295 341 295 L281 295 Q271 295 268 290.5 Q265 286 265 274 L265 43 Q265 19 258.5 9.5 Q252 0 234 0 L181 0 Q162 0 155 9.5 Q148 19 148 44 L148 624 Q148 648 155.5 657.5 Q163 667 181 667 L235 667 Q251 667 258 657 Q265 647 265 625 L265 432 Q265 421 268.5 417 Q272 413 280 413 L342 413 Q350 413 353.5 417 Q357 421 357 432 L357 625 Q357 647 364 657 Q371 667 387 667 L441 667 Q459 667 466.5 657.5 Q474 648 474 624 L474 44 Q474 19 467 9.5 Q460 0 441 0 L388 0 Z M90 544 Q81 521 63 521 L18 521 Q-3 521 2 547 L21 643 Q25 667 44 667 L116 667 Q127 667 131 659.5 Q135 652 131 643 L90 544 Z " />
<glyph glyph-name="Theta" unicode="&#x398;" horiz-adv-x="356" d="M178 -8 Q118 -8 85 17.5 Q52 43 37 88.5 Q22 134 19.5 197.5 Q17 261 17 336 Q17 411 19.5 473.5 Q22 536 37 581 Q52 626 85 650.5 Q118 675 178 675 Q238 675 271 650 Q304 625 319 580 Q334 535 336.5 473 Q339 411 339 336 Q339 261 336.5 198 Q334 135 319 89.5 Q304 44 271 18 Q238 -8 178 -8 Z M207 414 Q215 414 218 417.5 Q221 421 221 433 Q220 469 218 491.5 Q216 514 211.5 526.5 Q207 539 199 544 Q191 549 178 549 Q165 549 157 544 Q149 539 144 526 Q139 513 136.5 490.5 Q134 468 134 433 Q134 421 137.5 417.5 Q141 414 149 414 L207 414 Z M150 296 Q140 296 137 291.5 Q134 287 134 275 Q134 228 136 198 Q138 168 142.5 150.5 Q147 133 155.5 126 Q164 119 178 119 Q192 119 201 126 Q210 133 214.5 150.5 Q219 168 220.5 198 Q222 228 222 275 Q222 287 219 291.5 Q216 296 206 296 L150 296 Z " />
<glyph glyph-name="Iota" unicode="&#x399;" horiz-adv-x="170" d="M61 0 Q40 0 33 8.5 Q26 17 26 44 L26 622 Q26 648 33 657.5 Q40 667 59 667 L113 667 Q130 667 137 657.5 Q144 648 144 622 L144 42 Q144 17 137.5 8.5 Q131 0 111 0 L61 0 Z " />
<glyph glyph-name="Iotatonos" unicode="&#x38a;" horiz-adv-x="292" d="M183 0 Q162 0 155 8.5 Q148 17 148 44 L148 622 Q148 648 155 657.5 Q162 667 181 667 L235 667 Q252 667 259 657.5 Q266 648 266 622 L266 42 Q266 17 259.5 8.5 Q253 0 233 0 L183 0 Z M90 544 Q81 521 63 521 L18 521 Q-3 521 2 547 L21 643 Q25 667 44 667 L116 667 Q127 667 131 659.5 Q135 652 131 643 L90 544 Z " />
<glyph glyph-name="Iotadieresis" unicode="&#x3aa;" horiz-adv-x="170" d="M61 0 Q40 0 33 8.5 Q26 17 26 44 L26 622 Q26 648 33 657.5 Q40 667 59 667 L113 667 Q130 667 137 657.5 Q144 648 144 622 L144 42 Q144 17 137.5 8.5 Q131 0 111 0 L61 0 Z M133 692 Q115 692 108.5 698.5 Q102 705 102 723 L102 758 Q102 776 108.5 782.5 Q115 789 133 789 L162 789 Q180 789 186.5 782.5 Q193 776 193 758 L193 723 Q193 705 186.5 698.5 Q180 692 162 692 L133 692 Z M12 692 Q-6 692 -12.5 698.5 Q-19 705 -19 723 L-19 758 Q-19 776 -12.5 782.5 Q-6 789 12 789 L41 789 Q59 789 65.5 782.5 Q72 776 72 758 L72 723 Q72 705 65.5 698.5 Q59 692 41 692 L12 692 Z " />
<glyph glyph-name="Kappa" unicode="&#x39a;" horiz-adv-x="375" d="M270 0 Q257 0 251.5 6 Q246 12 242 29 L192 266 Q190 276 188 279 Q186 282 182 282 Q180 282 178 281 Q176 280 173 276 Q170 272 165.5 264 Q161 256 153 241 Q148 231 146 219 Q144 207 144 185 L144 42 Q144 17 137.5 8.5 Q131 0 111 0 L61 0 Q40 0 33 8.5 Q26 17 26 44 L26 622 Q26 648 33 657.5 Q40 667 59 667 L113 667 Q130 667 137 657.5 Q144 648 144 622 L144 473 Q144 462 149 462 Q154 462 159 473 L233 629 Q245 654 251 660.5 Q257 667 271 667 L360 667 Q372 667 372 655 Q372 649 369 643 L270 451 Q264 439 264 429 Q264 422 267 411 L368 30 Q373 12 369.5 6 Q366 0 352 0 L270 0 Z " />
<glyph glyph-name="Lambda" unicode="&#x39b;" horiz-adv-x="371" d="M260 0 Q252 0 247 3.5 Q242 7 241 18 L191 518 Q190 533 183 533 Q176 533 175 517 L131 18 Q129 8 126 4 Q123 0 112 0 L22 0 Q13 0 8 5.5 Q3 11 4 18 L84 629 Q87 651 96 659 Q105 667 126 667 L242 667 Q260 667 269 658.5 Q278 650 281 628 L367 21 Q368 13 364.5 6.5 Q361 0 353 0 L260 0 Z " />
<glyph glyph-name="Mu" unicode="&#x39c;" horiz-adv-x="466" d="M354 0 Q335 0 328.5 8.5 Q322 17 322 42 L322 313 Q322 328 321 332.5 Q320 337 318 337 Q313 337 309 315 L269 117 Q265 99 257.5 93 Q250 87 233 87 Q216 87 208.5 93 Q201 99 197 117 L157 315 Q152 337 148 337 Q146 337 145 332.5 Q144 328 144 313 L144 42 Q144 17 137.5 8.5 Q131 0 112 0 L59 0 Q38 0 32 8 Q26 16 26 43 L26 626 Q26 651 32.5 659 Q39 667 58 667 L113 667 Q137 667 144.5 662 Q152 657 158 636 L225 396 Q228 387 233 387 Q238 387 241 396 L308 636 Q314 657 321.5 662 Q329 667 353 667 L408 667 Q427 667 433.5 659 Q440 651 440 626 L440 43 Q440 16 434 8 Q428 0 407 0 L354 0 Z " />
<glyph glyph-name="Nu" unicode="&#x39d;" horiz-adv-x="391" d="M284 0 Q266 0 259 5 Q252 10 245 31 L161 280 Q158 288 155.5 291 Q153 294 150 294 Q147 294 146 290 Q145 286 145 275 L145 44 Q145 20 138 10 Q131 0 114 0 L62 0 Q42 0 34 10 Q26 20 26 45 L26 623 Q26 649 33 658 Q40 667 61 667 L107 667 Q125 667 132 662 Q139 657 146 636 L230 388 Q233 380 235.5 377 Q238 374 241 374 Q244 374 245 378 Q246 382 246 393 L246 623 Q246 647 253 657 Q260 667 277 667 L329 667 Q349 667 357 657 Q365 647 365 622 L365 45 Q365 19 358 9.5 Q351 0 330 0 L284 0 Z " />
<glyph glyph-name="Xi" unicode="&#x39e;" horiz-adv-x="321" d="M36 549 Q18 549 12 556.5 Q6 564 6 589 L6 623 Q6 649 12.5 658 Q19 667 39 667 L283 667 Q301 667 308 658.5 Q315 650 315 627 L315 590 Q315 566 308.5 557.5 Q302 549 284 549 L36 549 Z M66 295 Q48 295 42 302.5 Q36 310 36 335 L36 369 Q36 395 42.5 404 Q49 413 69 413 L253 413 Q271 413 278 404.5 Q285 396 285 373 L285 336 Q285 312 278.5 303.5 Q272 295 254 295 L66 295 Z M36 0 Q18 0 12 7.5 Q6 15 6 40 L6 74 Q6 100 12.5 109 Q19 118 39 118 L283 118 Q301 118 308 109.5 Q315 101 315 78 L315 41 Q315 17 308.5 8.5 Q302 0 284 0 L36 0 Z " />
<glyph glyph-name="Omicron" unicode="&#x39f;" horiz-adv-x="356" d="M178 -8 Q131 -8 99.5 8.5 Q68 25 50 58 Q32 91 24.5 144.5 Q17 198 17 336 Q17 472 24.5 525 Q32 578 50 610.5 Q68 643 99.5 659 Q131 675 178 675 Q225 675 256 659 Q287 643 305.5 610.5 Q324 578 331.5 525 Q339 472 339 336 Q339 199 331.5 145.5 Q324 92 306 58.5 Q288 25 256.5 8.5 Q225 -8 178 -8 Z M178 119 Q194 119 202.5 127.5 Q211 136 215 154.5 Q219 173 220.5 207 Q222 241 222 336 Q222 429 220.5 462.5 Q219 496 215 514.5 Q211 533 202.5 541 Q194 549 178 549 Q161 549 153 540.5 Q145 532 141 514 Q137 496 135.5 463 Q134 430 134 336 Q134 243 135.5 209 Q137 175 141 156 Q145 137 153.5 128 Q162 119 178 119 Z " />
<glyph glyph-name="Omicrontonos" unicode="&#x38c;" horiz-adv-x="447" d="M269 -8 Q222 -8 190.5 8.5 Q159 25 141 58 Q123 91 115.5 144.5 Q108 198 108 336 Q108 472 115.5 525 Q123 578 141 610.5 Q159 643 190.5 659 Q222 675 269 675 Q316 675 347 659 Q378 643 396.5 610.5 Q415 578 422.5 525 Q430 472 430 336 Q430 199 422.5 145.5 Q415 92 397 58.5 Q379 25 347.5 8.5 Q316 -8 269 -8 Z M269 119 Q285 119 293.5 127.5 Q302 136 306 154.5 Q310 173 311.5 207 Q313 241 313 336 Q313 429 311.5 462.5 Q310 496 306 514.5 Q302 533 293.5 541 Q285 549 269 549 Q252 549 244 540.5 Q236 532 232 514 Q228 496 226.5 463 Q225 430 225 336 Q225 243 226.5 209 Q228 175 232 156 Q236 137 244.5 128 Q253 119 269 119 Z M90 544 Q81 521 63 521 L18 521 Q-3 521 2 547 L21 643 Q25 667 44 667 L116 667 Q127 667 131 659.5 Q135 652 131 643 L90 544 Z " />
<glyph glyph-name="Pi" unicode="&#x3a0;" horiz-adv-x="378" d="M266 0 Q247 0 241 7.5 Q235 15 235 37 L235 528 Q235 540 232 544.5 Q229 549 219 549 L159 549 Q149 549 146 544.5 Q143 540 143 528 L143 37 Q143 15 137 7.5 Q131 0 112 0 L59 0 Q39 0 32.5 7 Q26 14 26 38 L26 624 Q26 648 33.5 657.5 Q41 667 59 667 L319 667 Q337 667 344.5 657.5 Q352 648 352 624 L352 38 Q352 14 345.5 7 Q339 0 319 0 L266 0 Z " />
<glyph glyph-name="Rho" unicode="&#x3a1;" horiz-adv-x="347" d="M58 0 Q38 0 32 8 Q26 16 26 43 L26 621 Q26 647 33 657 Q40 667 58 667 L212 667 Q275 667 307.5 613 Q340 559 340 454 Q340 353 311.5 300.5 Q283 248 228 248 L144 248 L144 43 Q144 17 138 8.5 Q132 0 112 0 L58 0 Z M192 366 Q201 366 206 369 Q211 372 214.5 381 Q218 390 220 408 Q222 426 222 455 Q222 485 220 503.5 Q218 522 214 532 Q210 542 204 545.5 Q198 549 189 549 L160 549 Q151 549 147.5 545 Q144 541 144 531 L144 383 Q144 366 159 366 L192 366 Z " />
<glyph glyph-name="Sigma" unicode="&#x3a3;" horiz-adv-x="305" d="M48 0 Q28 0 22 8 Q16 16 16 40 L16 115 Q16 121 18.5 140.5 Q21 160 32 184 L101 332 Q106 343 105 349.5 Q104 356 99 366 L31 493 Q23 511 20 523 Q17 535 17 544 L17 628 Q17 667 47 667 L258 667 Q278 667 284 659 Q290 651 290 625 L290 590 Q290 563 284 556 Q278 549 261 549 L146 549 Q138 549 136 544 Q134 539 138 531 L224 366 Q229 356 228.5 345 Q228 334 223 325 L137 142 Q132 133 133.5 125.5 Q135 118 146 118 L267 118 Q286 118 292.5 109.5 Q299 101 299 75 L299 41 Q299 17 291.5 8.5 Q284 0 263 0 L48 0 Z " />
<glyph glyph-name="Tau" unicode="&#x3a4;" horiz-adv-x="315" d="M132 0 Q112 0 105 8.5 Q98 17 98 41 L98 529 Q98 543 94.5 546 Q91 549 85 549 L33 549 Q15 549 9 556.5 Q3 564 3 589 L3 623 Q3 649 9.5 658 Q16 667 36 667 L280 667 Q298 667 305 658.5 Q312 650 312 627 L312 590 Q312 566 305.5 557.5 Q299 549 281 549 L229 549 Q221 549 218.5 545 Q216 541 216 529 L216 44 Q216 18 210 9 Q204 0 184 0 L132 0 Z " />
<glyph glyph-name="Upsilon" unicode="&#x3a5;" horiz-adv-x="344" d="M146 0 Q126 0 119.5 8.5 Q113 17 113 43 L113 255 L3 632 Q-2 647 2.5 657 Q7 667 21 667 L88 667 Q100 667 105.5 662 Q111 657 114 643 L165 426 Q167 415 172 415 Q177 415 179 426 L230 643 Q233 657 238.5 662 Q244 667 256 667 L323 667 Q337 667 341.5 657 Q346 647 341 632 L231 255 L231 43 Q231 17 224.5 8.5 Q218 0 198 0 L146 0 Z " />
<glyph glyph-name="Upsilontonos" unicode="&#x38e;" horiz-adv-x="481" d="M283 0 Q263 0 256.5 8.5 Q250 17 250 43 L250 255 L140 632 Q135 647 139.5 657 Q144 667 158 667 L225 667 Q237 667 242.5 662 Q248 657 251 643 L302 426 Q304 415 309 415 Q314 415 316 426 L367 643 Q370 657 375.5 662 Q381 667 393 667 L460 667 Q474 667 478.5 657 Q483 647 478 632 L368 255 L368 43 Q368 17 361.5 8.5 Q355 0 335 0 L283 0 Z M90 544 Q81 521 63 521 L18 521 Q-3 521 2 547 L21 643 Q25 667 44 667 L116 667 Q127 667 131 659.5 Q135 652 131 643 L90 544 Z " />
<glyph glyph-name="Upsilondieresis" unicode="&#x3ab;" horiz-adv-x="344" d="M146 0 Q126 0 119.5 8.5 Q113 17 113 43 L113 255 L3 632 Q-2 647 2.5 657 Q7 667 21 667 L88 667 Q100 667 105.5 662 Q111 657 114 643 L165 426 Q167 415 172 415 Q177 415 179 426 L230 643 Q233 657 238.5 662 Q244 667 256 667 L323 667 Q337 667 341.5 657 Q346 647 341 632 L231 255 L231 43 Q231 17 224.5 8.5 Q218 0 198 0 L146 0 Z M218 692 Q200 692 193.5 698.5 Q187 705 187 723 L187 758 Q187 776 193.5 782.5 Q200 789 218 789 L247 789 Q265 789 271.5 782.5 Q278 776 278 758 L278 723 Q278 705 271.5 698.5 Q265 692 247 692 L218 692 Z M97 692 Q79 692 72.5 698.5 Q66 705 66 723 L66 758 Q66 776 72.5 782.5 Q79 789 97 789 L126 789 Q144 789 150.5 782.5 Q157 776 157 758 L157 723 Q157 705 150.5 698.5 Q144 692 126 692 L97 692 Z " />
<glyph glyph-name="Phi" unicode="&#x3a6;" horiz-adv-x="453" d="M205 0 Q183 0 176.5 7 Q170 14 170 40 L170 71 Q170 79 166 83 Q162 87 152 88 Q114 92 87 111 Q60 130 43 163 Q26 196 18 242.5 Q10 289 10 354 Q10 404 19 446.5 Q28 489 45.5 520 Q63 551 89 569.5 Q115 588 149 592 Q160 593 165 597.5 Q170 602 170 610 L170 626 Q170 651 177 659 Q184 667 203 667 L253 667 Q270 667 276.5 659.5 Q283 652 283 626 L283 611 Q283 603 289 598 Q295 593 305 592 Q339 588 365 569.5 Q391 551 408.5 519.5 Q426 488 434.5 446 Q443 404 443 354 Q443 292 434.5 245 Q426 198 408.5 164.5 Q391 131 363.5 111.5 Q336 92 299 88 Q290 87 286.5 83.5 Q283 80 283 71 L283 38 Q283 13 277 6.5 Q271 0 251 0 L205 0 Z M283 210 Q295 210 304 218.5 Q313 227 318.5 243 Q324 259 326.5 282.5 Q329 306 329 340 Q329 379 326.5 402 Q324 425 319 440.5 Q314 456 305 464 Q296 472 283 472 L283 210 Z M170 472 Q157 472 148 464 Q139 456 134 440.5 Q129 425 126.5 402 Q124 379 124 340 Q124 306 126.5 282.5 Q129 259 134.5 243 Q140 227 149 218.5 Q158 210 170 210 L170 472 Z " />
<glyph glyph-name="Chi" unicode="&#x3a7;" horiz-adv-x="342" d="M243 0 Q220 0 216 25 L180 232 Q177 244 171 244 Q165 244 162 232 L126 25 Q122 0 99 0 L21 0 Q7 0 3.5 8.5 Q0 17 5 37 L71 346 L5 631 Q0 651 5.5 659 Q11 667 25 667 L101 667 Q121 667 127 640 L163 452 Q165 444 166 441.5 Q167 439 171 439 Q175 439 176 441.5 Q177 444 179 452 L215 640 Q221 667 241 667 L317 667 Q331 667 336.5 659 Q342 651 337 631 L270 346 L337 37 Q342 17 338.5 8.5 Q335 0 321 0 L243 0 Z " />
<glyph glyph-name="Psi" unicode="&#x3a8;" horiz-adv-x="471" d="M214 0 Q192 0 185.5 7 Q179 14 179 40 L179 182 Q179 190 175 193.5 Q171 197 160 198 Q122 203 94.5 224 Q67 245 51 280 Q35 315 27.5 360.5 Q20 406 20 466 L20 630 Q20 652 26.5 659.5 Q33 667 50 667 L100 667 Q119 667 126 659.5 Q133 652 133 630 L133 452 Q133 418 135.5 395 Q138 372 143 356 Q148 340 157 331 Q166 322 179 322 L179 630 Q179 652 186 659.5 Q193 667 212 667 L262 667 Q279 667 285.5 659.5 Q292 652 292 630 L292 322 Q305 322 314 331 Q323 340 328 356 Q333 372 335.5 395 Q338 418 338 452 L338 630 Q338 652 345 659.5 Q352 667 371 667 L421 667 Q438 667 444.5 659.5 Q451 652 451 630 L451 466 Q451 404 444 358.5 Q437 313 420.5 279 Q404 245 376.5 224.5 Q349 204 309 200 Q299 199 295.5 195 Q292 191 292 182 L292 38 Q292 13 286 6.5 Q280 0 260 0 L214 0 Z " />
<glyph glyph-name="&amp;#x3a9;" unicode="&#x3a9;" horiz-adv-x="355" d="M229 0 Q209 0 202 9.5 Q195 19 195 42 L195 202 Q195 207 198 212 Q201 217 203 220 Q212 230 216.5 280 Q221 330 221 413 Q221 454 219.5 480.5 Q218 507 213 522 Q208 537 199.5 542.5 Q191 548 178 548 Q164 548 155.5 542.5 Q147 537 142.5 522 Q138 507 136 480.5 Q134 454 134 413 Q134 332 138.5 281.5 Q143 231 152 221 Q154 219 157 214 Q160 209 160 202 L160 41 Q160 18 153.5 9 Q147 0 127 0 L54 0 Q34 0 25.5 10 Q17 20 17 43 L17 76 Q17 100 24 109 Q31 118 51 118 L64 118 Q74 118 72 124 Q70 130 62 139 Q47 157 38 180.5 Q29 204 24.5 236.5 Q20 269 18.5 312.5 Q17 356 17 413 Q17 472 22.5 520 Q28 568 44.5 602.5 Q61 637 92.5 655.5 Q124 674 177 674 Q229 674 261 655.5 Q293 637 310 602.5 Q327 568 332.5 520 Q338 472 338 413 Q338 356 336.5 312.5 Q335 269 330.5 236.5 Q326 204 317 180.5 Q308 157 293 139 Q285 130 283 124 Q281 118 291 118 L303 118 Q323 118 330 109 Q337 100 337 76 L337 43 Q337 20 328.5 10 Q320 0 300 0 L229 0 Z " />
<glyph glyph-name="&amp;#x2126;" unicode="&#x2126;" horiz-adv-x="355" d="M229 0 Q209 0 202 9.5 Q195 19 195 42 L195 202 Q195 207 198 212 Q201 217 203 220 Q212 230 216.5 280 Q221 330 221 413 Q221 454 219.5 480.5 Q218 507 213 522 Q208 537 199.5 542.5 Q191 548 178 548 Q164 548 155.5 542.5 Q147 537 142.5 522 Q138 507 136 480.5 Q134 454 134 413 Q134 332 138.5 281.5 Q143 231 152 221 Q154 219 157 214 Q160 209 160 202 L160 41 Q160 18 153.5 9 Q147 0 127 0 L54 0 Q34 0 25.5 10 Q17 20 17 43 L17 76 Q17 100 24 109 Q31 118 51 118 L64 118 Q74 118 72 124 Q70 130 62 139 Q47 157 38 180.5 Q29 204 24.5 236.5 Q20 269 18.5 312.5 Q17 356 17 413 Q17 472 22.5 520 Q28 568 44.5 602.5 Q61 637 92.5 655.5 Q124 674 177 674 Q229 674 261 655.5 Q293 637 310 602.5 Q327 568 332.5 520 Q338 472 338 413 Q338 356 336.5 312.5 Q335 269 330.5 236.5 Q326 204 317 180.5 Q308 157 293 139 Q285 130 283 124 Q281 118 291 118 L303 118 Q323 118 330 109 Q337 100 337 76 L337 43 Q337 20 328.5 10 Q320 0 300 0 L229 0 Z " />
<glyph glyph-name="Omegatonos" unicode="&#x38f;" horiz-adv-x="447" d="M321 0 Q301 0 294 9.5 Q287 19 287 42 L287 202 Q287 207 290 212 Q293 217 295 220 Q304 230 308.5 280 Q313 330 313 413 Q313 454 311.5 480.5 Q310 507 305 522 Q300 537 291.5 542.5 Q283 548 270 548 Q256 548 247.5 542.5 Q239 537 234.5 522 Q230 507 228 480.5 Q226 454 226 413 Q226 332 230.5 281.5 Q235 231 244 221 Q246 219 249 214 Q252 209 252 202 L252 41 Q252 18 245.5 9 Q239 0 219 0 L146 0 Q126 0 117.5 10 Q109 20 109 43 L109 76 Q109 100 116 109 Q123 118 143 118 L156 118 Q166 118 164 124 Q162 130 154 139 Q139 157 130 180.5 Q121 204 116.5 236.5 Q112 269 110.5 312.5 Q109 356 109 413 Q109 472 114.5 520 Q120 568 136.5 602.5 Q153 637 184.5 655.5 Q216 674 269 674 Q321 674 353 655.5 Q385 637 402 602.5 Q419 568 424.5 520 Q430 472 430 413 Q430 356 428.5 312.5 Q427 269 422.5 236.5 Q418 204 409 180.5 Q400 157 385 139 Q377 130 375 124 Q373 118 383 118 L395 118 Q415 118 422 109 Q429 100 429 76 L429 43 Q429 20 420.5 10 Q412 0 392 0 L321 0 Z M90 544 Q81 521 63 521 L18 521 Q-3 521 2 547 L21 643 Q25 667 44 667 L116 667 Q127 667 131 659.5 Q135 652 131 643 L90 544 Z " />
<glyph glyph-name="alpha" unicode="&#x3b1;" horiz-adv-x="371" d="M258 0 Q250 0 246.5 3.5 Q243 7 241 18 L222 159 Q220 169 216.5 172 Q213 175 205 175 L163 175 Q155 175 151.5 172.5 Q148 170 146 159 L130 16 Q129 6 126 3 Q123 0 112 0 L20 0 Q1 0 3 15 L84 629 Q87 651 96 659 Q105 667 126 667 L242 667 Q260 667 269 658.5 Q278 650 281 628 L368 15 Q369 0 353 0 L258 0 Z M191 534 Q190 549 183 549 Q176 549 175 533 L158 304 Q157 293 171 293 L196 293 Q211 293 210 304 L191 534 Z " />
<glyph glyph-name="alphatonos" unicode="&#x3ac;" horiz-adv-x="433" d="M320 0 Q312 0 308.5 3.5 Q305 7 303 18 L284 159 Q282 169 278.5 172 Q275 175 267 175 L225 175 Q217 175 213.5 172.5 Q210 170 208 159 L192 16 Q191 6 188 3 Q185 0 174 0 L82 0 Q63 0 65 15 L146 629 Q149 651 158 659 Q167 667 188 667 L304 667 Q322 667 331 658.5 Q340 650 343 628 L430 15 Q431 0 415 0 L320 0 Z M253 534 Q252 549 245 549 Q238 549 237 533 L220 304 Q219 293 233 293 L258 293 Q273 293 272 304 L253 534 Z M90 544 Q81 521 63 521 L18 521 Q-3 521 2 547 L21 643 Q25 667 44 667 L116 667 Q127 667 131 659.5 Q135 652 131 643 L90 544 Z " />
<glyph glyph-name="beta" unicode="&#x3b2;" horiz-adv-x="361" d="M58 0 Q39 0 32.5 9 Q26 18 26 44 L26 624 Q26 648 33 657.5 Q40 667 58 667 L239 667 Q273 667 295 650.5 Q317 634 327.5 599 Q338 564 338 499 Q338 436 325.5 400.5 Q313 365 284 348 Q315 336 331 293 Q347 250 347 180 Q347 117 335 77.5 Q323 38 299 19 Q275 0 239 0 L58 0 Z M179 404 Q204 404 212.5 418 Q221 432 221 476 Q221 515 212 532 Q203 549 179 549 L160 549 Q149 549 146 545 Q143 541 143 529 L143 424 Q143 412 146.5 408 Q150 404 160 404 L179 404 Z M179 118 Q209 118 218.5 135 Q228 152 228 201 Q228 248 218 267 Q208 286 179 286 L160 286 Q149 286 146 282 Q143 278 143 266 L143 138 Q143 127 146.5 122.5 Q150 118 160 118 L179 118 Z " />
<glyph glyph-name="gamma" unicode="&#x3b3;" horiz-adv-x="278" d="M59 0 Q41 0 33.5 10 Q26 20 26 43 L26 623 Q26 650 32.5 658.5 Q39 667 59 667 L238 667 Q258 667 266.5 657 Q275 647 275 624 L275 591 Q275 567 268 558 Q261 549 241 549 L160 549 Q152 549 148 544.5 Q144 540 144 528 L144 43 Q144 18 137.5 9 Q131 0 112 0 L59 0 Z " />
<glyph glyph-name="delta" unicode="&#x3b4;" horiz-adv-x="370" d="M32 0 Q18 0 10.5 9.5 Q3 19 5 34 L84 629 Q87 651 96 659 Q105 667 126 667 L242 667 Q260 667 269 658.5 Q278 650 281 628 L366 35 Q368 20 361 10 Q354 0 340 0 L32 0 Z M191 518 Q190 533 183 533 Q175 533 174 517 L143 135 Q141 118 157 118 L210 118 Q226 118 224 137 L191 518 Z " />
<glyph glyph-name="epsilon" unicode="&#x3b5;" horiz-adv-x="301" d="M60 0 Q40 0 33 9 Q26 18 26 44 L26 623 Q26 648 33.5 657.5 Q41 667 60 667 L258 667 Q277 667 283.5 659.5 Q290 652 290 628 L290 591 Q290 566 283.5 557.5 Q277 549 258 549 L160 549 Q149 549 145.5 545 Q142 541 142 527 L142 434 Q142 420 144.5 416.5 Q147 413 160 413 L210 413 Q227 413 233 406 Q239 399 239 379 L239 328 Q239 309 232.5 302 Q226 295 210 295 L160 295 Q149 295 145.5 292 Q142 289 142 280 L142 140 Q142 127 146 122.5 Q150 118 163 118 L262 118 Q282 118 290 108.5 Q298 99 298 75 L298 43 Q298 20 290 10 Q282 0 264 0 L60 0 Z " />
<glyph glyph-name="epsilontonos" unicode="&#x3ad;" horiz-adv-x="423" d="M182 0 Q162 0 155 9 Q148 18 148 44 L148 623 Q148 648 155.5 657.5 Q163 667 182 667 L380 667 Q399 667 405.5 659.5 Q412 652 412 628 L412 591 Q412 566 405.5 557.5 Q399 549 380 549 L282 549 Q271 549 267.5 545 Q264 541 264 527 L264 434 Q264 420 266.5 416.5 Q269 413 282 413 L332 413 Q349 413 355 406 Q361 399 361 379 L361 328 Q361 309 354.5 302 Q348 295 332 295 L282 295 Q271 295 267.5 292 Q264 289 264 280 L264 140 Q264 127 268 122.5 Q272 118 285 118 L384 118 Q404 118 412 108.5 Q420 99 420 75 L420 43 Q420 20 412 10 Q404 0 386 0 L182 0 Z M90 544 Q81 521 63 521 L18 521 Q-3 521 2 547 L21 643 Q25 667 44 667 L116 667 Q127 667 131 659.5 Q135 652 131 643 L90 544 Z " />
<glyph glyph-name="zeta" unicode="&#x3b6;" horiz-adv-x="311" d="M40 0 Q20 0 14 8 Q8 16 8 40 L8 118 Q8 137 11 150 Q14 163 24 184 L183 531 Q187 539 185 544 Q183 549 175 549 L50 549 Q28 549 22.5 556 Q17 563 17 590 L17 625 Q17 651 23 659 Q29 667 49 667 L272 667 Q302 667 302 628 L302 549 Q302 535 299 522.5 Q296 510 288 493 L129 142 Q124 132 126 125 Q128 118 138 118 L271 118 Q290 118 296.5 109.5 Q303 101 303 75 L303 41 Q303 17 295.5 8.5 Q288 0 267 0 L40 0 Z " />
<glyph glyph-name="eta" unicode="&#x3b7;" horiz-adv-x="378" d="M266 0 Q248 0 241.5 9.5 Q235 19 235 43 L235 274 Q235 286 232 290.5 Q229 295 219 295 L159 295 Q149 295 146 290.5 Q143 286 143 274 L143 43 Q143 19 136.5 9.5 Q130 0 112 0 L59 0 Q40 0 33 9.5 Q26 19 26 44 L26 624 Q26 648 33.5 657.5 Q41 667 59 667 L113 667 Q129 667 136 657 Q143 647 143 625 L143 432 Q143 421 146.5 417 Q150 413 158 413 L220 413 Q228 413 231.5 417 Q235 421 235 432 L235 625 Q235 647 242 657 Q249 667 265 667 L319 667 Q337 667 344.5 657.5 Q352 648 352 624 L352 44 Q352 19 345 9.5 Q338 0 319 0 L266 0 Z " />
<glyph glyph-name="etatonos" unicode="&#x3ae;" horiz-adv-x="500" d="M388 0 Q370 0 363.5 9.5 Q357 19 357 43 L357 274 Q357 286 354 290.5 Q351 295 341 295 L281 295 Q271 295 268 290.5 Q265 286 265 274 L265 43 Q265 19 258.5 9.5 Q252 0 234 0 L181 0 Q162 0 155 9.5 Q148 19 148 44 L148 624 Q148 648 155.5 657.5 Q163 667 181 667 L235 667 Q251 667 258 657 Q265 647 265 625 L265 432 Q265 421 268.5 417 Q272 413 280 413 L342 413 Q350 413 353.5 417 Q357 421 357 432 L357 625 Q357 647 364 657 Q371 667 387 667 L441 667 Q459 667 466.5 657.5 Q474 648 474 624 L474 44 Q474 19 467 9.5 Q460 0 441 0 L388 0 Z M90 544 Q81 521 63 521 L18 521 Q-3 521 2 547 L21 643 Q25 667 44 667 L116 667 Q127 667 131 659.5 Q135 652 131 643 L90 544 Z " />
<glyph glyph-name="theta" unicode="&#x3b8;" horiz-adv-x="356" d="M178 -8 Q118 -8 85 17.5 Q52 43 37 88.5 Q22 134 19.5 197.5 Q17 261 17 336 Q17 411 19.5 473.5 Q22 536 37 581 Q52 626 85 650.5 Q118 675 178 675 Q238 675 271 650 Q304 625 319 580 Q334 535 336.5 473 Q339 411 339 336 Q339 261 336.5 198 Q334 135 319 89.5 Q304 44 271 18 Q238 -8 178 -8 Z M207 414 Q215 414 218 417.5 Q221 421 221 433 Q220 469 218 491.5 Q216 514 211.5 526.5 Q207 539 199 544 Q191 549 178 549 Q165 549 157 544 Q149 539 144 526 Q139 513 136.5 490.5 Q134 468 134 433 Q134 421 137.5 417.5 Q141 414 149 414 L207 414 Z M150 296 Q140 296 137 291.5 Q134 287 134 275 Q134 228 136 198 Q138 168 142.5 150.5 Q147 133 155.5 126 Q164 119 178 119 Q192 119 201 126 Q210 133 214.5 150.5 Q219 168 220.5 198 Q222 228 222 275 Q222 287 219 291.5 Q216 296 206 296 L150 296 Z " />
<glyph glyph-name="iota" unicode="&#x3b9;" horiz-adv-x="170" d="M61 0 Q40 0 33 8.5 Q26 17 26 44 L26 622 Q26 648 33 657.5 Q40 667 59 667 L113 667 Q130 667 137 657.5 Q144 648 144 622 L144 42 Q144 17 137.5 8.5 Q131 0 111 0 L61 0 Z " />
<glyph glyph-name="iotatonos" unicode="&#x3af;" horiz-adv-x="292" d="M183 0 Q162 0 155 8.5 Q148 17 148 44 L148 622 Q148 648 155 657.5 Q162 667 181 667 L235 667 Q252 667 259 657.5 Q266 648 266 622 L266 42 Q266 17 259.5 8.5 Q253 0 233 0 L183 0 Z M90 544 Q81 521 63 521 L18 521 Q-3 521 2 547 L21 643 Q25 667 44 667 L116 667 Q127 667 131 659.5 Q135 652 131 643 L90 544 Z " />
<glyph glyph-name="iotadieresis" unicode="&#x3ca;" horiz-adv-x="170" d="M61 0 Q40 0 33 8.5 Q26 17 26 44 L26 622 Q26 648 33 657.5 Q40 667 59 667 L113 667 Q130 667 137 657.5 Q144 648 144 622 L144 42 Q144 17 137.5 8.5 Q131 0 111 0 L61 0 Z M133 692 Q115 692 108.5 698.5 Q102 705 102 723 L102 758 Q102 776 108.5 782.5 Q115 789 133 789 L162 789 Q180 789 186.5 782.5 Q193 776 193 758 L193 723 Q193 705 186.5 698.5 Q180 692 162 692 L133 692 Z M12 692 Q-6 692 -12.5 698.5 Q-19 705 -19 723 L-19 758 Q-19 776 -12.5 782.5 Q-6 789 12 789 L41 789 Q59 789 65.5 782.5 Q72 776 72 758 L72 723 Q72 705 65.5 698.5 Q59 692 41 692 L12 692 Z " />
<glyph glyph-name="iotadieresistonos" unicode="&#x390;" horiz-adv-x="170" d="M61 0 Q40 0 33 8.5 Q26 17 26 44 L26 622 Q26 648 33 657.5 Q40 667 59 667 L113 667 Q130 667 137 657.5 Q144 648 144 622 L144 42 Q144 17 137.5 8.5 Q131 0 111 0 L61 0 Z M-37 692 Q-54 692 -59.5 698 Q-65 704 -65 720 L-65 753 Q-65 769 -59.5 775 Q-54 781 -37 781 L-12 781 Q5 781 10.5 775 Q16 769 16 753 L16 720 Q16 704 10.5 698 Q5 692 -12 692 L-37 692 Z M40 692 Q26 692 26 705 Q26 708 28 714 L46 773 Q49 783 52.5 786 Q56 789 63 789 L131 789 Q148 789 148 773 Q148 766 143 759 L102 701 Q97 695 93 693.5 Q89 692 82 692 L40 692 Z M185 692 Q168 692 162.5 698 Q157 704 157 720 L157 753 Q157 769 162.5 775 Q168 781 185 781 L210 781 Q227 781 232.5 775 Q238 769 238 753 L238 720 Q238 704 232.5 698 Q227 692 210 692 L185 692 Z " />
<glyph glyph-name="kappa" unicode="&#x3ba;" horiz-adv-x="375" d="M270 0 Q257 0 251.5 6 Q246 12 242 29 L192 266 Q190 276 188 279 Q186 282 182 282 Q180 282 178 281 Q176 280 173 276 Q170 272 165.5 264 Q161 256 153 241 Q148 231 146 219 Q144 207 144 185 L144 42 Q144 17 137.5 8.5 Q131 0 111 0 L61 0 Q40 0 33 8.5 Q26 17 26 44 L26 622 Q26 648 33 657.5 Q40 667 59 667 L113 667 Q130 667 137 657.5 Q144 648 144 622 L144 473 Q144 462 149 462 Q154 462 159 473 L233 629 Q245 654 251 660.5 Q257 667 271 667 L360 667 Q372 667 372 655 Q372 649 369 643 L270 451 Q264 439 264 429 Q264 422 267 411 L368 30 Q373 12 369.5 6 Q366 0 352 0 L270 0 Z " />
<glyph glyph-name="lambda" unicode="&#x3bb;" horiz-adv-x="371" d="M260 0 Q252 0 247 3.5 Q242 7 241 18 L191 518 Q190 533 183 533 Q176 533 175 517 L131 18 Q129 8 126 4 Q123 0 112 0 L22 0 Q13 0 8 5.5 Q3 11 4 18 L84 629 Q87 651 96 659 Q105 667 126 667 L242 667 Q260 667 269 658.5 Q278 650 281 628 L367 21 Q368 13 364.5 6.5 Q361 0 353 0 L260 0 Z " />
<glyph glyph-name="&amp;#xb5;" unicode="&#xb5;" horiz-adv-x="466" d="M354 0 Q335 0 328.5 8.5 Q322 17 322 42 L322 313 Q322 328 321 332.5 Q320 337 318 337 Q313 337 309 315 L269 117 Q265 99 257.5 93 Q250 87 233 87 Q216 87 208.5 93 Q201 99 197 117 L157 315 Q152 337 148 337 Q146 337 145 332.5 Q144 328 144 313 L144 42 Q144 17 137.5 8.5 Q131 0 112 0 L59 0 Q38 0 32 8 Q26 16 26 43 L26 626 Q26 651 32.5 659 Q39 667 58 667 L113 667 Q137 667 144.5 662 Q152 657 158 636 L225 396 Q228 387 233 387 Q238 387 241 396 L308 636 Q314 657 321.5 662 Q329 667 353 667 L408 667 Q427 667 433.5 659 Q440 651 440 626 L440 43 Q440 16 434 8 Q428 0 407 0 L354 0 Z " />
<glyph glyph-name="&amp;#x3bc;" unicode="&#x3bc;" horiz-adv-x="466" d="M354 0 Q335 0 328.5 8.5 Q322 17 322 42 L322 313 Q322 328 321 332.5 Q320 337 318 337 Q313 337 309 315 L269 117 Q265 99 257.5 93 Q250 87 233 87 Q216 87 208.5 93 Q201 99 197 117 L157 315 Q152 337 148 337 Q146 337 145 332.5 Q144 328 144 313 L144 42 Q144 17 137.5 8.5 Q131 0 112 0 L59 0 Q38 0 32 8 Q26 16 26 43 L26 626 Q26 651 32.5 659 Q39 667 58 667 L113 667 Q137 667 144.5 662 Q152 657 158 636 L225 396 Q228 387 233 387 Q238 387 241 396 L308 636 Q314 657 321.5 662 Q329 667 353 667 L408 667 Q427 667 433.5 659 Q440 651 440 626 L440 43 Q440 16 434 8 Q428 0 407 0 L354 0 Z " />
<glyph glyph-name="nu" unicode="&#x3bd;" horiz-adv-x="391" d="M284 0 Q266 0 259 5 Q252 10 245 31 L161 280 Q158 288 155.5 291 Q153 294 150 294 Q147 294 146 290 Q145 286 145 275 L145 44 Q145 20 138 10 Q131 0 114 0 L62 0 Q42 0 34 10 Q26 20 26 45 L26 623 Q26 649 33 658 Q40 667 61 667 L107 667 Q125 667 132 662 Q139 657 146 636 L230 388 Q233 380 235.5 377 Q238 374 241 374 Q244 374 245 378 Q246 382 246 393 L246 623 Q246 647 253 657 Q260 667 277 667 L329 667 Q349 667 357 657 Q365 647 365 622 L365 45 Q365 19 358 9.5 Q351 0 330 0 L284 0 Z " />
<glyph glyph-name="xi" unicode="&#x3be;" horiz-adv-x="321" d="M36 549 Q18 549 12 556.5 Q6 564 6 589 L6 623 Q6 649 12.5 658 Q19 667 39 667 L283 667 Q301 667 308 658.5 Q315 650 315 627 L315 590 Q315 566 308.5 557.5 Q302 549 284 549 L36 549 Z M66 295 Q48 295 42 302.5 Q36 310 36 335 L36 369 Q36 395 42.5 404 Q49 413 69 413 L253 413 Q271 413 278 404.5 Q285 396 285 373 L285 336 Q285 312 278.5 303.5 Q272 295 254 295 L66 295 Z M36 0 Q18 0 12 7.5 Q6 15 6 40 L6 74 Q6 100 12.5 109 Q19 118 39 118 L283 118 Q301 118 308 109.5 Q315 101 315 78 L315 41 Q315 17 308.5 8.5 Q302 0 284 0 L36 0 Z " />
<glyph glyph-name="omicron" unicode="&#x3bf;" horiz-adv-x="356" d="M178 -8 Q131 -8 99.5 8.5 Q68 25 50 58 Q32 91 24.5 144.5 Q17 198 17 336 Q17 472 24.5 525 Q32 578 50 610.5 Q68 643 99.5 659 Q131 675 178 675 Q225 675 256 659 Q287 643 305.5 610.5 Q324 578 331.5 525 Q339 472 339 336 Q339 199 331.5 145.5 Q324 92 306 58.5 Q288 25 256.5 8.5 Q225 -8 178 -8 Z M178 119 Q194 119 202.5 127.5 Q211 136 215 154.5 Q219 173 220.5 207 Q222 241 222 336 Q222 429 220.5 462.5 Q219 496 215 514.5 Q211 533 202.5 541 Q194 549 178 549 Q161 549 153 540.5 Q145 532 141 514 Q137 496 135.5 463 Q134 430 134 336 Q134 243 135.5 209 Q137 175 141 156 Q145 137 153.5 128 Q162 119 178 119 Z " />
<glyph glyph-name="omicrontonos" unicode="&#x3cc;" horiz-adv-x="447" d="M269 -8 Q222 -8 190.5 8.5 Q159 25 141 58 Q123 91 115.5 144.5 Q108 198 108 336 Q108 472 115.5 525 Q123 578 141 610.5 Q159 643 190.5 659 Q222 675 269 675 Q316 675 347 659 Q378 643 396.5 610.5 Q415 578 422.5 525 Q430 472 430 336 Q430 199 422.5 145.5 Q415 92 397 58.5 Q379 25 347.5 8.5 Q316 -8 269 -8 Z M269 119 Q285 119 293.5 127.5 Q302 136 306 154.5 Q310 173 311.5 207 Q313 241 313 336 Q313 429 311.5 462.5 Q310 496 306 514.5 Q302 533 293.5 541 Q285 549 269 549 Q252 549 244 540.5 Q236 532 232 514 Q228 496 226.5 463 Q225 430 225 336 Q225 243 226.5 209 Q228 175 232 156 Q236 137 244.5 128 Q253 119 269 119 Z M90 544 Q81 521 63 521 L18 521 Q-3 521 2 547 L21 643 Q25 667 44 667 L116 667 Q127 667 131 659.5 Q135 652 131 643 L90 544 Z " />
<glyph glyph-name="pi" unicode="&#x3c0;" horiz-adv-x="378" d="M266 0 Q247 0 241 7.5 Q235 15 235 37 L235 528 Q235 540 232 544.5 Q229 549 219 549 L159 549 Q149 549 146 544.5 Q143 540 143 528 L143 37 Q143 15 137 7.5 Q131 0 112 0 L59 0 Q39 0 32.5 7 Q26 14 26 38 L26 624 Q26 648 33.5 657.5 Q41 667 59 667 L319 667 Q337 667 344.5 657.5 Q352 648 352 624 L352 38 Q352 14 345.5 7 Q339 0 319 0 L266 0 Z " />
<glyph glyph-name="rho" unicode="&#x3c1;" horiz-adv-x="347" d="M58 0 Q38 0 32 8 Q26 16 26 43 L26 621 Q26 647 33 657 Q40 667 58 667 L212 667 Q275 667 307.5 613 Q340 559 340 454 Q340 353 311.5 300.5 Q283 248 228 248 L144 248 L144 43 Q144 17 138 8.5 Q132 0 112 0 L58 0 Z M192 366 Q201 366 206 369 Q211 372 214.5 381 Q218 390 220 408 Q222 426 222 455 Q222 485 220 503.5 Q218 522 214 532 Q210 542 204 545.5 Q198 549 189 549 L160 549 Q151 549 147.5 545 Q144 541 144 531 L144 383 Q144 366 159 366 L192 366 Z " />
<glyph glyph-name="sigma" unicode="&#x3c3;" horiz-adv-x="305" d="M48 0 Q28 0 22 8 Q16 16 16 40 L16 115 Q16 121 18.5 140.5 Q21 160 32 184 L101 332 Q106 343 105 349.5 Q104 356 99 366 L31 493 Q23 511 20 523 Q17 535 17 544 L17 628 Q17 667 47 667 L258 667 Q278 667 284 659 Q290 651 290 625 L290 590 Q290 563 284 556 Q278 549 261 549 L146 549 Q138 549 136 544 Q134 539 138 531 L224 366 Q229 356 228.5 345 Q228 334 223 325 L137 142 Q132 133 133.5 125.5 Q135 118 146 118 L267 118 Q286 118 292.5 109.5 Q299 101 299 75 L299 41 Q299 17 291.5 8.5 Q284 0 263 0 L48 0 Z " />
<glyph glyph-name="sigma1" unicode="&#x3c2;" horiz-adv-x="305" d="M48 0 Q28 0 22 8 Q16 16 16 40 L16 115 Q16 121 18.5 140.5 Q21 160 32 184 L101 332 Q106 343 105 349.5 Q104 356 99 366 L31 493 Q23 511 20 523 Q17 535 17 544 L17 628 Q17 667 47 667 L258 667 Q278 667 284 659 Q290 651 290 625 L290 590 Q290 563 284 556 Q278 549 261 549 L146 549 Q138 549 136 544 Q134 539 138 531 L224 366 Q229 356 228.5 345 Q228 334 223 325 L137 142 Q132 133 133.5 125.5 Q135 118 146 118 L267 118 Q286 118 292.5 109.5 Q299 101 299 75 L299 41 Q299 17 291.5 8.5 Q284 0 263 0 L48 0 Z " />
<glyph glyph-name="tau" unicode="&#x3c4;" horiz-adv-x="315" d="M132 0 Q112 0 105 8.5 Q98 17 98 41 L98 529 Q98 543 94.5 546 Q91 549 85 549 L33 549 Q15 549 9 556.5 Q3 564 3 589 L3 623 Q3 649 9.5 658 Q16 667 36 667 L280 667 Q298 667 305 658.5 Q312 650 312 627 L312 590 Q312 566 305.5 557.5 Q299 549 281 549 L229 549 Q221 549 218.5 545 Q216 541 216 529 L216 44 Q216 18 210 9 Q204 0 184 0 L132 0 Z " />
<glyph glyph-name="upsilon" unicode="&#x3c5;" horiz-adv-x="344" d="M146 0 Q126 0 119.5 8.5 Q113 17 113 43 L113 255 L3 632 Q-2 647 2.5 657 Q7 667 21 667 L88 667 Q100 667 105.5 662 Q111 657 114 643 L165 426 Q167 415 172 415 Q177 415 179 426 L230 643 Q233 657 238.5 662 Q244 667 256 667 L323 667 Q337 667 341.5 657 Q346 647 341 632 L231 255 L231 43 Q231 17 224.5 8.5 Q218 0 198 0 L146 0 Z " />
<glyph glyph-name="upsilontonos" unicode="&#x3cd;" horiz-adv-x="481" d="M283 0 Q263 0 256.5 8.5 Q250 17 250 43 L250 255 L140 632 Q135 647 139.5 657 Q144 667 158 667 L225 667 Q237 667 242.5 662 Q248 657 251 643 L302 426 Q304 415 309 415 Q314 415 316 426 L367 643 Q370 657 375.5 662 Q381 667 393 667 L460 667 Q474 667 478.5 657 Q483 647 478 632 L368 255 L368 43 Q368 17 361.5 8.5 Q355 0 335 0 L283 0 Z M90 544 Q81 521 63 521 L18 521 Q-3 521 2 547 L21 643 Q25 667 44 667 L116 667 Q127 667 131 659.5 Q135 652 131 643 L90 544 Z " />
<glyph glyph-name="upsilondieresis" unicode="&#x3cb;" horiz-adv-x="344" d="M146 0 Q126 0 119.5 8.5 Q113 17 113 43 L113 255 L3 632 Q-2 647 2.5 657 Q7 667 21 667 L88 667 Q100 667 105.5 662 Q111 657 114 643 L165 426 Q167 415 172 415 Q177 415 179 426 L230 643 Q233 657 238.5 662 Q244 667 256 667 L323 667 Q337 667 341.5 657 Q346 647 341 632 L231 255 L231 43 Q231 17 224.5 8.5 Q218 0 198 0 L146 0 Z M218 692 Q200 692 193.5 698.5 Q187 705 187 723 L187 758 Q187 776 193.5 782.5 Q200 789 218 789 L247 789 Q265 789 271.5 782.5 Q278 776 278 758 L278 723 Q278 705 271.5 698.5 Q265 692 247 692 L218 692 Z M97 692 Q79 692 72.5 698.5 Q66 705 66 723 L66 758 Q66 776 72.5 782.5 Q79 789 97 789 L126 789 Q144 789 150.5 782.5 Q157 776 157 758 L157 723 Q157 705 150.5 698.5 Q144 692 126 692 L97 692 Z " />
<glyph glyph-name="upsilondieresistonos" unicode="&#x3b0;" horiz-adv-x="344" d="M146 0 Q126 0 119.5 8.5 Q113 17 113 43 L113 255 L3 632 Q-2 647 2.5 657 Q7 667 21 667 L88 667 Q100 667 105.5 662 Q111 657 114 643 L165 426 Q167 415 172 415 Q177 415 179 426 L230 643 Q233 657 238.5 662 Q244 667 256 667 L323 667 Q337 667 341.5 657 Q346 647 341 632 L231 255 L231 43 Q231 17 224.5 8.5 Q218 0 198 0 L146 0 Z M49 692 Q32 692 26.5 698 Q21 704 21 720 L21 753 Q21 769 26.5 775 Q32 781 49 781 L74 781 Q91 781 96.5 775 Q102 769 102 753 L102 720 Q102 704 96.5 698 Q91 692 74 692 L49 692 Z M126 692 Q112 692 112 705 Q112 708 114 714 L132 773 Q135 783 138.5 786 Q142 789 149 789 L217 789 Q234 789 234 773 Q234 766 229 759 L188 701 Q183 695 179 693.5 Q175 692 168 692 L126 692 Z M271 692 Q254 692 248.5 698 Q243 704 243 720 L243 753 Q243 769 248.5 775 Q254 781 271 781 L296 781 Q313 781 318.5 775 Q324 769 324 753 L324 720 Q324 704 318.5 698 Q313 692 296 692 L271 692 Z " />
<glyph glyph-name="phi" unicode="&#x3c6;" horiz-adv-x="453" d="M205 0 Q183 0 176.5 7 Q170 14 170 40 L170 71 Q170 79 166 83 Q162 87 152 88 Q114 92 87 111 Q60 130 43 163 Q26 196 18 242.5 Q10 289 10 354 Q10 404 19 446.5 Q28 489 45.5 520 Q63 551 89 569.5 Q115 588 149 592 Q160 593 165 597.5 Q170 602 170 610 L170 626 Q170 651 177 659 Q184 667 203 667 L253 667 Q270 667 276.5 659.5 Q283 652 283 626 L283 611 Q283 603 289 598 Q295 593 305 592 Q339 588 365 569.5 Q391 551 408.5 519.5 Q426 488 434.5 446 Q443 404 443 354 Q443 292 434.5 245 Q426 198 408.5 164.5 Q391 131 363.5 111.5 Q336 92 299 88 Q290 87 286.5 83.5 Q283 80 283 71 L283 38 Q283 13 277 6.5 Q271 0 251 0 L205 0 Z M283 210 Q295 210 304 218.5 Q313 227 318.5 243 Q324 259 326.5 282.5 Q329 306 329 340 Q329 379 326.5 402 Q324 425 319 440.5 Q314 456 305 464 Q296 472 283 472 L283 210 Z M170 472 Q157 472 148 464 Q139 456 134 440.5 Q129 425 126.5 402 Q124 379 124 340 Q124 306 126.5 282.5 Q129 259 134.5 243 Q140 227 149 218.5 Q158 210 170 210 L170 472 Z " />
<glyph glyph-name="chi" unicode="&#x3c7;" horiz-adv-x="342" d="M243 0 Q220 0 216 25 L180 232 Q177 244 171 244 Q165 244 162 232 L126 25 Q122 0 99 0 L21 0 Q7 0 3.5 8.5 Q0 17 5 37 L71 346 L5 631 Q0 651 5.5 659 Q11 667 25 667 L101 667 Q121 667 127 640 L163 452 Q165 444 166 441.5 Q167 439 171 439 Q175 439 176 441.5 Q177 444 179 452 L215 640 Q221 667 241 667 L317 667 Q331 667 336.5 659 Q342 651 337 631 L270 346 L337 37 Q342 17 338.5 8.5 Q335 0 321 0 L243 0 Z " />
<glyph glyph-name="psi" unicode="&#x3c8;" horiz-adv-x="471" d="M214 0 Q192 0 185.5 7 Q179 14 179 40 L179 182 Q179 190 175 193.5 Q171 197 160 198 Q122 203 94.5 224 Q67 245 51 280 Q35 315 27.5 360.5 Q20 406 20 466 L20 630 Q20 652 26.5 659.5 Q33 667 50 667 L100 667 Q119 667 126 659.5 Q133 652 133 630 L133 452 Q133 418 135.5 395 Q138 372 143 356 Q148 340 157 331 Q166 322 179 322 L179 630 Q179 652 186 659.5 Q193 667 212 667 L262 667 Q279 667 285.5 659.5 Q292 652 292 630 L292 322 Q305 322 314 331 Q323 340 328 356 Q333 372 335.5 395 Q338 418 338 452 L338 630 Q338 652 345 659.5 Q352 667 371 667 L421 667 Q438 667 444.5 659.5 Q451 652 451 630 L451 466 Q451 404 444 358.5 Q437 313 420.5 279 Q404 245 376.5 224.5 Q349 204 309 200 Q299 199 295.5 195 Q292 191 292 182 L292 38 Q292 13 286 6.5 Q280 0 260 0 L214 0 Z " />
<glyph glyph-name="omega" unicode="&#x3c9;" horiz-adv-x="355" d="M229 0 Q209 0 202 9.5 Q195 19 195 42 L195 202 Q195 207 198 212 Q201 217 203 220 Q212 230 216.5 280 Q221 330 221 413 Q221 454 219.5 480.5 Q218 507 213 522 Q208 537 199.5 542.5 Q191 548 178 548 Q164 548 155.5 542.5 Q147 537 142.5 522 Q138 507 136 480.5 Q134 454 134 413 Q134 332 138.5 281.5 Q143 231 152 221 Q154 219 157 214 Q160 209 160 202 L160 41 Q160 18 153.5 9 Q147 0 127 0 L54 0 Q34 0 25.5 10 Q17 20 17 43 L17 76 Q17 100 24 109 Q31 118 51 118 L64 118 Q74 118 72 124 Q70 130 62 139 Q47 157 38 180.5 Q29 204 24.5 236.5 Q20 269 18.5 312.5 Q17 356 17 413 Q17 472 22.5 520 Q28 568 44.5 602.5 Q61 637 92.5 655.5 Q124 674 177 674 Q229 674 261 655.5 Q293 637 310 602.5 Q327 568 332.5 520 Q338 472 338 413 Q338 356 336.5 312.5 Q335 269 330.5 236.5 Q326 204 317 180.5 Q308 157 293 139 Q285 130 283 124 Q281 118 291 118 L303 118 Q323 118 330 109 Q337 100 337 76 L337 43 Q337 20 328.5 10 Q320 0 300 0 L229 0 Z " />
<glyph glyph-name="omegatonos" unicode="&#x3ce;" horiz-adv-x="447" d="M321 0 Q301 0 294 9.5 Q287 19 287 42 L287 202 Q287 207 290 212 Q293 217 295 220 Q304 230 308.5 280 Q313 330 313 413 Q313 454 311.5 480.5 Q310 507 305 522 Q300 537 291.5 542.5 Q283 548 270 548 Q256 548 247.5 542.5 Q239 537 234.5 522 Q230 507 228 480.5 Q226 454 226 413 Q226 332 230.5 281.5 Q235 231 244 221 Q246 219 249 214 Q252 209 252 202 L252 41 Q252 18 245.5 9 Q239 0 219 0 L146 0 Q126 0 117.5 10 Q109 20 109 43 L109 76 Q109 100 116 109 Q123 118 143 118 L156 118 Q166 118 164 124 Q162 130 154 139 Q139 157 130 180.5 Q121 204 116.5 236.5 Q112 269 110.5 312.5 Q109 356 109 413 Q109 472 114.5 520 Q120 568 136.5 602.5 Q153 637 184.5 655.5 Q216 674 269 674 Q321 674 353 655.5 Q385 637 402 602.5 Q419 568 424.5 520 Q430 472 430 413 Q430 356 428.5 312.5 Q427 269 422.5 236.5 Q418 204 409 180.5 Q400 157 385 139 Q377 130 375 124 Q373 118 383 118 L395 118 Q415 118 422 109 Q429 100 429 76 L429 43 Q429 20 420.5 10 Q412 0 392 0 L321 0 Z M90 544 Q81 521 63 521 L18 521 Q-3 521 2 547 L21 643 Q25 667 44 667 L116 667 Q127 667 131 659.5 Q135 652 131 643 L90 544 Z " />
<glyph glyph-name="tonos" unicode="&#x384;" horiz-adv-x="145" d="M90 544 Q81 521 63 521 L18 521 Q-3 521 2 547 L21 643 Q25 667 44 667 L116 667 Q127 667 131 659.5 Q135 652 131 643 L90 544 Z " />
<glyph glyph-name="dieresistonos" unicode="&#x385;" horiz-adv-x="323" d="M38 692 Q21 692 15.5 698 Q10 704 10 720 L10 753 Q10 769 15.5 775 Q21 781 38 781 L63 781 Q80 781 85.5 775 Q91 769 91 753 L91 720 Q91 704 85.5 698 Q80 692 63 692 L38 692 Z M115 692 Q101 692 101 705 Q101 708 103 714 L121 773 Q124 783 127.5 786 Q131 789 138 789 L206 789 Q223 789 223 773 Q223 766 218 759 L177 701 Q172 695 168 693.5 Q164 692 157 692 L115 692 Z M260 692 Q243 692 237.5 698 Q232 704 232 720 L232 753 Q232 769 237.5 775 Q243 781 260 781 L285 781 Q302 781 307.5 775 Q313 769 313 753 L313 720 Q313 704 307.5 698 Q302 692 285 692 L260 692 Z " />
<glyph glyph-name="uni0410" unicode="&#x410;" horiz-adv-x="371" d="M258 0 Q250 0 246.5 3.5 Q243 7 241 18 L222 159 Q220 169 216.5 172 Q213 175 205 175 L163 175 Q155 175 151.5 172.5 Q148 170 146 159 L130 16 Q129 6 126 3 Q123 0 112 0 L20 0 Q1 0 3 15 L84 629 Q87 651 96 659 Q105 667 126 667 L242 667 Q260 667 269 658.5 Q278 650 281 628 L368 15 Q369 0 353 0 L258 0 Z M191 534 Q190 549 183 549 Q176 549 175 533 L158 304 Q157 293 171 293 L196 293 Q211 293 210 304 L191 534 Z " />
<glyph glyph-name="uni0411" unicode="&#x411;" horiz-adv-x="354" d="M189 118 Q198 118 204 121.5 Q210 125 214 135 Q218 145 220 163.5 Q222 182 222 212 Q222 241 220 259 Q218 277 214.5 286 Q211 295 206 298 Q201 301 192 301 L159 301 Q144 301 144 284 L144 136 Q144 126 147.5 122 Q151 118 160 118 L189 118 Z M58 0 Q40 0 33 10 Q26 20 26 46 L26 621 Q26 649 32.5 658 Q39 667 59 667 L274 667 Q294 667 301.5 657.5 Q309 648 309 624 L309 589 Q309 566 302 557.5 Q295 549 278 549 L162 549 Q150 549 147 544 Q144 539 144 522 L144 419 L228 419 Q283 419 311.5 366.5 Q340 314 340 213 Q340 108 307.5 54 Q275 0 212 0 L58 0 Z " />
<glyph glyph-name="uni0412" unicode="&#x412;" horiz-adv-x="361" d="M58 0 Q39 0 32.5 9 Q26 18 26 44 L26 624 Q26 648 33 657.5 Q40 667 58 667 L239 667 Q273 667 295 650.5 Q317 634 327.5 599 Q338 564 338 499 Q338 436 325.5 400.5 Q313 365 284 348 Q315 336 331 293 Q347 250 347 180 Q347 117 335 77.5 Q323 38 299 19 Q275 0 239 0 L58 0 Z M179 404 Q204 404 212.5 418 Q221 432 221 476 Q221 515 212 532 Q203 549 179 549 L160 549 Q149 549 146 545 Q143 541 143 529 L143 424 Q143 412 146.5 408 Q150 404 160 404 L179 404 Z M179 118 Q209 118 218.5 135 Q228 152 228 201 Q228 248 218 267 Q208 286 179 286 L160 286 Q149 286 146 282 Q143 278 143 266 L143 138 Q143 127 146.5 122.5 Q150 118 160 118 L179 118 Z " />
<glyph glyph-name="uni0413" unicode="&#x413;" horiz-adv-x="287" d="M58 0 Q39 0 32.5 8.5 Q26 17 26 42 L26 621 Q26 649 32.5 658 Q39 667 59 667 L249 667 Q269 667 276.5 657.5 Q284 648 284 624 L284 589 Q284 566 277 557.5 Q270 549 253 549 L161 549 Q149 549 146 544 Q143 539 143 522 L143 42 Q143 18 137 9 Q131 0 114 0 L58 0 Z " />
<glyph glyph-name="uni0403" unicode="&#x403;" horiz-adv-x="287" d="M58 0 Q39 0 32.5 8.5 Q26 17 26 42 L26 621 Q26 649 32.5 658 Q39 667 59 667 L249 667 Q269 667 276.5 657.5 Q284 648 284 624 L284 589 Q284 566 277 557.5 Q270 549 253 549 L161 549 Q149 549 146 544 Q143 539 143 522 L143 42 Q143 18 137 9 Q131 0 114 0 L58 0 Z M168 701 Q161 695 157.5 693.5 Q154 692 146 692 L84 692 Q73 692 73 701 Q73 708 78 714 L123 773 Q131 784 134.5 786.5 Q138 789 145 789 L233 789 Q247 789 247 776 Q247 769 237 760 L168 701 Z " />
<glyph glyph-name="uni0490" unicode="&#x490;" horiz-adv-x="278" d="M59 0 Q41 0 33.5 10 Q26 20 26 43 L26 623 Q26 650 32.5 658.5 Q39 667 59 667 L137 667 Q149 667 153 670 Q157 673 157 680 L157 732 Q157 750 164.5 756 Q172 762 197 762 L231 762 Q257 762 266 755.5 Q275 749 275 729 L275 591 Q275 567 268 558 Q261 549 241 549 L160 549 Q152 549 148 544.5 Q144 540 144 528 L144 43 Q144 18 137.5 9 Q131 0 112 0 L59 0 Z " />
<glyph glyph-name="uni0414" unicode="&#x414;" horiz-adv-x="454" d="M371 -129 Q354 -129 346 -122 Q338 -115 338 -97 L338 -15 Q338 -9 333.5 -4.5 Q329 0 322 0 L134 0 Q123 0 119.5 -5 Q116 -10 116 -19 L116 -94 Q116 -114 109 -121.5 Q102 -129 81 -129 L38 -129 Q21 -129 12 -122.5 Q3 -116 3 -94 L3 83 Q3 102 9 110 Q15 118 33 118 L40 118 Q48 118 60 156.5 Q72 195 79 239.5 Q86 284 90.5 323 Q95 362 98.5 404.5 Q102 447 105.5 505.5 Q109 564 112 638 Q113 655 120 661 Q127 667 147 667 L357 667 Q375 667 383.5 660.5 Q392 654 392 632 L392 131 Q392 122 394 120 Q396 118 404 118 L417 118 Q433 118 442 111.5 Q451 105 451 83 L451 -94 Q451 -113 442.5 -121 Q434 -129 416 -129 L371 -129 Z M275 536 Q275 541 272 544.5 Q269 548 263 548 L232 548 Q219 548 218 531 Q215 458 211.5 405 Q208 352 204 306.5 Q200 261 195 225 Q190 189 185 160.5 Q180 132 180 131 Q180 130 180 128 Q180 118 194 118 L261 118 Q269 118 272 121 Q275 124 275 132 L275 536 Z " />
<glyph glyph-name="uni0415" unicode="&#x415;" horiz-adv-x="301" d="M60 0 Q40 0 33 9 Q26 18 26 44 L26 623 Q26 648 33.5 657.5 Q41 667 60 667 L258 667 Q277 667 283.5 659.5 Q290 652 290 628 L290 591 Q290 566 283.5 557.5 Q277 549 258 549 L160 549 Q149 549 145.5 545 Q142 541 142 527 L142 434 Q142 420 144.5 416.5 Q147 413 160 413 L210 413 Q227 413 233 406 Q239 399 239 379 L239 328 Q239 309 232.5 302 Q226 295 210 295 L160 295 Q149 295 145.5 292 Q142 289 142 280 L142 140 Q142 127 146 122.5 Q150 118 163 118 L262 118 Q282 118 290 108.5 Q298 99 298 75 L298 43 Q298 20 290 10 Q282 0 264 0 L60 0 Z " />
<glyph glyph-name="uni0401" unicode="&#x401;" horiz-adv-x="301" d="M60 0 Q40 0 33 9 Q26 18 26 44 L26 623 Q26 648 33.5 657.5 Q41 667 60 667 L258 667 Q277 667 283.5 659.5 Q290 652 290 628 L290 591 Q290 566 283.5 557.5 Q277 549 258 549 L160 549 Q149 549 145.5 545 Q142 541 142 527 L142 434 Q142 420 144.5 416.5 Q147 413 160 413 L210 413 Q227 413 233 406 Q239 399 239 379 L239 328 Q239 309 232.5 302 Q226 295 210 295 L160 295 Q149 295 145.5 292 Q142 289 142 280 L142 140 Q142 127 146 122.5 Q150 118 163 118 L262 118 Q282 118 290 108.5 Q298 99 298 75 L298 43 Q298 20 290 10 Q282 0 264 0 L60 0 Z M193 692 Q175 692 168.5 698.5 Q162 705 162 723 L162 758 Q162 776 168.5 782.5 Q175 789 193 789 L222 789 Q240 789 246.5 782.5 Q253 776 253 758 L253 723 Q253 705 246.5 698.5 Q240 692 222 692 L193 692 Z M72 692 Q54 692 47.5 698.5 Q41 705 41 723 L41 758 Q41 776 47.5 782.5 Q54 789 72 789 L101 789 Q119 789 125.5 782.5 Q132 776 132 758 L132 723 Q132 705 125.5 698.5 Q119 692 101 692 L72 692 Z " />
</font>
</svg>
